<?xml version="1.0" standalone="no"?>
<!DOCTYPE svg PUBLIC "-//W3C//DTD SVG 1.1//EN" "http://www.w3.org/Graphics/SVG/1.1/DTD/svg11.dtd" >
<svg xmlns="http://www.w3.org/2000/svg" xmlns:xlink="http://www.w3.org/1999/xlink" version="1.1">
<metadata>
Created by FontForge 20170731 at Mon Sep 19 22:37:00 2022
 By Aleksey,,,
Copyright 2015 The Cormorant Project Authors (github.com/CatharsisFonts/Cormorant)
</metadata>
<defs>
<font id="Cormorant-Regular" horiz-adv-x="1437" >
  <font-face 
    font-family="Cormorant"
    font-weight="400"
    font-stretch="normal"
    units-per-em="2048"
    panose-1="0 0 5 0 0 0 0 0 0 0"
    ascent="1638"
    descent="-410"
    x-height="791"
    cap-height="1280"
    bbox="-724 -578.308 2973.56 1894.03"
    underline-thickness="102"
    underline-position="-307"
    unicode-range="U+0020-A78C"
  />
<missing-glyph horiz-adv-x="1026" 
d="M193 -563v2048h649v-2048h-649zM344 1282h133v-78h-135v-65h340v65h-135v78h135v66h-338v-66zM342 872h340v70h-135v141h-205v-211zM410 942v72h67v-72h-67zM342 748h135v-74h-135v-70h205v144h135v67h-340v-67zM616 559h-274v-70h340v203h-66v-133zM477 328h70v49h69
v-98h-206v163h-68v-231h340v231h-205v-114zM342 -143h340v231h-340v-231zM410 -76v99h206v-99h-206zM342 -258h143l-143 -96v-68h340v68h-207l141 96h66v70h-340v-70z" />
    <glyph glyph-name="Aogonek_acutecomb.liga" unicode="&#x104;&#x301;" horiz-adv-x="1441" 
d="M506 1391q-4 -2 -7.5 0t-5 6t-1 8.5t3.5 5.5q75 39 192.5 110.5t140.5 84.5q14 8 88 -24q53 -23 49 -32q-1 -1 -5 -2q-223 -55 -455 -157zM1432 18q8 0 8 -11t-8 -11q-43 0 -105.5 3t-91.5 3q-110 0 -186 -74.5t-76 -191.5q0 -100 55.5 -169t165.5 -69q59 0 115 27
q5 3 11.5 -5t2.5 -12q-91 -71 -215 -71q-118 0 -186 60t-68 163q0 47 14.5 89t37.5 72.5t51 61t55.5 54.5t50.5 51t37.5 53.5t14 60t-18.5 70.5l-242 506h-381l-176 -418q-50 -126 -8 -180.5t180 -54.5q9 0 9 -12.5t-9 -12.5q-38 0 -112.5 4t-129.5 4q-51 0 -118 -4t-107 -4
q-9 0 -9 12.5t9 12.5q84 0 136 51.5t116 202.5l432 1019q3 6 14.5 6t12.5 -6l483 -1022q69 -148 119.5 -203t116.5 -55zM492 721h342l-181 381z" />
    <glyph glyph-name="Eogonek_acutecomb.liga" unicode="&#x118;&#x301;" horiz-adv-x="1099" 
d="M352 1391q-4 -2 -7.5 0t-5 6t-1 8.5t3.5 5.5q75 39 194.5 111.5t139.5 83.5q15 8 89 -25q50 -22 47 -31q-1 -1 -5 -2q-223 -55 -455 -157zM1018 -455q4 2 9 -1t6.5 -7.5t-1.5 -7.5q-106 -92 -221 -92q-110 0 -169.5 55t-59.5 148q0 177 229 360h-723q-4 0 -4 12.5t4 12.5
q112 0 144 25.5t32 115.5v948q0 88 -32 114.5t-144 26.5q-4 0 -4 12.5t4 12.5h823q19 0 19 -18l4 -252q0 -6 -11 -7t-12 5q-6 108 -65.5 168.5t-157.5 60.5h-125q-103 0 -134.5 -25.5t-31.5 -107.5v-416h250q98 0 140 33t42 110q0 5 12.5 5t12.5 -5q0 -45 -1 -94t-1 -71
q0 -31 2 -92t2 -97q0 -5 -12.5 -5t-12.5 5q0 90 -44 129t-146 39h-244v-471q0 -82 30 -106.5t130 -24.5h164q97 0 163.5 70t88.5 192q1 6 12.5 4t11.5 -8q-18 -130 -18 -270q0 -17 -7 -24t-26 -7h-96q-83 -75 -119.5 -144t-36.5 -149q0 -98 49.5 -153.5t141.5 -55.5
q70 0 133 47z" />
    <glyph glyph-name="IJ_acutecomb.liga" unicode="&#x132;&#x301;" horiz-adv-x="1413" 
d="M143 1391q-9 -4 -13 6.5t3 13.5q75 39 194.5 111.5t139.5 83.5q15 8 89 -25q50 -22 47 -31q-1 -1 -5 -2q-223 -55 -455 -157zM909 1391q-9 -4 -13 6.5t3 13.5q75 39 194.5 111.5t139.5 83.5q15 8 89 -25q50 -22 47 -31q-1 -1 -5 -2q-223 -55 -455 -157zM397 717
q0 -63 12.5 -91t48.5 -39.5t115 -11.5q5 0 5 -12t-5 -12q-30 0 -111 2t-134 2q-48 0 -129.5 -2t-112.5 -2q-4 0 -4 12t4 12q112 0 144 26t32 116v397q0 88 -32 114.5t-144 26.5q-4 0 -4 12.5t4 12.5q31 0 112.5 -3t129.5 -3q53 0 135.5 3t109.5 3q5 0 5 -12.5t-5 -12.5
q-111 0 -143.5 -28t-32.5 -117v-393zM1343 1280q6 0 6 -12.5t-6 -12.5q-95 0 -123 -28t-28 -117v-582q0 -264 -134.5 -409.5t-355.5 -145.5q-97 0 -184 28t-146 72t-93.5 97.5t-34.5 105.5q0 34 18.5 54t50.5 20q34 0 53.5 -19t28.5 -49.5t16.5 -67.5t23.5 -74t43 -67.5
t81.5 -49.5t132.5 -19q188 0 277.5 106.5t89.5 299.5v704q0 88 -37 114.5t-164 26.5q-6 0 -6 12.5t6 12.5q37 0 125.5 -3t138.5 -3q48 0 122 3t99 3z" />
    <glyph glyph-name="Iogonek_acutecomb.liga" unicode="&#x12e;&#x301;" horiz-adv-x="679" 
d="M465 1606q15 8 89 -25q50 -22 47 -31q-1 -1 -5 -2q-223 -55 -455 -157q-9 -4 -13 6.5t3 13.5q75 39 194.5 111.5t139.5 83.5zM582 1255q-109 0 -141.5 -28t-32.5 -117v-944q0 -90 31 -115.5t143 -25.5q6 0 6 -12.5t-6 -12.5q-27 0 -101 2t-123 2q-100 -131 -100 -287
q0 -99 46.5 -158t125.5 -59q25 0 46.5 7.5t30.5 14t30 23.5q5 3 11.5 -4.5t2.5 -11.5q-51 -50 -96.5 -71t-100.5 -21q-98 0 -153.5 54.5t-55.5 146.5q0 179 181 366q-47 0 -124.5 -2t-105.5 -2q-6 0 -6 12.5t6 12.5q112 0 144 25.5t32 115.5v948q0 88 -32 114.5t-144 26.5
q-6 0 -6 12.5t6 12.5q30 0 111.5 -3t130.5 -3q53 0 135 3t109 3q6 0 6 -12.5t-6 -12.5z" />
    <glyph glyph-name="J_acutecomb.liga" unicode="J&#x301;" horiz-adv-x="655" 
d="M135 1389q-9 -3 -12.5 8t2.5 14q73 36 188 106t146 87q14 10 89 -23q51 -22 47 -31l-5 -2q-242 -63 -455 -159zM416 137q0 -245 -63.5 -360t-237.5 -187q-4 -3 -8.5 2t-5.5 10.5t1 8.5q101 56 141 170.5t40 300.5v1032q0 88 -33.5 114.5t-145.5 26.5q-4 0 -4 12.5t4 12.5
q33 0 114.5 -3t127.5 -3q48 0 121.5 3t99.5 3q5 0 5 -12.5t-5 -12.5q-96 0 -123.5 -27.5t-27.5 -117.5v-973z" />
    <glyph glyph-name="uni01EA0301.liga" unicode="&#x1ea;&#x301;" horiz-adv-x="1568" 
d="M588 1391q-4 -2 -7.5 0t-5 6t-1 8.5t3.5 5.5q75 39 192.5 110.5t140.5 84.5q15 8 89 -25q50 -22 47 -31q-1 -1 -5 -2q-220 -55 -454 -157zM899 -10q-77 -69 -111 -137t-34 -146q0 -98 49 -153.5t141 -55.5q70 0 133 47q4 2 9.5 -1t7 -7.5t-1.5 -7.5q-106 -92 -222 -92
q-110 0 -169.5 55t-59.5 148q0 166 209 342q-58 -7 -100 -7q-191 0 -341 91t-229.5 242t-79.5 331q0 129 43 239t115 187t165.5 131.5t195 80.5t202.5 26q146 0 270 -55t205.5 -146.5t126.5 -208t45 -240.5q0 -244 -162.5 -428t-406.5 -235zM256 711q0 -193 70.5 -350.5
t200.5 -250t294 -92.5q103 0 192.5 38.5t156.5 110t105 182.5t38 247q0 292 -158.5 475.5t-419.5 183.5q-226 0 -352.5 -145.5t-126.5 -398.5z" />
    <glyph glyph-name="aogonek_acutecomb.liga" unicode="&#x105;&#x301;" horiz-adv-x="858" 
d="M424 971q-1 -4 -7 -4t-11.5 2.5t-4.5 5.5l107 491q5 13 72 26q57 10 53 -3zM846 111q9 3 13 -8t-5 -15l-211 -100q-1 -1 -4 -2t-4 -2q-74 -68 -106.5 -134.5t-32.5 -142.5q0 -98 49 -153.5t141 -55.5q70 0 133 47q4 2 9.5 -1t7 -7.5t-1.5 -7.5q-106 -92 -222 -92
q-110 0 -169.5 55t-59.5 148q0 170 221 352q-42 27 -51 123l-127 -68q-116 -61 -184 -61q-63 0 -97 33t-34 85q0 56 42.5 89.5t149.5 70.5l248 88v170q0 135 -34.5 189.5t-96.5 54.5q-70 0 -108.5 -49.5t-47.5 -118.5q-8 -78 -76 -78q-69 0 -69 62q0 47 61.5 101t148 90
t156.5 36q82 0 131.5 -56.5t49.5 -168.5v-363q0 -71 18.5 -104t60.5 -33q37 0 101 27zM426 80l125 63v13v172l-211 -80q-47 -19 -66.5 -41.5t-19.5 -56.5q0 -42 24.5 -66.5t63.5 -24.5q37 0 84 21z" />
    <glyph glyph-name="eogonek_acutecomb.liga" unicode="&#x119;&#x301;" horiz-adv-x="835" 
d="M412 971q-1 -4 -7 -4t-11.5 2.5t-4.5 5.5l107 491q5 13 72 26q57 10 53 -3zM756 -455q4 2 9 -1t6.5 -7.5t-1.5 -7.5q-95 -92 -199 -92q-101 0 -155 52.5t-54 143.5q0 177 226 363q-62 -21 -129 -21q-92 0 -167 33t-121.5 89t-71.5 125.5t-25 146.5q0 186 126.5 313
t313.5 127q111 0 172.5 -54t61.5 -149q0 -47 -25 -47l-504 -4q-10 -55 -10 -106q0 -179 86 -290.5t237 -111.5q116 0 211 68q5 3 12 -6t3 -15q-44 -34 -68 -49q-110 -91 -160.5 -174.5t-50.5 -175.5q0 -95 41.5 -147t118.5 -52q27 0 50 8t36 16.5t31 24.5zM444 768
q-84 0 -139.5 -47.5t-79.5 -136.5l381 8q0 84 -43.5 130t-118.5 46z" />
    <glyph glyph-name="ij_acutecomb.liga" unicode="&#x133;&#x301;" horiz-adv-x="1077" 
d="M276 971q-1 -4 -7 -4t-11 2.5t-4 5.5l106 491q5 13 72 26q57 10 53 -3zM809 971q-1 -4 -7 -4t-11.5 2.5t-4.5 5.5l107 491q5 13 72 26q57 10 53 -3zM109 0q-5 0 -5 12.5t5 12.5q80 0 105.5 27t25.5 114v383q0 74 -15.5 106.5t-52.5 32.5q-35 0 -92 -29q-9 -3 -13.5 8.5
t1.5 16.5l266 123l8 2q5 0 10.5 -5t5.5 -11q0 -7 -1 -41t-2 -88.5t-1 -112.5v-385q0 -88 24 -114.5t105 -26.5q6 0 6 -12.5t-6 -12.5q-22 0 -84.5 2t-101.5 2t-102 -2t-86 -2zM893 793q0 -7 -1 -40.5t-2 -88.5t-1 -113v-649q0 -205 -63.5 -311t-225.5 -169q-5 -2 -9.5 9
t-0.5 14q100 42 141 137t41 273v694q0 74 -14 106.5t-49 32.5q-36 0 -95 -29q-9 -3 -14.5 8.5t2.5 16.5l266 123q4 2 6 2q6 0 12.5 -5t6.5 -11z" />
    <glyph glyph-name="iogonek_acutecomb.liga" unicode="&#x12f;&#x301;" horiz-adv-x="559" 
d="M276 971q-1 -4 -7 -4t-11 2.5t-4 5.5l106 491q5 13 72 26q57 10 53 -3zM489 -440q5 3 12 -5t3 -12q-51 -50 -96.5 -71t-100.5 -21q-98 0 -153.5 54.5t-55.5 146.5q0 174 166 352q-118 -4 -155 -4q-5 0 -5 12.5t5 12.5q80 0 105.5 27t25.5 114v383q0 74 -15.5 106.5
t-52.5 32.5q-35 0 -92 -29q-9 -3 -13.5 8.5t1.5 16.5l266 123l8 2q5 0 10.5 -5t5.5 -11q0 -7 -1 -41t-2 -88.5t-1 -112.5v-385q0 -88 24 -114.5t105 -26.5q6 0 6 -12.5t-6 -12.5q-22 0 -83 2t-99 2q-90 -126 -90 -272q0 -99 46.5 -158t125.5 -59q25 0 46 8t29.5 14t30.5 23z
" />
    <glyph glyph-name="j_acutecomb.liga" unicode="j&#x301;" horiz-adv-x="526" 
d="M258 971q-1 -4 -7 -4t-11 2.5t-4 5.5l106 491q5 13 72 26q57 10 53 -3zM342 793q0 -7 -1 -41t-2 -88.5t-1 -112.5v-649q0 -205 -63.5 -311t-225.5 -169q-5 -2 -9.5 9t-0.5 14q100 42 141 137t41 273v694q0 74 -14 106.5t-49 32.5q-36 0 -95 -29q-9 -3 -14.5 8.5t2.5 16.5
l266 123q4 2 7 2q6 0 12 -5t6 -11z" />
    <glyph glyph-name="uni01EB0301.liga" unicode="&#x1eb;&#x301;" horiz-adv-x="980" 
d="M487 971q-1 -4 -7 -4t-11 2.5t-4 5.5l106 491q5 13 72 26q57 10 53 -3zM907 395q0 -165 -98.5 -276t-249.5 -137q-119 -133 -119 -287q0 -95 43.5 -147t128.5 -52q46 0 76.5 12.5t63.5 36.5q5 3 11.5 -4.5t2.5 -11.5q-109 -92 -227 -92q-105 0 -161 52.5t-56 143.5
q0 167 190 342q-12 -2 -39 -2q-118 0 -210.5 60.5t-140.5 158.5t-48 214q0 82 26.5 151t70 116t100.5 80.5t117.5 48.5t121.5 15q91 0 167 -36t125.5 -95.5t77 -134.5t27.5 -156zM211 469q0 -192 90.5 -324.5t230.5 -132.5q112 0 174 80t62 246q0 193 -91.5 316.5
t-234.5 123.5q-110 0 -170.5 -80t-60.5 -229z" />
    <glyph glyph-name="T_T.liga" unicode="TT" horiz-adv-x="2353" 
d="M2255 1331q3 7 13.5 7t10.5 -7q-7 -56 -12.5 -186.5t-5.5 -190.5q0 -4 -11.5 -4t-13.5 4q-8 161 -66.5 226t-197.5 65q-57 0 -86.5 -2.5t-55 -9t-35 -22.5t-14.5 -38.5t-5 -62.5v-944q0 -63 14.5 -91t54.5 -39t129 -11q6 0 6 -12.5t-6 -12.5q-33 0 -122 2t-146 2
q-53 0 -142.5 -2t-123.5 -2q-4 0 -4 12.5t4 12.5q127 0 164.5 26t37.5 115v948q0 89 -31.5 110t-150.5 21q-66 0 -101.5 -2t-68.5 -14t-46.5 -27t-25.5 -52.5t-15.5 -78.5t-6.5 -117q0 -4 -12.5 -4t-12.5 4q1 76 -0.5 117t-13 78.5t-25.5 52.5t-49.5 27t-74.5 14t-111 2
q-111 0 -143.5 -24t-32.5 -111v-944q0 -90 31.5 -115.5t144.5 -25.5q5 0 5 -12.5t-5 -12.5q-30 0 -111.5 2t-134.5 2t-142 -2t-124 -2q-5 0 -5 12.5t5 12.5q128 0 165.5 26t37.5 115v948q0 32 -2.5 53t-13 36.5t-21.5 23t-37.5 12t-52.5 5.5t-74 1q-128 0 -192 -65t-95 -226
q0 -4 -11 -4t-11 4q8 58 18 183t10 188q0 9 12.5 9.5t12.5 -9.5q0 -45 109 -45q175 -6 411 -6q100 0 216 3t155 3q117 0 137 6.5t23 46.5q0 7 12 7t12 -7q-3 -39 11 -45t100 -8q166 -6 389 -6q106 0 229 3t166 3q74 0 109 10t45 41z" />
    <glyph glyph-name="T_h.liga" unicode="Th" horiz-adv-x="2105" 
d="M2060 25q6 0 6 -12.5t-6 -12.5q-20 0 -83.5 2t-102.5 2t-102 -2t-86 -2q-4 0 -4 12.5t4 12.5q82 0 106.5 26.5t24.5 114.5v326q0 121 -46.5 179t-142.5 58q-63 0 -129.5 -33.5t-118.5 -93.5v-436q0 -88 24 -114.5t105 -26.5q6 0 6 -12.5t-6 -12.5q-20 0 -83.5 2t-102.5 2
t-102 -2t-86 -2q-5 0 -5 12.5t5 12.5q82 0 106.5 26.5t24.5 114.5v1053q0 26 -29 26h-317q-131 0 -165 -22t-34 -113v-944q0 -63 14.5 -91t55 -39t129.5 -11q6 0 6 -12.5t-6 -12.5q-32 0 -122 2t-147 2q-53 0 -142.5 -2t-123.5 -2q-5 0 -5 12.5t5 12.5q88 0 129 11
t56.5 39.5t15.5 90.5v948q0 33 -2.5 53.5t-12.5 36t-21 23t-37.5 12t-52 5.5t-73.5 1q-129 0 -194 -66.5t-93 -224.5q0 -4 -11 -4t-11 4q28 245 28 371q0 9 11.5 9.5t11.5 -9.5q0 -45 111 -45q117 -4 411 -4q296 0 396 4q125 3 204 54.5t103 150.5q2 6 14 4.5t12 -6.5v-846
q150 174 316 174q112 0 174.5 -63.5t62.5 -184.5v-397q0 -89 23 -115t104 -26z" />
    <glyph glyph-name="f_b.liga" unicode="fb" horiz-adv-x="1681" 
d="M1278 817q138 0 234 -99t96 -280q0 -112 -39.5 -203t-104.5 -147t-144 -85.5t-163 -29.5q-152 0 -283 86l-151 -69q-9 -3 -12.5 6t2.5 14q43 29 65.5 52t36.5 59.5t14 89.5l2 1085q-94 158 -247 158q-149 0 -207 -156q-53 -126 -53 -399v-131q95 2 262 20q14 0 14 -49
q0 -10 -3 -22t-7.5 -20t-9.5 -7q-117 30 -256 33v-557q0 -48 6 -73t28.5 -41.5t59.5 -21.5t106 -5q6 0 6 -12.5t-6 -12.5q-45 0 -131 2t-131 2q-40 0 -106 -2t-90 -2q-6 0 -6 12.5t6 12.5q88 0 114.5 26t26.5 115v461q0 74 -25.5 92t-124.5 18q-6 0 -6 13.5t6 13.5
q84 0 114 19.5t32 72.5q12 307 102 457q54 89 134.5 131.5t197.5 42.5q171 0 268 -78q23 41 23 82q0 6 11 6t11 -6v-846q74 78 152.5 125t175.5 47zM1221 12q119 0 185.5 92.5t66.5 264.5q0 185 -72.5 283t-190.5 98q-124 0 -260 -140v-444q114 -154 271 -154z" />
    <glyph glyph-name="f_f.liga" unicode="ff" horiz-adv-x="1228" 
d="M1257 1487q105 0 171.5 -32t66.5 -77q0 -31 -21 -48t-51 -17q-25 0 -43 12t-39 41q-31 44 -66.5 65t-88.5 21q-119 0 -188.5 -137t-69.5 -416v-131q95 2 262 20q14 0 14 -49q0 -10 -3 -22t-7.5 -20t-9.5 -7q-117 30 -256 33v-557q0 -48 6 -73t28.5 -41.5t59.5 -21.5
t106 -5q6 0 6 -12.5t-6 -12.5q-45 0 -131 2t-131 2q-40 0 -106 -2t-90 -2q-6 0 -6 12.5t6 12.5q88 0 114.5 26t26.5 115v461q-1 21 -1 31t-4.5 23t-6.5 17.5t-14 11t-19 8t-30.5 3.5t-39.5 2.5t-55 1.5q-70 4 -317 4v-563q0 -48 6 -73t28.5 -41.5t59.5 -21.5t106 -5
q6 0 6 -12.5t-6 -12.5q-45 0 -131 2t-131 2q-40 0 -106 -2t-90 -2q-6 0 -6 12.5t6 12.5q88 0 114.5 26t26.5 115v461q0 74 -25.5 92t-124.5 18q-6 0 -6 13.5t6 13.5q84 0 114 19.5t32 72.5q13 275 139 417t342 142q150 0 262 -57q106 129 311 129zM807 856q9 249 74 397
q-54 60 -122.5 93.5t-142.5 33.5q-135 0 -213.5 -123t-78.5 -358v-131q249 0 335 2q66 2 97 10.5t43 30.5q8 16 8 45z" />
    <glyph glyph-name="f_f_b.liga" unicode="ffb" horiz-adv-x="2285" 
d="M1882 817q138 0 234 -99t96 -280q0 -112 -39.5 -203t-104.5 -147t-144 -85.5t-163 -29.5q-151 0 -282 86l-152 -69q-9 -3 -12.5 6t2.5 14q65 44 91 84t26 117l2 1085q-94 158 -248 158q-149 0 -207 -156q-53 -126 -53 -399v-131q95 2 262 20q14 0 14 -49q0 -10 -3 -22
t-7.5 -20t-9.5 -7q-117 30 -256 33v-557q0 -48 6 -73t28.5 -41.5t59.5 -21.5t106 -5q6 0 6 -12.5t-6 -12.5q-45 0 -131 2t-131 2q-40 0 -106 -2t-90 -2q-6 0 -6 12.5t6 12.5q88 0 114.5 26t26.5 115v461q-1 21 -1 31t-4.5 23t-6.5 17.5t-14 11t-19 8t-30.5 3.5t-39.5 2.5
t-55 1.5q-70 4 -317 4v-563q0 -48 6 -73t28.5 -41.5t59.5 -21.5t106 -5q6 0 6 -12.5t-6 -12.5q-45 0 -131 2t-131 2q-40 0 -106 -2t-90 -2q-6 0 -6 12.5t6 12.5q88 0 114.5 26t26.5 115v461q0 74 -25.5 92t-124.5 18q-6 0 -6 13.5t6 13.5q84 0 114 19.5t32 72.5
q13 275 139 417t342 142q150 0 258 -55q103 127 299 127q171 0 268 -78q23 41 23 82q0 6 11 6t11 -6v-846q74 78 152.5 125t175.5 47zM807 856q9 246 72 397q-114 127 -263 127q-135 0 -213.5 -123t-78.5 -358v-131q249 0 335 2q66 2 97 10.5t43 30.5q8 16 8 45zM1825 12
q119 0 185.5 92.5t66.5 264.5q0 185 -72 283t-190 98q-125 0 -261 -140v-444q114 -154 271 -154z" />
    <glyph glyph-name="f_f_f.liga" unicode="fff" horiz-adv-x="1835" 
d="M1688 1487q105 0 171 -32t66 -77q0 -31 -21 -48t-51 -17q-25 0 -42.5 12t-38.5 41q-31 44 -67 65t-89 21q-70 0 -121 -45q51 -31 86 -66l-61 -133q-41 74 -86 119q-76 -146 -76 -428v-119q30 7 41.5 24.5t13.5 51.5l43 -82q43 2 164 14q14 0 14 -49q0 -10 -3 -22
t-7.5 -20t-9.5 -7q-85 21 -166 27l-33 -90q-1 28 -2.5 40.5t-7 25.5t-16.5 18t-31 8v-553q0 -48 6 -73t29 -41.5t60 -21.5t106 -5q6 0 6 -12.5t-6 -12.5q-45 0 -131.5 2t-131.5 2q-72 0 -166 -4h-2h-18h-10h-2q-39 0 -116 2t-116 2t-106 -2t-92 -2q-4 0 -4 12.5t4 12.5
q90 0 116.5 26t26.5 115v461q-1 21 -1 31t-4.5 23t-6.5 17.5t-14 11t-19 8t-30.5 3.5t-39.5 2.5t-55 1.5q-70 4 -317 4v-563q0 -48 6 -73t28.5 -41.5t59.5 -21.5t106 -5q6 0 6 -12.5t-6 -12.5q-45 0 -131 2t-131 2q-40 0 -106 -2t-90 -2q-6 0 -6 12.5t6 12.5q88 0 114.5 26
t26.5 115v461q0 74 -25.5 92t-124.5 18q-6 0 -6 13.5t6 13.5q84 0 114 19.5t32 72.5q13 275 139 417t342 142q170 0 291 -72q121 121 311 121q89 0 168 -37q92 60 234 60zM1237 856q12 365 147 512q-79 57 -165 57q-134 0 -212.5 -135t-78.5 -391v-131h233q41 7 57.5 27.5
t18.5 60.5zM807 856q9 226 90 379q-55 68 -128 106.5t-153 38.5q-135 0 -213.5 -123t-78.5 -358v-131q249 0 335 2q66 2 97 10.5t43 30.5q8 16 8 45zM1241 166v461q0 47 -7.5 69t-31.5 31q-70 2 -274 2v-563q0 -47 5.5 -71t25.5 -41.5t54.5 -22.5t98.5 -6q80 2 104.5 28.5
t24.5 112.5z" />
    <glyph glyph-name="f_f_h.liga" unicode="ffh" horiz-adv-x="2277" 
d="M2232 25q4 0 4 -12.5t-4 -12.5q-22 0 -84.5 2t-101.5 2t-102.5 -2t-83.5 -2q-6 0 -6 12.5t6 12.5q79 0 103 26.5t24 114.5v326q0 121 -46 179t-141 58q-64 0 -129 -33.5t-119 -93.5v-436q0 -88 24 -114.5t105 -26.5q5 0 5 -12.5t-5 -12.5q-22 0 -84.5 2t-101.5 2
t-102.5 -2t-83.5 -2q-6 0 -6 12.5t6 12.5q79 0 103 26.5t24 114.5v1130q-94 158 -248 158q-132 0 -196 -130.5t-64 -424.5v-131q95 2 262 20q14 0 14 -49q0 -10 -3 -22t-7.5 -20t-9.5 -7q-117 30 -256 33v-557q0 -48 6 -73t28.5 -41.5t59.5 -21.5t106 -5q6 0 6 -12.5
t-6 -12.5q-45 0 -131 2t-131 2q-40 0 -106 -2t-90 -2q-6 0 -6 12.5t6 12.5q88 0 114.5 26t26.5 115v461q-1 21 -1 31t-4.5 23t-6.5 17.5t-14 11t-19 8t-30.5 3.5t-39.5 2.5t-55 1.5q-70 4 -317 4v-563q0 -48 6 -73t28.5 -41.5t59.5 -21.5t106 -5q6 0 6 -12.5t-6 -12.5
q-45 0 -131 2t-131 2q-40 0 -106 -2t-90 -2q-6 0 -6 12.5t6 12.5q88 0 114.5 26t26.5 115v461q0 74 -25.5 92t-124.5 18q-6 0 -6 13.5t6 13.5q84 0 114 19.5t32 72.5q13 275 139 417t342 142q150 0 258 -55q103 127 299 127q167 0 266 -76q21 44 21 80q0 6 12 6t12 -6v-854
q150 174 316 174q114 0 174.5 -63t60.5 -185v-397q0 -88 24 -114.5t105 -26.5zM807 856q9 253 72 399q-112 125 -263 125q-135 0 -213.5 -123t-78.5 -358v-131q249 0 335 2q66 2 97 10.5t43 30.5q8 16 8 45z" />
    <glyph glyph-name="f_f_i.liga" unicode="ffi" horiz-adv-x="1767" 
d="M1227 1452q-136 0 -217.5 -137.5t-81.5 -415.5v-131q90 2 262 20q14 0 14 -49q0 -13 -3.5 -26.5t-8.5 -21t-8 -5.5q-131 39 -256 45v-565q0 -48 6 -73t28.5 -41.5t59.5 -21.5t106 -5q6 0 6 -12.5t-6 -12.5q-45 0 -131 2t-131 2q-40 0 -106 -2t-90 -2q-6 0 -6 12.5t6 12.5
q88 0 114.5 26t26.5 115v461q-1 21 -1 31t-4.5 23t-6.5 17.5t-14 11t-19 8t-30.5 3.5t-39.5 2.5t-55 1.5q-70 4 -317 4v-563q0 -48 6 -73t28.5 -41.5t59.5 -21.5t106 -5q6 0 6 -12.5t-6 -12.5q-45 0 -131 2t-131 2q-40 0 -106 -2t-90 -2q-6 0 -6 12.5t6 12.5q88 0 114.5 26
t26.5 115v461q0 74 -25.5 92t-124.5 18q-6 0 -6 13.5t6 13.5q84 0 114 19.5t32 72.5q13 275 139 417t342 142q158 0 274 -63q121 135 336 135q113 0 185.5 -46t72.5 -108q0 -30 -16.5 -46.5t-44.5 -16.5q-24 0 -42.5 13.5t-29.5 33.5t-27 44t-33.5 44t-51.5 33.5t-80 13.5z
M807 856q9 236 82 389q-119 135 -273 135q-135 0 -213.5 -123t-78.5 -358v-131q249 0 335 2q66 2 97 10.5t43 30.5q8 16 8 45zM1694 25q6 0 6 -12.5t-6 -12.5q-22 0 -85 2t-102 2t-101.5 -2t-84.5 -2q-6 0 -6 12.5t6 12.5q80 0 104.5 26.5t24.5 114.5v383q0 107 -34 130.5
t-126 -20.5q-9 -3 -14 9t4 16l266 125q7 4 15 -2.5t8 -13.5t-1 -41t-2 -88.5t-1 -112.5v-385q0 -88 24.5 -114.5t104.5 -26.5z" />
    <glyph glyph-name="f_f_j.liga" unicode="ffj" horiz-adv-x="1769" 
d="M1237 1452q-142 0 -225.5 -137t-83.5 -416v-131q95 2 262 20q14 0 14 -49q0 -10 -3 -22t-7.5 -20t-9.5 -7q-117 30 -256 33v-557q0 -48 6 -73t28.5 -41.5t59.5 -21.5t106 -5q6 0 6 -12.5t-6 -12.5q-45 0 -131 2t-131 2q-40 0 -106 -2t-90 -2q-6 0 -6 12.5t6 12.5
q88 0 114.5 26t26.5 115v461q-1 21 -1 31t-4.5 23t-6.5 17.5t-14 11t-19 8t-30.5 3.5t-39.5 2.5t-55 1.5q-70 4 -317 4v-563q0 -48 6 -73t28.5 -41.5t59.5 -21.5t106 -5q6 0 6 -12.5t-6 -12.5q-45 0 -131 2t-131 2q-40 0 -106 -2t-90 -2q-6 0 -6 12.5t6 12.5q88 0 114.5 26
t26.5 115v461q0 74 -25.5 92t-124.5 18q-6 0 -6 13.5t6 13.5q84 0 114 19.5t32 72.5q13 275 139 417t342 142q167 0 277 -65q123 137 342 137q122 0 198 -45.5t76 -108.5q0 -30 -17.5 -46.5t-46.5 -16.5q-30 0 -51 18.5t-37 45.5t-35.5 54t-58 45.5t-94.5 18.5zM807 856
q9 237 82 387q-53 64 -124.5 100.5t-148.5 36.5q-135 0 -213.5 -123t-78.5 -358v-131q249 0 335 2q66 2 97 10.5t43 30.5q8 16 8 45zM1563 809q8 4 16 -2.5t8 -13.5t-1.5 -40.5t-3 -88.5t-1.5 -113v-649q0 -204 -62 -304t-227 -163q-5 -2 -9.5 8.5t1.5 13.5q100 43 141 133
t41 265v694q0 107 -33.5 130.5t-125.5 -20.5q-9 -3 -14.5 9t3.5 16z" />
    <glyph glyph-name="f_f_k.liga" unicode="ffk" horiz-adv-x="2260" 
d="M2243 25q6 0 6 -12.5t-6 -12.5q-20 0 -83 2t-102 2q-57 0 -133.5 -2t-101.5 -2q-6 0 -6 12.5t6 12.5q74 0 94 20t-12 64l-250 342l-103 -80v-205q0 -88 24 -114.5t105 -26.5q5 0 5 -12.5t-5 -12.5q-22 0 -84.5 2t-101.5 2t-102.5 -2t-83.5 -2q-6 0 -6 12.5t6 12.5
q79 0 103 26.5t24 114.5v1130q-94 158 -250 158q-131 0 -194.5 -130.5t-63.5 -424.5v-131q95 2 262 20q14 0 14 -49q0 -10 -3 -22t-7.5 -20t-9.5 -7q-117 30 -256 33v-557q0 -48 6 -73t28.5 -41.5t59.5 -21.5t106 -5q6 0 6 -12.5t-6 -12.5q-45 0 -131 2t-131 2
q-40 0 -106 -2t-90 -2q-6 0 -6 12.5t6 12.5q88 0 114.5 26t26.5 115v461q-1 21 -1 31t-4.5 23t-6.5 17.5t-14 11t-19 8t-30.5 3.5t-39.5 2.5t-55 1.5q-70 4 -317 4v-563q0 -48 6 -73t28.5 -41.5t59.5 -21.5t106 -5q6 0 6 -12.5t-6 -12.5q-45 0 -131 2t-131 2q-40 0 -106 -2
t-90 -2q-6 0 -6 12.5t6 12.5q88 0 114.5 26t26.5 115v461q0 74 -25.5 92t-124.5 18q-6 0 -6 13.5t6 13.5q84 0 114 19.5t32 72.5q13 275 139 417t342 142q150 0 258 -55q103 127 295 127q175 0 270 -76q21 44 21 80q0 6 12 6t12 -6v-1088l275 222q78 63 63.5 102t-114.5 39
q-6 0 -6 12.5t6 12.5q27 0 99 -2.5t134 -2.5q57 0 122.5 2.5t88.5 2.5q4 0 4 -12.5t-4 -12.5q-165 0 -352 -148l-121 -94l262 -358q100 -141 234 -141zM807 856q9 253 72 399q-112 125 -263 125q-135 0 -213.5 -123t-78.5 -358v-131q249 0 335 2q66 2 97 10.5t43 30.5
q8 16 8 45z" />
    <glyph glyph-name="f_f_l.liga" unicode="ffl" horiz-adv-x="1765" 
d="M1708 25q6 0 6 -12.5t-6 -12.5q-21 0 -84.5 2t-103.5 2q-39 0 -104 -2t-85 -2q-6 0 -6 12.5t6 12.5q79 0 103 26.5t24 114.5v1124q-107 164 -262 164q-63 0 -110.5 -29.5t-83.5 -93t-55 -172.5t-19 -260v-131q90 2 262 20q6 0 10 -16t4 -35q0 -13 -4 -26t-8.5 -20
t-7.5 -5q-131 39 -256 45v-565q0 -48 6 -73t28.5 -41.5t59.5 -21.5t106 -5q6 0 6 -12.5t-6 -12.5q-45 0 -131 2t-131 2q-40 0 -106 -2t-90 -2q-6 0 -6 12.5t6 12.5q88 0 114.5 26t26.5 115v461q-1 21 -1 31t-4.5 23t-6.5 17.5t-14 11t-19 8t-30.5 3.5t-39.5 2.5t-55 1.5
q-70 4 -317 4v-563q0 -48 6 -73t28.5 -41.5t59.5 -21.5t106 -5q6 0 6 -12.5t-6 -12.5q-45 0 -131 2t-131 2q-40 0 -106 -2t-90 -2q-6 0 -6 12.5t6 12.5q88 0 114.5 26t26.5 115v461q0 74 -25.5 92t-124.5 18q-6 0 -6 13.5t6 13.5q84 0 114 19.5t32 72.5q13 275 139 417
t342 142q144 0 260 -55q107 127 303 127q180 0 283 -80q24 37 24 84q0 6 12.5 6t12.5 -6v-1325q0 -88 24 -114.5t105 -26.5zM807 856q9 249 74 397q-54 60 -122.5 93.5t-142.5 33.5q-135 0 -213.5 -123t-78.5 -358v-131q249 0 335 2q66 2 97 10.5t43 30.5q8 16 8 45z" />
    <glyph glyph-name="f_f_thorn.liga" unicode="ff&#xfe;" horiz-adv-x="2265" 
d="M1878 817q129 0 221 -102t92 -275q0 -95 -29 -175t-74.5 -132.5t-104.5 -89.5t-117.5 -53.5t-114.5 -16.5q-122 0 -213 52v-422q0 -62 14.5 -90t55.5 -40t129 -12q6 0 6 -12t-6 -12q-33 0 -120.5 2t-139.5 2q-39 0 -103.5 -2t-87.5 -2q-4 0 -4 12t4 12q83 0 107 27
t24 115v1722q-89 129 -231 129q-131 0 -194.5 -130.5t-63.5 -424.5v-131q95 2 262 20q14 0 14 -49q0 -10 -3 -22t-7.5 -20t-9.5 -7q-117 30 -256 33v-557q0 -48 6 -73t28.5 -41.5t59.5 -21.5t106 -5q6 0 6 -12.5t-6 -12.5q-45 0 -131 2t-131 2q-40 0 -106 -2t-90 -2
q-6 0 -6 12.5t6 12.5q88 0 114.5 26t26.5 115v461q-1 21 -1 31t-4.5 23t-6.5 17.5t-14 11t-19 8t-30.5 3.5t-39.5 2.5t-55 1.5q-70 4 -317 4v-563q0 -48 6 -73t28.5 -41.5t59.5 -21.5t106 -5q6 0 6 -12.5t-6 -12.5q-45 0 -131 2t-131 2q-40 0 -106 -2t-90 -2q-6 0 -6 12.5
t6 12.5q88 0 114.5 26t26.5 115v461q0 74 -25.5 92t-124.5 18q-6 0 -6 13.5t6 13.5q84 0 114 19.5t32 72.5q13 275 139 417t342 142q150 0 258 -55q103 127 295 127q160 0 258 -68q18 35 18 72q0 6 12.5 6t12.5 -6v-846q169 172 340 172zM807 856q9 253 72 399
q-112 125 -263 125q-135 0 -213.5 -123t-78.5 -358v-131q249 0 335 2q66 2 97 10.5t43 30.5q8 16 8 45zM1810 16q110 0 180 96t70 265q0 172 -76 267t-194 95q-70 0 -130 -33.5t-122 -95.5v-469q54 -61 117.5 -93t154.5 -32z" />
    <glyph glyph-name="f_f_t.liga" unicode="fft" horiz-adv-x="1880" 
d="M1819 102q5 4 10.5 1t6.5 -9t-3 -10q-75 -59 -135.5 -84t-126.5 -25q-85 0 -140 39t-55 129v484q0 52 -11 66q-19 26 -116 32q-67 4 -321 4v-563q0 -48 6 -73t28.5 -41.5t59.5 -21.5t106 -5q6 0 6 -12.5t-6 -12.5q-45 0 -131 2t-131 2q-40 0 -106 -2t-90 -2q-6 0 -6 12.5
t6 12.5q88 0 114.5 26t26.5 115v461q-1 21 -1 31t-4.5 23t-6.5 17.5t-14 11t-19 8t-30.5 3.5t-39.5 2.5t-55 1.5q-70 4 -317 4v-563q0 -48 6 -73t28.5 -41.5t59.5 -21.5t106 -5q6 0 6 -12.5t-6 -12.5q-45 0 -131 2t-131 2q-40 0 -106 -2t-90 -2q-6 0 -6 12.5t6 12.5
q88 0 114.5 26t26.5 115v461q0 74 -25.5 92t-124.5 18q-6 0 -6 13.5t6 13.5q84 0 114 19.5t32 72.5q13 275 139 417t342 142q150 0 262 -57q106 129 311 129q105 0 171.5 -32t66.5 -77q0 -31 -21 -48t-51 -17q-24 0 -42 13t-42 44q-31 42 -66 62t-87 20q-119 0 -188.5 -137
t-69.5 -416v-131q186 0 291 6q135 3 183.5 33t59.5 113q2 6 16.5 6t14.5 -6v-152q104 2 285 20q14 0 14 -49q0 -10 -3.5 -22t-8 -20t-8.5 -7q-116 30 -279 33v-510q0 -83 42 -124.5t120 -41.5q94 0 164 55zM807 856q9 249 74 397q-54 60 -122.5 93.5t-142.5 33.5
q-135 0 -213.5 -123t-78.5 -358v-131q249 0 335 2q66 2 97 10.5t43 30.5q8 16 8 45z" />
    <glyph glyph-name="f_h.liga" unicode="fh" horiz-adv-x="1673" 
d="M1628 25q4 0 4 -12.5t-4 -12.5q-22 0 -84.5 2t-101.5 2t-103 -2t-84 -2q-6 0 -6 12.5t6 12.5q79 0 103 26.5t24 114.5v326q0 121 -45.5 179t-140.5 58q-64 0 -129 -33.5t-119 -93.5v-436q0 -88 24 -114.5t105 -26.5q5 0 5 -12.5t-5 -12.5q-22 0 -84.5 2t-101.5 2
t-102.5 -2t-83.5 -2q-6 0 -6 12.5t6 12.5q79 0 102.5 26.5t23.5 114.5v1130q-94 158 -247 158q-132 0 -196 -130.5t-64 -424.5v-131q95 2 262 20q14 0 14 -49q0 -10 -3 -22t-7.5 -20t-9.5 -7q-117 30 -256 33v-557q0 -48 6 -73t28.5 -41.5t59.5 -21.5t106 -5q6 0 6 -12.5
t-6 -12.5q-45 0 -131 2t-131 2q-40 0 -106 -2t-90 -2q-6 0 -6 12.5t6 12.5q88 0 114.5 26t26.5 115v461q0 74 -25.5 92t-124.5 18q-6 0 -6 13.5t6 13.5q84 0 114 19.5t32 72.5q11 326 114.5 478.5t319.5 152.5q167 0 266 -76q21 44 21 80q0 6 12 6t12 -6v-854
q150 174 316 174q114 0 174.5 -63t60.5 -185v-397q0 -88 24 -114.5t105 -26.5z" />
    <glyph glyph-name="f_j.liga" unicode="fj" horiz-adv-x="1165" 
d="M633 1452q-142 0 -225.5 -137t-83.5 -416v-131q95 2 262 20q14 0 14 -49q0 -10 -3 -22t-7.5 -20t-9.5 -7q-117 30 -256 33v-557q0 -48 6 -73t28.5 -41.5t59.5 -21.5t106 -5q6 0 6 -12.5t-6 -12.5q-45 0 -131 2t-131 2q-40 0 -106 -2t-90 -2q-6 0 -6 12.5t6 12.5
q88 0 114.5 26t26.5 115v461q0 74 -25.5 92t-124.5 18q-6 0 -6 13.5t6 13.5q84 0 114 19.5t32 72.5q22 631 495 631q122 0 198.5 -45.5t76.5 -108.5q0 -30 -17.5 -46.5t-46.5 -16.5q-30 0 -51 18.5t-37 45.5t-35.5 54t-58 45.5t-94.5 18.5zM958 809q8 4 16.5 -2.5t8.5 -13.5
t-1.5 -41t-3 -88.5t-1.5 -112.5v-649q0 -204 -62 -304t-227 -163q-5 -2 -9.5 8.5t1.5 13.5q100 43 141 133t41 265v694q0 107 -34 130.5t-126 -20.5q-9 -3 -14 9t4 16z" />
    <glyph glyph-name="f_k.liga" unicode="fk" horiz-adv-x="1656" 
d="M1638 25q6 0 6 -12.5t-6 -12.5q-20 0 -82.5 2t-101.5 2q-57 0 -133.5 -2t-101.5 -2q-6 0 -6 12.5t6 12.5q74 0 93.5 20t-12.5 64l-249 342l-103 -80v-205q0 -88 24 -114.5t105 -26.5q5 0 5 -12.5t-5 -12.5q-22 0 -84.5 2t-101.5 2t-102.5 -2t-83.5 -2q-6 0 -6 12.5
t6 12.5q79 0 102.5 26.5t23.5 114.5v1130q-94 158 -249 158q-131 0 -194.5 -130.5t-63.5 -424.5v-131q95 2 262 20q14 0 14 -49q0 -10 -3 -22t-7.5 -20t-9.5 -7q-117 30 -256 33v-557q0 -48 6 -73t28.5 -41.5t59.5 -21.5t106 -5q6 0 6 -12.5t-6 -12.5q-45 0 -131 2t-131 2
q-40 0 -106 -2t-90 -2q-6 0 -6 12.5t6 12.5q88 0 114.5 26t26.5 115v461q0 74 -25.5 92t-124.5 18q-6 0 -6 13.5t6 13.5q84 0 114 19.5t32 72.5q11 325 114.5 478t315.5 153q175 0 270 -76q21 44 21 80q0 6 12 6t12 -6v-1088l275 222q78 63 63 102t-115 39q-6 0 -6 12.5
t6 12.5q27 0 99.5 -2.5t134.5 -2.5q57 0 122.5 2.5t88.5 2.5q4 0 4 -12.5t-4 -12.5q-165 0 -352 -148l-121 -94l262 -358q100 -141 233 -141z" />
    <glyph glyph-name="f_thorn.liga" unicode="f&#xfe;" horiz-adv-x="1660" 
d="M1274 817q129 0 221 -102t92 -275q0 -95 -29 -175t-74.5 -132.5t-104.5 -89.5t-117.5 -53.5t-114.5 -16.5q-122 0 -213 52v-422q0 -62 14.5 -90t55.5 -40t129 -12q6 0 6 -12t-6 -12q-33 0 -121 2t-140 2q-39 0 -103 -2t-87 -2q-4 0 -4 12t4 12q83 0 107 27t24 115v1722
q-89 129 -231 129q-131 0 -194.5 -130.5t-63.5 -424.5v-131q95 2 262 20q14 0 14 -49q0 -10 -3 -22t-7.5 -20t-9.5 -7q-117 30 -256 33v-557q0 -48 6 -73t28.5 -41.5t59.5 -21.5t106 -5q6 0 6 -12.5t-6 -12.5q-45 0 -131 2t-131 2q-40 0 -106 -2t-90 -2q-6 0 -6 12.5t6 12.5
q88 0 114.5 26t26.5 115v461q0 74 -25.5 92t-124.5 18q-6 0 -6 13.5t6 13.5q84 0 114 19.5t32 72.5q11 325 114.5 478t315.5 153q160 0 258 -68q18 35 18 72q0 6 12.5 6t12.5 -6v-846q169 172 340 172zM1206 16q110 0 180 96t70 265q0 172 -76 267t-194 95q-70 0 -130 -33.5
t-122 -95.5v-469q54 -61 117.5 -93t154.5 -32z" />
    <glyph glyph-name="f_t.liga" unicode="ft" horiz-adv-x="1275" 
d="M1214 102q5 4 10.5 1t7 -9t-2.5 -10q-75 -59 -135.5 -84t-126.5 -25q-85 0 -140 39t-55 129v484q0 52 -11 66q-19 26 -116 32q-67 4 -321 4v-563q0 -48 6 -73t28.5 -41.5t59.5 -21.5t106 -5q6 0 6 -12.5t-6 -12.5q-45 0 -131 2t-131 2q-40 0 -106 -2t-90 -2q-6 0 -6 12.5
t6 12.5q88 0 114.5 26t26.5 115v461q0 74 -25.5 92t-124.5 18q-6 0 -6 13.5t6 13.5q84 0 114 19.5t32 72.5q10 333 121.5 482t328.5 149q105 0 171.5 -32t66.5 -77q0 -31 -21 -48t-51 -17q-24 0 -42 13t-42 44q-31 42 -66 62t-87 20q-119 0 -188.5 -137t-69.5 -416v-131
q185 0 290 6q135 3 184 33t60 113q2 6 16.5 6t14.5 -6v-152q104 2 285 20q14 0 14 -49q0 -10 -3.5 -22t-8.5 -20t-9 -7q-116 30 -278 33v-510q0 -83 42 -124.5t120 -41.5q93 0 163 55z" />
    <glyph glyph-name="fi.liga" unicode="fi" horiz-adv-x="1163" 
d="M623 1452q-136 0 -217.5 -137.5t-81.5 -415.5v-131q90 2 262 20q14 0 14 -49q0 -13 -3.5 -26.5t-8.5 -21t-8 -5.5q-131 39 -256 45v-565q0 -48 6 -73t28.5 -41.5t59.5 -21.5t106 -5q6 0 6 -12.5t-6 -12.5q-45 0 -131 2t-131 2q-40 0 -106 -2t-90 -2q-6 0 -6 12.5t6 12.5
q88 0 114.5 26t26.5 115v461q0 74 -25.5 92t-124.5 18q-6 0 -6 13.5t6 13.5q84 0 114 19.5t32 72.5q22 631 487 631q113 0 185.5 -46t72.5 -108q0 -30 -16.5 -46.5t-44.5 -16.5q-24 0 -42.5 13.5t-29.5 33.5t-27 44t-33.5 44t-51.5 33.5t-80 13.5zM1090 25q6 0 6 -12.5
t-6 -12.5q-22 0 -85 2t-102 2t-101.5 -2t-84.5 -2q-6 0 -6 12.5t6 12.5q80 0 104.5 26.5t24.5 114.5v383q0 107 -34 130.5t-126 -20.5q-9 -3 -14 9t4 16l266 125q7 4 15 -2.5t8 -13.5t-1 -40.5t-2 -88.5t-1 -113v-385q0 -88 24.5 -114.5t104.5 -26.5z" />
    <glyph glyph-name="fl.liga" unicode="fl" horiz-adv-x="1161" 
d="M1104 25q6 0 6 -12.5t-6 -12.5q-21 0 -85 2t-104 2q-39 0 -103.5 -2t-84.5 -2q-6 0 -6 12.5t6 12.5q79 0 103 26.5t24 114.5v1124q-107 164 -262 164q-63 0 -110.5 -29.5t-83.5 -93t-55 -172.5t-19 -260v-131q90 2 262 20q6 0 10 -16t4 -35q0 -13 -4 -26t-8.5 -20
t-7.5 -5q-131 39 -256 45v-565q0 -48 6 -73t28.5 -41.5t59.5 -21.5t106 -5q6 0 6 -12.5t-6 -12.5q-45 0 -131 2t-131 2q-40 0 -106 -2t-90 -2q-6 0 -6 12.5t6 12.5q88 0 114.5 26t26.5 115v461q0 74 -25.5 92t-124.5 18q-6 0 -6 13.5t6 13.5q84 0 114 19.5t32 72.5
q10 331 120.5 481t319.5 150q180 0 283 -80q24 37 24 84q0 6 12.5 6t12.5 -6v-1325q0 -88 24 -114.5t105 -26.5z" />
    <glyph glyph-name="g_g.liga" unicode="gg" horiz-adv-x="1771" 
d="M899 807q6 0 10 -14.5t4 -30.5q0 -43 -14 -66q-5 -5 -8 -4l-23 6q-24 7 -34.5 9.5t-33.5 7t-45 6.5t-46 2t-52 -4q54 -63 54 -146q0 -107 -86 -181.5t-224 -74.5q-54 0 -104 13q-76 -53 -76 -131q0 -23 8.5 -41.5t27.5 -32t37 -22.5t50.5 -16.5t52.5 -11t58 -9.5
q155 -25 194 -36q145 -39 179 -135q12 -33 12 -75q0 -93 -64.5 -184.5t-178.5 -152.5t-243 -61q-145 0 -234 70t-89 178q0 164 233 318q-139 41 -139 139q0 112 147 211q-80 29 -123 89.5t-43 135.5q0 105 90.5 173.5t227.5 68.5q135 0 211 -66q139 68 264 68zM1339 66
q165 -25 207 -36q154 -39 190 -135q13 -33 13 -75q0 -69 -40.5 -140.5t-107.5 -128.5t-162.5 -93t-197.5 -36q-142 0 -227.5 70t-85.5 178q0 159 225 318q-68 19 -105.5 51t-37.5 88q0 112 147 211q-80 29 -123 89.5t-43 135.5q0 105 90.5 173.5t227.5 68.5q135 0 209 -64
q113 66 219 66q12 0 12 -45q0 -47 -13 -67q-4 -4 -7 -3q-84 31 -136 31q-19 0 -51 -4q55 -61 55 -146q0 -107 -86.5 -181.5t-224.5 -74.5q-52 0 -102 13q-78 -55 -78 -131q0 -23 8.5 -41.5t27.5 -32t36.5 -22.5t50 -16.5t52.5 -11t58 -9.5zM444 346q61 0 100.5 45.5
t39.5 140.5q0 107 -63 174.5t-148 67.5q-63 0 -100 -41t-37 -127q0 -119 62 -189.5t146 -70.5zM1260 774q-63 0 -101.5 -41t-38.5 -127q0 -118 63 -189t146 -71q61 0 100 45.5t39 140.5q0 106 -62.5 174t-145.5 68zM733 -252q0 40 -12 71.5t-38 53t-51 35.5t-69 24.5
t-71 15.5t-78 12l-21 3q-61 8 -88 14q-73 -45 -113 -101t-40 -140q0 -116 76 -184t208 -68q138 0 217.5 78t79.5 186zM1321 -516q149 0 235 78t86 186q0 48 -22 84t-49 56t-82 36t-88 21.5t-101 14.5q-15 2 -22 3q-55 8 -86 14q-69 -47 -106 -102t-37 -139q0 -116 73 -184
t199 -68z" />
    <glyph glyph-name="longs_b.liga" unicode="&#x17f;b" horiz-adv-x="1656" 
d="M1253 817q137 0 232 -98.5t98 -280.5q-1 -90 -27 -167t-70 -131t-101.5 -92.5t-121 -56.5t-130.5 -18q-159 0 -283 86l-152 -69q-9 -3 -13.5 6t3.5 14q65 44 91 84t26 117l2 1083q-84 160 -229 160q-129 0 -192.5 -130.5t-63.5 -424.5v-733q0 -63 14 -90.5t55 -39
t133 -11.5q4 0 4 -12.5t-4 -12.5q-46 0 -132 2t-130 2q-40 0 -107.5 -2t-91.5 -2q-6 0 -6 12.5t6 12.5q88 0 114 26t26 115v690q0 631 426 631q161 0 252 -78q22 39 22 82q0 6 12.5 6t12.5 -6l-2 -844q76 77 153.5 123.5t173.5 46.5zM1194 12q121 0 186.5 92.5t65.5 264.5
q0 185 -72 283t-190 98q-122 0 -258 -140v-446q115 -152 268 -152z" />
    <glyph glyph-name="longs_h.liga" unicode="&#x17f;h" horiz-adv-x="1646" 
d="M1602 25q6 0 6 -12.5t-6 -12.5q-20 0 -84 2t-103 2t-101.5 -2t-84.5 -2q-5 0 -5 12.5t5 12.5q80 0 104.5 26.5t24.5 114.5v326q0 121 -46.5 179t-142.5 58q-64 0 -129 -33.5t-118 -93.5v-436q0 -88 24.5 -114.5t104.5 -26.5q6 0 6 -12.5t-6 -12.5q-20 0 -84 2t-103 2
t-101.5 -2t-84.5 -2q-4 0 -4 12.5t4 12.5q80 0 104.5 26.5t24.5 114.5v1128q-84 160 -229 160q-129 0 -192.5 -130.5t-63.5 -424.5v-733q0 -63 14 -90.5t55 -39t133 -11.5q4 0 4 -12.5t-4 -12.5q-46 0 -132 2t-130 2q-40 0 -107.5 -2t-91.5 -2q-6 0 -6 12.5t6 12.5
q88 0 115 26t27 115v690q0 631 424 631q161 0 250 -76q20 42 20 80q0 6 11.5 6t11.5 -6v-854q152 174 317 174q112 0 173 -63t61 -185v-397q0 -88 24.5 -114.5t104.5 -26.5z" />
    <glyph glyph-name="longs_i.liga" unicode="&#x17f;i" horiz-adv-x="1120" 
d="M63 0q-6 0 -6 12.5t6 12.5q88 0 115 26t27 115v690q0 326 115 478.5t325 152.5q111 0 174.5 -33.5t63.5 -81.5q0 -30 -19 -46.5t-51 -16.5q-27 0 -47 15t-35 36.5t-32 43.5t-45.5 37t-67.5 15q-120 0 -190 -136.5t-70 -420.5v-733q0 -48 5 -72.5t24.5 -42t52.5 -22
t96 -4.5q6 0 6 -12.5t-6 -12.5q-42 0 -121.5 2t-120.5 2q-40 0 -107.5 -2t-91.5 -2zM657 0q-5 0 -5 12.5t5 12.5q80 0 104.5 26.5t24.5 114.5v383q0 107 -33.5 130.5t-125.5 -20.5q-9 -3 -13.5 9t4.5 16l267 125q7 4 14.5 -2.5t7.5 -13.5t-1 -40.5t-2 -88.5t-1 -113v-385
q0 -88 24 -114.5t105 -26.5q6 0 6 -12.5t-6 -12.5q-22 0 -85.5 2t-102.5 2t-102 -2t-85 -2z" />
    <glyph glyph-name="longs_j.liga" unicode="&#x17f;j" horiz-adv-x="1083" 
d="M63 0q-6 0 -6 12.5t6 12.5q88 0 115 26t27 115v690q0 326 115 478.5t325 152.5q111 0 174.5 -33.5t63.5 -81.5q0 -30 -19 -46.5t-51 -16.5q-27 0 -47 15t-35 36.5t-32 43.5t-45.5 37t-67.5 15q-120 0 -190 -136.5t-70 -420.5v-733q0 -48 5 -72.5t24.5 -42t52.5 -22
t96 -4.5q6 0 6 -12.5t-6 -12.5q-42 0 -121.5 2t-120.5 2q-40 0 -107.5 -2t-91.5 -2zM606 -565q-5 -2 -9.5 8.5t-0.5 13.5q101 43 141.5 132.5t40.5 265.5v694q0 108 -32.5 131t-124.5 -21q-9 -3 -14.5 9t3.5 16l267 125q7 4 14.5 -2.5t7.5 -13.5t-1 -40.5t-2 -88.5t-1 -113
v-649q0 -204 -62 -304t-227 -163z" />
    <glyph glyph-name="longs_k.liga" unicode="&#x17f;k" horiz-adv-x="1630" 
d="M1614 25q6 0 6 -12.5t-6 -12.5q-22 0 -85 2t-102 2q-56 0 -132 -2t-101 -2q-6 0 -6 12.5t6 12.5q72 0 92 20t-10 64l-252 342l-102 -82v-203q0 -88 24.5 -114.5t104.5 -26.5q6 0 6 -12.5t-6 -12.5q-20 0 -84 2t-103 2t-101.5 -2t-84.5 -2q-4 0 -4 12.5t4 12.5
q80 0 104.5 26.5t24.5 114.5v1128q-84 160 -229 160q-129 0 -192.5 -130.5t-63.5 -424.5v-733q0 -63 14 -90.5t55 -39t133 -11.5q4 0 4 -12.5t-4 -12.5q-46 0 -132 2t-130 2q-40 0 -107.5 -2t-91.5 -2q-6 0 -6 12.5t6 12.5q88 0 115 26t27 115v690q0 631 424 631
q161 0 250 -76q20 42 20 80q0 6 11.5 6t11.5 -6v-1088l274 222q79 63 64 102t-115 39q-5 0 -5 12.5t5 12.5q27 0 100 -2.5t135 -2.5q57 0 122.5 2.5t88.5 2.5q5 0 5 -12.5t-5 -12.5q-167 0 -354 -148l-119 -94l260 -358q103 -141 236 -141z" />
    <glyph glyph-name="longs_l.liga" unicode="&#x17f;l" horiz-adv-x="1118" 
d="M1059 25q6 0 6 -12.5t-6 -12.5q-21 0 -85 2t-104 2q-39 0 -102.5 -2t-85.5 -2q-6 0 -6 12.5t6 12.5q80 0 104.5 26.5t24.5 114.5v1120q-83 168 -233 168q-129 0 -192.5 -130.5t-63.5 -424.5v-733q0 -63 14 -90.5t55 -39t133 -11.5q4 0 4 -12.5t-4 -12.5q-46 0 -132 2
t-130 2q-40 0 -107.5 -2t-91.5 -2q-6 0 -6 12.5t6 12.5q88 0 115 26t27 115v690q0 631 424 631q165 0 252 -80q24 37 24 84q0 6 12.5 6t12.5 -6v-1325q0 -88 24 -114.5t105 -26.5z" />
    <glyph glyph-name="longs_thorn.liga" unicode="&#x17f;&#xfe;" horiz-adv-x="1636" 
d="M1249 817q131 0 222.5 -102t91.5 -275q0 -95 -29 -175t-75 -132.5t-105 -89.5t-117.5 -53.5t-114.5 -16.5q-123 0 -215 54v-424q0 -61 15 -89.5t57 -40.5t131 -12q4 0 4 -12t-4 -12q-34 0 -122.5 2t-139.5 2q-39 0 -104 -2t-87 -2q-5 0 -5 12t5 12q82 0 106.5 27
t24.5 115v1724q-81 127 -210 127t-192.5 -130.5t-63.5 -424.5v-733q0 -63 14 -90.5t55 -39t133 -11.5q4 0 4 -12.5t-4 -12.5q-46 0 -132 2t-130 2q-40 0 -107.5 -2t-91.5 -2q-6 0 -6 12.5t6 12.5q88 0 115 26t27 115v690q0 631 424 631q148 0 237 -66q17 34 17 70q0 6 12 6
t12 -6v-848q174 174 342 174zM1184 16q109 0 178.5 96t69.5 265q0 172 -75.5 267t-193.5 95q-73 0 -133.5 -34t-122.5 -97v-465q56 -61 121.5 -94t155.5 -33z" />
    <glyph glyph-name="longs_longs.liga" unicode="&#x17f;&#x17f;" horiz-adv-x="1101" 
d="M1206 1487q95 0 155 -32t60 -77q0 -31 -21 -47t-52 -16q-27 0 -46.5 14.5t-33.5 35t-29 40.5t-41.5 34.5t-62.5 14.5q-110 0 -172 -134.5t-62 -420.5v-733q0 -64 11.5 -91t47 -38.5t115.5 -11.5q5 0 5 -12.5t-5 -12.5q-43 0 -120 2t-117 2t-107.5 -2t-91.5 -2
q-6 0 -6 12.5t6 12.5q88 0 114.5 26t26.5 115v690q0 256 66 406q-100 118 -232 118q-135 0 -213.5 -123t-78.5 -358v-733q0 -48 5.5 -73t27 -42t57 -21.5t102.5 -4.5q4 0 4 -12.5t-4 -12.5q-44 0 -127 2t-125 2q-40 0 -107.5 -2t-91.5 -2q-6 0 -6 12.5t6 12.5q88 0 115 26
t27 115v690q0 270 129.5 414.5t347.5 144.5q127 0 227 -49q104 121 297 121z" />
    <glyph glyph-name="longs_longs_b.liga" unicode="&#x17f;&#x17f;b" horiz-adv-x="2240" 
d="M1837 817q137 0 232 -98.5t98 -280.5q-1 -112 -41 -203t-104.5 -147t-143 -85.5t-162.5 -29.5q-158 0 -282 86l-152 -69q-9 -3 -13.5 6t3.5 14q65 44 91 84t26 117l2 1083q-84 160 -230 160q-129 0 -192.5 -130.5t-63.5 -424.5v-733q0 -48 6 -73t29 -41.5t60.5 -21.5
t107.5 -5q4 0 4 -12.5t-4 -12.5q-46 0 -132 2t-130 2q-40 0 -107.5 -2t-91.5 -2q-6 0 -6 12.5t6 12.5q88 0 113.5 26t25.5 115v690q0 244 66 397q-103 127 -238 127t-213.5 -123t-78.5 -358v-733q0 -48 5.5 -73t27 -42t57 -21.5t102.5 -4.5q4 0 4 -12.5t-4 -12.5
q-44 0 -127 2t-125 2q-40 0 -107.5 -2t-91.5 -2q-6 0 -6 12.5t6 12.5q88 0 115 26t27 115v690q0 270 129.5 414.5t347.5 144.5q132 0 236 -53q104 125 294 125q161 0 252 -78q23 41 23 82q0 6 12 6t12 -6l-2 -844q75 77 153.5 123.5t174.5 46.5zM1778 12q121 0 186.5 92.5
t65.5 264.5q0 185 -72.5 283t-190.5 98q-122 0 -258 -140v-446q115 -152 269 -152z" />
    <glyph glyph-name="longs_longs_h.liga" unicode="&#x17f;&#x17f;h" horiz-adv-x="2234" 
d="M2189 25q6 0 6 -12.5t-6 -12.5q-20 0 -83.5 2t-102.5 2t-101.5 -2t-84.5 -2q-5 0 -5 12.5t5 12.5q80 0 104.5 26.5t24.5 114.5v326q0 121 -46.5 179t-142.5 58q-65 0 -130.5 -33.5t-117.5 -93.5v-436q0 -88 24.5 -114.5t104.5 -26.5q6 0 6 -12.5t-6 -12.5q-20 0 -83.5 2
t-102.5 2t-101.5 -2t-84.5 -2q-4 0 -4 12.5t4 12.5q80 0 104.5 26.5t24.5 114.5v1128q-84 160 -230 160q-129 0 -192.5 -130.5t-63.5 -424.5v-733q0 -48 6 -73t29 -41.5t60.5 -21.5t107.5 -5q4 0 4 -12.5t-4 -12.5q-46 0 -132 2t-130 2q-40 0 -107.5 -2t-91.5 -2
q-6 0 -6 12.5t6 12.5q88 0 115 26t27 115v690q0 244 61 393q-100 131 -240 131q-135 0 -213.5 -123t-78.5 -358v-733q0 -48 5.5 -73t27 -42t57 -21.5t102.5 -4.5q4 0 4 -12.5t-4 -12.5q-44 0 -127 2t-125 2q-40 0 -107.5 -2t-91.5 -2q-6 0 -6 12.5t6 12.5q88 0 115 26
t27 115v690q0 270 129.5 414.5t347.5 144.5q140 0 238 -55q106 127 297 127q160 0 249 -76q21 44 21 80q0 6 11 6t11 -6v-854q152 174 318 174q112 0 172.5 -63t60.5 -185v-397q0 -88 24.5 -114.5t104.5 -26.5z" />
    <glyph glyph-name="longs_longs_i.liga" unicode="&#x17f;&#x17f;i" horiz-adv-x="1695" 
d="M1161 1456q-120 0 -190 -136.5t-70 -420.5v-733q0 -48 5 -72.5t24.5 -42t52.5 -22t96 -4.5q6 0 6 -12.5t-6 -12.5q-42 0 -121 2t-120 2q-40 0 -107.5 -2t-91.5 -2q-6 0 -6 12.5t6 12.5q88 0 114.5 26t26.5 115v690q0 247 70 399q-101 125 -236 125t-213.5 -123
t-78.5 -358v-733q0 -48 5.5 -73t27 -42t57 -21.5t102.5 -4.5q4 0 4 -12.5t-4 -12.5q-44 0 -127 2t-125 2q-40 0 -107.5 -2t-91.5 -2q-6 0 -6 12.5t6 12.5q88 0 115 26t27 115v690q0 270 129.5 414.5t347.5 144.5q132 0 236 -53q108 125 303 125q111 0 174 -33.5t63 -81.5
q0 -30 -19 -46.5t-50 -16.5q-27 0 -47.5 15t-35.5 36.5t-31.5 43.5t-45.5 37t-68 15zM1608 25q6 0 6 -12.5t-6 -12.5q-22 0 -86 2t-103 2t-101.5 -2t-84.5 -2q-5 0 -5 12.5t5 12.5q80 0 104.5 26.5t24.5 114.5v383q0 107 -34 130.5t-126 -20.5q-6 -2 -10 3t-4 12t6 10
l266 125q7 4 15 -2.5t8 -13.5t-1 -41t-2 -88.5t-1 -112.5v-385q0 -88 24 -114.5t105 -26.5z" />
    <glyph glyph-name="longs_longs_j.liga" unicode="&#x17f;&#x17f;j" horiz-adv-x="1658" 
d="M1161 1456q-120 0 -190 -136.5t-70 -420.5v-733q0 -48 5 -72.5t24.5 -42t52.5 -22t96 -4.5q6 0 6 -12.5t-6 -12.5q-42 0 -121 2t-120 2q-40 0 -107.5 -2t-91.5 -2q-6 0 -6 12.5t6 12.5q88 0 114.5 26t26.5 115v690q0 247 70 399q-101 125 -236 125t-213.5 -123
t-78.5 -358v-733q0 -48 5.5 -73t27 -42t57 -21.5t102.5 -4.5q4 0 4 -12.5t-4 -12.5q-44 0 -127 2t-125 2q-40 0 -107.5 -2t-91.5 -2q-6 0 -6 12.5t6 12.5q88 0 115 26t27 115v690q0 270 129.5 414.5t347.5 144.5q132 0 236 -53q108 125 303 125q111 0 174 -33.5t63 -81.5
q0 -30 -19 -46.5t-50 -16.5q-27 0 -47.5 15t-35.5 36.5t-31.5 43.5t-45.5 37t-68 15zM1452 809q7 4 15 -2.5t8 -13.5t-1.5 -40.5t-2.5 -88.5t-1 -113v-649q0 -204 -62 -304t-226 -163q-5 -2 -10 8.5t-1 13.5q101 43 142 133t41 265v694q0 108 -33 131t-125 -21q-9 -3 -14 9
t4 16z" />
    <glyph glyph-name="longs_longs_k.liga" unicode="&#x17f;&#x17f;k" horiz-adv-x="2217" 
d="M2202 25q6 0 6 -12.5t-6 -12.5q-22 0 -85 2t-102 2q-56 0 -132 -2t-101 -2q-6 0 -6 12.5t6 12.5q72 0 92 20t-10 64l-252 342l-103 -82v-203q0 -88 24.5 -114.5t104.5 -26.5q6 0 6 -12.5t-6 -12.5q-20 0 -83.5 2t-102.5 2t-101.5 -2t-84.5 -2q-4 0 -4 12.5t4 12.5
q80 0 104.5 26.5t24.5 114.5v1128q-84 160 -230 160q-129 0 -192.5 -130.5t-63.5 -424.5v-733q0 -48 6 -73t29 -41.5t60.5 -21.5t107.5 -5q4 0 4 -12.5t-4 -12.5q-46 0 -132 2t-130 2q-40 0 -107.5 -2t-91.5 -2q-6 0 -6 12.5t6 12.5q88 0 115 26t27 115v690q0 244 61 393
q-100 131 -240 131q-135 0 -213.5 -123t-78.5 -358v-733q0 -48 5.5 -73t27 -42t57 -21.5t102.5 -4.5q4 0 4 -12.5t-4 -12.5q-44 0 -127 2t-125 2q-40 0 -107.5 -2t-91.5 -2q-6 0 -6 12.5t6 12.5q88 0 115 26t27 115v690q0 270 129.5 414.5t347.5 144.5q140 0 238 -55
q106 127 297 127q160 0 249 -76q21 44 21 80q0 6 11 6t11 -6v-1088l275 222q79 63 64 102t-115 39q-5 0 -5 12.5t5 12.5q27 0 100 -2.5t135 -2.5q57 0 122.5 2.5t88.5 2.5q5 0 5 -12.5t-5 -12.5q-167 0 -354 -148l-119 -94l260 -358q103 -141 236 -141z" />
    <glyph glyph-name="longs_longs_l.liga" unicode="&#x17f;&#x17f;l" horiz-adv-x="1703" 
d="M1647 25q6 0 6 -12.5t-6 -12.5q-21 0 -85 2t-104 2q-39 0 -102.5 -2t-85.5 -2q-6 0 -6 12.5t6 12.5q80 0 104.5 26.5t24.5 114.5v1120q-83 168 -234 168q-129 0 -192.5 -130.5t-63.5 -424.5v-733q0 -48 6 -73t29 -41.5t60.5 -21.5t107.5 -5q4 0 4 -12.5t-4 -12.5
q-46 0 -132 2t-130 2q-40 0 -107.5 -2t-91.5 -2q-6 0 -6 12.5t6 12.5q88 0 115 26t27 115v690q0 244 61 393q-100 131 -240 131q-135 0 -213.5 -123t-78.5 -358v-733q0 -48 5.5 -73t27 -42t57 -21.5t102.5 -4.5q4 0 4 -12.5t-4 -12.5q-44 0 -127 2t-125 2q-40 0 -107.5 -2
t-91.5 -2q-6 0 -6 12.5t6 12.5q88 0 115 26t27 115v690q0 270 129.5 414.5t347.5 144.5q140 0 238 -55q106 127 297 127q164 0 251 -80q25 39 25 84q0 6 12.5 6t12.5 -6v-1325q0 -88 24 -114.5t105 -26.5z" />
    <glyph glyph-name="longs_longs_thorn.liga" unicode="&#x17f;&#x17f;&#xfe;" horiz-adv-x="2224" 
d="M1837 817q131 0 222 -102t91 -275q0 -95 -29 -175t-74.5 -132.5t-104.5 -89.5t-117.5 -53.5t-114.5 -16.5q-123 0 -215 54v-424q0 -61 15 -89.5t57 -40.5t131 -12q4 0 4 -12t-4 -12q-34 0 -122.5 2t-139.5 2q-39 0 -104 -2t-87 -2q-5 0 -5 12t5 12q82 0 106.5 27
t24.5 115v1724q-81 127 -211 127q-129 0 -192.5 -130.5t-63.5 -424.5v-733q0 -48 6 -73t29 -41.5t60.5 -21.5t107.5 -5q4 0 4 -12.5t-4 -12.5q-46 0 -132 2t-130 2q-40 0 -107.5 -2t-91.5 -2q-6 0 -6 12.5t6 12.5q88 0 115 26t27 115v690q0 244 61 393q-100 131 -240 131
q-135 0 -213.5 -123t-78.5 -358v-733q0 -48 5.5 -73t27 -42t57 -21.5t102.5 -4.5q4 0 4 -12.5t-4 -12.5q-44 0 -127 2t-125 2q-40 0 -107.5 -2t-91.5 -2q-6 0 -6 12.5t6 12.5q88 0 115 26t27 115v690q0 270 129.5 414.5t347.5 144.5q140 0 238 -55q106 127 297 127
q148 0 237 -66q16 32 16 70q0 6 12.5 6t12.5 -6v-848q174 174 342 174zM1772 16q109 0 178 96t69 265q0 172 -75.5 267t-192.5 95q-73 0 -133.5 -34t-122.5 -97v-465q56 -61 121.5 -94t155.5 -33z" />
    <glyph glyph-name=".notdef" horiz-adv-x="1026" 
d="M193 -563v2048h649v-2048h-649zM344 1282h133v-78h-135v-65h340v65h-135v78h135v66h-338v-66zM342 872h340v70h-135v141h-205v-211zM410 942v72h67v-72h-67zM342 748h135v-74h-135v-70h205v144h135v67h-340v-67zM616 559h-274v-70h340v203h-66v-133zM477 328h70v49h69
v-98h-206v163h-68v-231h340v231h-205v-114zM342 -143h340v231h-340v-231zM410 -76v99h206v-99h-206zM342 -258h143l-143 -96v-68h340v68h-207l141 96h66v70h-340v-70z" />
    <glyph glyph-name=".null" horiz-adv-x="0" 
 />
    <glyph glyph-name="nonmarkingreturn" horiz-adv-x="682" 
 />
    <glyph glyph-name="space" unicode=" " horiz-adv-x="479" 
 />
    <glyph glyph-name="exclam" unicode="!" horiz-adv-x="505" 
d="M160 1270q-1 5 13 9t36 6.5t45 2.5q70 0 90 -13q4 -2 2 -5q-24 -124 -41.5 -299t-24 -282t-16.5 -302q0 -6 -15.5 -6t-15.5 6q-22 605 -73 883zM244 -23q-40 0 -65 24.5t-25 64.5q0 39 25 62.5t65 23.5q42 0 66 -23t24 -63t-24 -64.5t-66 -24.5z" />
    <glyph glyph-name="quotedbl" unicode="&#x22;" horiz-adv-x="579" 
d="M113 748l-25 497q-1 27 69 52q62 22 83 13q5 -3 4 -7l-107 -553q-2 -3 -8 -5t-11 -1.5t-5 4.5zM403 748l-24 497q-1 27 69 52q62 22 83 13q5 -3 4 -7l-107 -553q-2 -3 -8 -5t-11.5 -1.5t-5.5 4.5z" />
    <glyph glyph-name="numbersign" unicode="#" horiz-adv-x="1077" 
d="M948 643q9 0 9 -40t-9 -40h-149l-60 -325h138q9 0 9 -41t-9 -41h-152l-55 -318q-3 -5 -19.5 -5.5t-36 4t-18.5 9.5l55 310h-309l-55 -318q-3 -5 -19.5 -5.5t-36 4t-18.5 9.5l55 310h-139q-6 0 -8 20.5t-0.5 41t6.5 20.5h156l57 325h-139q-6 0 -8 20t-0.5 40t6.5 20h155
l62 344q3 5 19 4.5t34.5 -6.5t17.5 -12l-57 -330h307l62 344q0 10 42 1q32 -7 29 -15l-57 -330h135zM666 238l57 325h-307l-60 -325h310z" />
    <glyph glyph-name="dollar" unicode="$" horiz-adv-x="841" 
d="M750 250q0 -107 -78 -183.5t-213 -89.5v-186q0 -13 -21.5 -13t-21.5 13v184h-10q-148 0 -244 72q-16 7 -19 39l-22 203q-1 6 4.5 8.5t12 1.5t7.5 -6q27 -107 102 -187.5t169 -95.5v432l-29 17q-41 22 -62 34t-55 34t-52 41t-38 45t-28.5 56.5t-8.5 65.5q0 107 78 171.5
t195 74.5v168q0 15 21.5 15t21.5 -15v-166q96 0 196 -47q19 -9 24 -15t7 -20l14 -178q0 -8 -10.5 -9.5t-13.5 5.5q-13 72 -73.5 142t-143.5 87v-395l35 -18q38 -20 54.5 -29t50 -29.5t49.5 -34t39.5 -37t34.5 -44.5t19.5 -50t8.5 -61zM252 791q0 -72 43 -122t121 -94v377
q-77 0 -120.5 -45t-43.5 -116zM459 8q71 2 122.5 44t51.5 130q0 78 -46 133t-128 103v-410z" />
    <glyph glyph-name="percent" unicode="%" horiz-adv-x="1175" 
d="M307 621q-108 0 -180 76.5t-72 189.5q0 108 72 184t180 76q107 0 176.5 -77t69.5 -189q0 -110 -70 -185t-176 -75zM217 -12q-2 -3 -15 2t-24.5 12.5t-9.5 11.5l760 1114q3 4 16 -1.5t24 -14t9 -12.5zM322 643q29 0 49.5 11.5t32.5 30t19 48.5t9 60.5t2 72.5
q0 258 -139 258q-36 0 -61 -18t-37.5 -51.5t-17.5 -72t-5 -89.5q0 -250 148 -250zM874 -10q-108 0 -179.5 77.5t-71.5 188.5q0 109 72 185.5t179 76.5t176.5 -77.5t69.5 -188.5t-70 -186.5t-176 -75.5zM889 14q35 0 58.5 16t34.5 49t15 69.5t4 89.5q0 256 -139 256
q-47 0 -74.5 -33t-36 -80.5t-8.5 -116.5q0 -250 146 -250z" />
    <glyph glyph-name="ampersand" unicode="&#x26;" horiz-adv-x="1427" 
d="M1427 25q6 -1 7.5 -7t-1 -12t-6.5 -6h-221q-92 0 -280 147q-165 -172 -414 -172q-95 0 -170 26t-120 69.5t-68 97.5t-23 113q0 50 16.5 97.5t40.5 84t65 77t75 67.5t86 65q-40 61 -60 102q-59 131 -59 223q0 135 95.5 230.5t244.5 95.5q44 0 83.5 -9.5t76 -31.5t58 -63.5
t21.5 -98.5q0 -81 -51.5 -155.5t-98.5 -111t-152 -106.5q-8 -6 -12 -8.5t-11 -7t-12 -8.5q143 -233 436 -457q71 124 71 277q0 75 -29 111t-116 36q-6 0 -6.5 12.5t6.5 12.5l428 2q7 0 7 -12.5t-7 -12.5q-52 0 -84.5 -6.5t-51.5 -25t-26.5 -35.5t-19.5 -54
q-61 -206 -141 -327q120 -89 232.5 -146t190.5 -73zM414 1083q0 -159 106 -335q54 40 90.5 73.5t72 76t53.5 90t18 99.5q0 91 -49 142t-130 51q-161 0 -161 -197zM604 37q173 0 297 131q-11 7 -37 29q-123 95 -237 213.5t-195 236.5q-81 -66 -125.5 -136t-44.5 -159
q0 -132 97 -223.5t245 -91.5z" />
    <glyph glyph-name="quotesingle" unicode="'" horiz-adv-x="286" 
d="M113 748l-25 497q-1 27 69 52q62 22 83 13q5 -3 4 -7l-107 -553q-2 -3 -8 -5t-11 -1.5t-5 4.5z" />
    <glyph glyph-name="parenleft" unicode="(" horiz-adv-x="632" 
d="M133 623q0 291 113 522t315 340q3 2 7.5 -3t0.5 -9q-152 -145 -222.5 -356t-70.5 -494t70.5 -494t222.5 -356q4 -3 -0.5 -9t-7.5 -4q-202 111 -315 342t-113 521z" />
    <glyph glyph-name="parenright" unicode=")" horiz-adv-x="632" 
d="M500 623q0 -291 -113 -522.5t-315 -340.5q-3 -2 -8 3.5t-1 9.5q152 145 222.5 356t70.5 494t-70.5 494t-222.5 356q-3 2 -1.5 5t5 5.5t5.5 1.5q202 -111 315 -341.5t113 -520.5z" />
    <glyph glyph-name="asterisk" unicode="*" horiz-adv-x="917" 
d="M463 1083l4 263q0 27 78 51q66 20 79 11q2 -2 1 -5l-142 -320q-1 -6 -10.5 -6t-9.5 6zM418 1047l-250 83q-27 10 -23 101q2 65 14 70q2 0 3 -1l262 -235q4 -3 3.5 -7t-3.5 -8t-6 -3zM864 995l-350 35q-4 0 -6.5 10t0.5 11l252 77q26 8 73 -59q39 -54 35 -71q-1 -3 -4 -3z
M281 784q-16 -23 -100 7q-61 21 -64 35q0 2 2 3l303 177q4 4 11.5 -2t4.5 -11zM551 643l-74 342q-1 3 3 7t8.5 6.5t5.5 0.5l153 -217q16 -23 -37 -91q-38 -50 -55 -51q-3 1 -4 3z" />
    <glyph glyph-name="plus" unicode="+" horiz-adv-x="815" 
d="M745 428q9 0 9 -40t-9 -40h-296v-297q0 -6 -20.5 -8.5t-41 -1t-20.5 5.5v301h-297q-6 0 -8 20t-0.5 40t6.5 20h299v297q0 9 41 9t41 -9v-297h296z" />
    <glyph glyph-name="comma" unicode="," horiz-adv-x="454" 
d="M209 145q62 0 96.5 -44.5t34.5 -133.5q0 -171 -154 -338q-7 -6 -14 1.5t-2 13.5q46 63 62 120.5t16 129.5q0 48 -19 96q-15 -6 -32 -6q-39 0 -60.5 21.5t-21.5 57.5q0 82 94 82z" />
    <glyph glyph-name="hyphen" unicode="-" horiz-adv-x="661" 
d="M66 338q-6 -1 -8.5 20t-1.5 43t5 23l535 96q6 1 8 -20t0 -43t-8 -23z" />
    <glyph glyph-name="period" unicode="." horiz-adv-x="403" 
d="M203 -23q-40 0 -65 24.5t-25 64.5q0 39 25 62.5t65 23.5q42 0 66 -23t24 -63t-24 -64.5t-66 -24.5z" />
    <glyph glyph-name="slash" unicode="/" horiz-adv-x="698" 
d="M131 -334q-3 -9 -41.5 3t-36.5 20l516 1806q2 3 10.5 3t20.5 -3t22.5 -7.5t17.5 -9.5t5 -8z" />
    <glyph glyph-name="zero" unicode="0" horiz-adv-x="976" 
d="M492 -27q-183 0 -301.5 120.5t-118.5 307.5q0 183 118.5 299.5t303.5 116.5q181 0 296 -118.5t115 -303.5t-116 -303.5t-297 -118.5zM514 2q123 0 185.5 99t62.5 270q0 206 -82.5 311.5t-208.5 105.5q-122 0 -190 -102t-68 -268q0 -183 82.5 -299.5t218.5 -116.5z" />
    <glyph glyph-name="one" unicode="1" horiz-adv-x="679" 
d="M113 0q-6 0 -6 12.5t6 12.5q126 0 163 26t37 115v381q0 44 -2 69t-10.5 44t-20 24t-36.5 1.5t-54.5 -15t-78.5 -33.5q-5 -2 -10 3t-5.5 10.5t4.5 8.5l310 150q7 4 13.5 -1.5t6.5 -12.5v-629q0 -48 6 -73t28.5 -41.5t59.5 -21.5t105 -5q6 0 6 -12.5t-6 -12.5
q-31 0 -117.5 2t-140.5 2q-51 0 -138.5 -2t-119.5 -2z" />
    <glyph glyph-name="two" unicode="2" horiz-adv-x="823" 
d="M76 31q267 217 365 332t98 223q0 83 -50.5 134.5t-130.5 51.5q-161 0 -233 -254q-1 -3 -7.5 -3t-12.5 2.5t-5 6.5l80 312q2 8 17 2q8 -4 6 -7q-12 -55 28 -55q13 0 83.5 20.5t127.5 20.5q104 0 165 -56t61 -147q0 -55 -25 -108.5t-84.5 -116t-130 -122.5t-190.5 -152
q-7 -6 -4 -10.5t12 -4.5q312 0 392 19t101 114q1 4 13 3.5t12 -5.5l-31 -208q0 -8 -5.5 -15.5t-12.5 -7.5h-625q-9 0 -15 12t1 19z" />
    <glyph glyph-name="three" unicode="3" horiz-adv-x="796" 
d="M438 268q135 -14 206 -95.5t71 -190.5q0 -74 -36 -151t-106.5 -151t-187 -138t-264.5 -105q-8 -2 -13 11q-2 9 3 11q104 32 185.5 79.5t131 98.5t82 109.5t45 110t12.5 102.5q0 71 -21.5 127.5t-75.5 95.5t-134 39q-54 0 -98 -12q-6 -2 -10.5 9.5t1.5 14.5
q160 40 226.5 114.5t66.5 201.5q0 104 -44 163.5t-134 59.5q-182 0 -252 -244q-3 -3 -8.5 -3t-11 3t-4.5 7l75 299q3 4 9 4t11.5 -3t4.5 -6q-8 -31 2.5 -44t28.5 -13q13 0 84.5 22.5t128.5 22.5q114 0 177.5 -68t63.5 -165q0 -100 -57.5 -187t-157.5 -129z" />
    <glyph glyph-name="four" unicode="4" horiz-adv-x="923" 
d="M848 90q6 0 7.5 -22t-1 -44t-8.5 -22q-60 4 -172 8v-323q0 -22 -17 -29l-86 -43q-11 -6 -14.5 -3.5t-3.5 15.5v385q-129 4 -494 4q-10 0 -15.5 8t1.5 17l598 770q5 6 18 3.5t13 -11.5v-717q48 0 174 4zM160 78q175 0 393 4v526l-403 -516q-6 -6 -2.5 -10t12.5 -4z" />
    <glyph glyph-name="five" unicode="5" horiz-adv-x="837" 
d="M244 666q-28 0 -31 -29l-43 -236q283 -1 416 -103.5t133 -279.5q0 -172 -134 -304.5t-446 -276.5q-8 -3 -13.5 7.5t1.5 14.5q130 64 220.5 130t141.5 132.5t73 129.5t22 133q0 169 -115 263.5t-330 94.5q-10 0 -16 8t-4 17l65 364q2 14 6 18t21 5q372 43 433 60
q46 12 57 36l6 16q1 4 7 5t11 -1.5t4 -7.5l-41 -151q-7 -24 -18.5 -30.5t-38.5 -6.5z" />
    <glyph glyph-name="six" unicode="6" horiz-adv-x="952" 
d="M612 580q71 0 124.5 -21.5t84 -59t45.5 -81t15 -92.5q0 -146 -120.5 -249.5t-289.5 -103.5q-174 0 -274.5 119t-100.5 334q0 191 84.5 372.5t250.5 330t388 225.5q7 1 11.5 -8.5t-1.5 -14.5q-146 -66 -262.5 -167.5t-189.5 -217.5t-111.5 -240t-38.5 -245
q0 -192 81.5 -320.5t219.5 -128.5q100 0 161 69t61 189q0 112 -53 182t-154 70q-55 0 -101 -22t-104 -74q-4 -3 -9.5 -1.5t-10 6.5t-1.5 9q112 140 295 140z" />
    <glyph glyph-name="seven" unicode="7" horiz-adv-x="878" 
d="M334 -446q-10 -28 -43 -50l-103 -67q-5 -2 -11 4t-3 10l545 1221q6 14 -10 14q-117 0 -191.5 -0.5t-145 -3.5t-109 -6t-74.5 -12t-51.5 -17t-30.5 -25t-21 -32t-14 -43q-2 -4 -8.5 -4.5t-12 2.5t-4.5 8l72 293q2 3 8.5 3.5t11.5 -1t4 -4.5q-7 -35 10.5 -44t86.5 -9h542
q9 0 15.5 -9.5t3.5 -17.5z" />
    <glyph glyph-name="eight" unicode="8" horiz-adv-x="1001" 
d="M610 705q43 -24 67.5 -38t63 -39t61 -45t49.5 -49t42 -58t25 -66t10 -78q0 -153 -126.5 -256t-305.5 -103q-177 0 -288.5 99t-111.5 235q0 120 80.5 226.5t200.5 168.5q-79 48 -122.5 102t-43.5 126q0 49 20 90.5t52.5 69.5t75 48t86 29t85.5 9q121 0 198 -66.5
t77 -148.5q0 -66 -50.5 -132.5t-144.5 -123.5zM487 1143q-71 0 -117 -41t-46 -111q0 -37 15.5 -71.5t36.5 -59t61.5 -53t69.5 -45.5t81 -45q100 100 100 211q0 96 -57 155.5t-144 59.5zM553 10q112 0 185 70t73 186q0 42 -11 80.5t-25.5 67.5t-44 59t-51 48.5t-63.5 44.5
t-63.5 38t-69.5 37q-3 1 -77 43q-85 -54 -131 -138.5t-46 -185.5q0 -141 91.5 -245.5t232.5 -104.5z" />
    <glyph glyph-name="nine" unicode="9" horiz-adv-x="952" 
d="M362 223q-76 0 -134.5 25t-91 67t-48.5 88.5t-16 96.5q0 138 107 227.5t265 89.5q189 0 300.5 -131t111.5 -346q0 -187 -83.5 -365.5t-250.5 -324t-389 -213.5q-6 -2 -10.5 8t2.5 14q117 48 216 121.5t169 158.5t119 181t72.5 192t23.5 187q0 62 -10 125t-34 127.5
t-59 114t-89.5 81t-120.5 31.5q-97 0 -153 -63t-56 -176q0 -112 58 -185t167 -73q53 0 93.5 16.5t92.5 58.5q6 6 16 -1t7 -13q-101 -119 -275 -119z" />
    <glyph glyph-name="colon" unicode=":" horiz-adv-x="403" 
d="M203 553q-40 0 -65 24t-25 64q0 39 25 62.5t65 23.5q42 0 66 -23t24 -63t-24 -64t-66 -24zM203 -23q-40 0 -65 24.5t-25 64.5q0 39 25 62.5t65 23.5q42 0 66 -23t24 -63t-24 -64.5t-66 -24.5z" />
    <glyph glyph-name="semicolon" unicode=";" horiz-adv-x="458" 
d="M207 553q-40 0 -65 24t-25 64q0 39 25 62.5t65 23.5q42 0 66 -23t24 -63t-24 -64t-66 -24zM213 145q62 0 96.5 -44.5t34.5 -133.5q0 -171 -154 -338q-7 -6 -14 1.5t-2 13.5q46 63 62 120.5t16 129.5q0 48 -19 96q-15 -6 -32 -6q-39 0 -60.5 21.5t-21.5 57.5q0 82 94 82z
" />
    <glyph glyph-name="less" unicode="&#x3c;" horiz-adv-x="833" 
d="M758 135q14 -6 13 -52q-2 -35 -13 -32l-684 303q-10 6 -10 36t10 34l684 301q7 4 11 -11q8 -31 -3 -60q-3 -8 -8 -11l-596 -254z" />
    <glyph glyph-name="equal" unicode="=" horiz-adv-x="958" 
d="M70 492q-6 0 -8 20t-0.5 39.5t6.5 19.5h821q9 0 9 -39.5t-9 -39.5h-819zM70 205q-6 0 -8 20t-0.5 40t6.5 20h821q9 0 9 -40t-9 -40h-819z" />
    <glyph glyph-name="greater" unicode="&#x3e;" horiz-adv-x="833" 
d="M760 422q10 -6 10 -36t-10 -34l-684 -301q-7 -4 -11 11q-8 31 3 60q4 8 8 11l596 254l-596 254q-14 6 -13 52q2 35 13 32z" />
    <glyph glyph-name="question" unicode="?" horiz-adv-x="673" 
d="M326 1253q-26 0 -44 -8t-26.5 -23.5t-12 -29.5t-5.5 -35q-5 -26 -11.5 -43.5t-24 -32t-44.5 -14.5q-33 0 -51.5 21.5t-18.5 48.5q0 59 71.5 101t172.5 42q121 0 199.5 -63.5t78.5 -182.5q0 -44 -11 -82t-35 -71t-43.5 -53.5t-53.5 -52.5q-3 -3 -5 -4.5t-4.5 -4l-4.5 -4.5
q-71 -70 -100 -126.5t-29 -127.5q0 -46 12 -113q1 -4 -5 -6.5t-12.5 -2t-7.5 4.5q-23 54 -38 126t-15 118t15.5 85t39 64t51 54.5t51 56.5t39 69.5t15.5 94.5q0 87 -40 140.5t-103 53.5zM301 -23q-40 0 -65 24.5t-25 64.5q0 39 25 62.5t65 23.5q42 0 66 -23t24 -63
t-24 -64.5t-66 -24.5z" />
    <glyph glyph-name="at" unicode="@" horiz-adv-x="1472" 
d="M956 104q-70 0 -96 48t-12 131l20 104q-72 -130 -159 -208.5t-164 -78.5q-54 0 -84 40t-19 124q16 109 84 218t159 177t171 68q64 0 96 -43q32 28 37 57q3 4 20 3.5t17 -5.5l-84 -458q-6 -40 -6.5 -70t17.5 -48t57 -18q90 0 165.5 93t75.5 245q0 200 -144 340t-357 140
q-117 0 -215 -45.5t-161.5 -122.5t-98.5 -177t-35 -210q0 -245 156 -394t409 -149q98 0 172.5 20t167.5 74q3 2 7 -1.5t5.5 -8t-0.5 -6.5q-179 -142 -418 -142q-123 0 -230 38t-186.5 107.5t-125 174.5t-45.5 233q0 140 55.5 264t147.5 209t212 134t248 49q114 0 211 -37.5
t162.5 -101.5t102 -149t36.5 -179q0 -114 -50.5 -215.5t-136.5 -162.5t-184 -61zM600 182q82 0 175.5 118.5t123.5 252.5q10 56 -12.5 92t-75.5 35q-78 -2 -158.5 -107.5t-103.5 -242.5q-23 -148 51 -148z" />
    <glyph glyph-name="A" unicode="A" 
d="M1432 25q8 0 8 -12.5t-8 -12.5q-39 0 -120.5 4t-119.5 4q-44 0 -111 -4t-104 -4q-9 0 -9 12.5t9 12.5q110 0 134.5 31t-15.5 120l-236 502h-387l-176 -418q-50 -126 -8 -180.5t180 -54.5q9 0 9 -12.5t-9 -12.5q-38 0 -112.5 4t-129.5 4q-51 0 -118 -4t-107 -4
q-9 0 -9 12.5t9 12.5q84 0 136 51.5t116 202.5l432 1019q3 6 14.5 6t12.5 -6l483 -1017q69 -151 119 -203.5t117 -52.5zM492 721h348l-185 389z" />
    <glyph glyph-name="B" unicode="B" horiz-adv-x="1142" 
d="M680 721q162 -12 261 -108t99 -236q0 -165 -116.5 -275t-290.5 -110q-43 0 -149 6t-152 6q-48 0 -130.5 -2t-113.5 -2q-4 0 -4 12.5t4 12.5q111 0 145.5 26.5t34.5 114.5v948q0 88 -33 114.5t-143 26.5q-6 0 -6 12.5t6 12.5q30 0 111 -3t129 -3q35 0 121 6t120 6
q173 0 259 -74.5t86 -195.5q0 -99 -64 -176t-174 -119zM528 1255q-40 0 -60.5 -3.5t-38.5 -17.5t-24 -43.5t-6 -80.5v-389q53 -2 93 -2q150 0 221 76.5t71 203.5q0 115 -62.5 185.5t-193.5 70.5zM602 29q149 0 222 77t73 220q0 156 -91.5 252.5t-250.5 97.5q-67 3 -156 -4
v-506q0 -53 15 -81t59 -42t129 -14z" />
    <glyph glyph-name="C" unicode="C" horiz-adv-x="1370" 
d="M850 1303q99 0 199 -19t159 -53q18 -9 23.5 -18t7.5 -31l23 -230q0 -5 -11 -7t-12 5q-44 158 -167 232.5t-302 74.5q-236 0 -376 -150t-140 -400q0 -191 79 -353t213 -256t290 -94q147 0 255 81.5t166 248.5q1 7 13 5t12 -7l-29 -232q-5 -26 -9.5 -33t-22.5 -14
q-186 -78 -390 -78q-151 0 -276 40.5t-207.5 107t-139.5 155t-82.5 182t-25.5 191.5q0 114 40.5 217.5t112 181.5t165.5 135.5t205 87.5t227 30z" />
    <glyph glyph-name="D" unicode="D" horiz-adv-x="1415" 
d="M621 -8q-37 0 -147 6t-161 6q-48 0 -129.5 -2t-111.5 -2q-4 0 -4 12.5t4 12.5q112 0 144 25.5t32 115.5v948q0 89 -31.5 115t-142.5 26q-4 0 -4 12.5t4 12.5q31 0 111 -3t128 -3q47 0 145.5 5t133.5 5q160 0 295.5 -48t229 -131t146 -197.5t52.5 -245.5
q0 -150 -55.5 -277t-150 -212.5t-221 -133t-267.5 -47.5zM600 23q251 0 405 155.5t154 437.5q0 178 -66.5 322.5t-192.5 229.5t-290 85q-131 0 -180 -27t-49 -116v-922q0 -91 44.5 -128t174.5 -37z" />
    <glyph glyph-name="E" unicode="E" horiz-adv-x="1099" 
d="M973 305q1 6 12.5 4t11.5 -8q-18 -130 -18 -270q0 -17 -7 -24t-26 -7h-858q-4 0 -4 12.5t4 12.5q112 0 144 25.5t32 115.5v948q0 88 -32 114.5t-144 26.5q-4 0 -4 12.5t4 12.5h823q19 0 19 -18l4 -252q0 -6 -11 -7t-12 5q-6 108 -65.5 168.5t-157.5 60.5h-125
q-103 0 -134.5 -25.5t-31.5 -107.5v-416h250q98 0 140 33t42 110q0 5 12.5 5t12.5 -5q0 -45 -1 -94t-1 -71q0 -31 2 -92t2 -97q0 -5 -12.5 -5t-12.5 5q0 90 -44 129t-146 39h-244v-471q0 -82 30 -106.5t130 -24.5h164q97 0 163.5 70t88.5 192z" />
    <glyph glyph-name="F" unicode="F" horiz-adv-x="1042" 
d="M930 1262l4 -252q0 -6 -11 -7t-12 5q-6 108 -65.5 168.5t-157.5 60.5h-125q-101 0 -133.5 -25t-32.5 -100v-448h207q108 0 154.5 33.5t46.5 109.5q0 5 12 5t12 -5q0 -45 -1 -94.5t-1 -71.5q0 -31 2 -91.5t2 -96.5q0 -5 -12 -5t-12 5q0 90 -48 129t-161 39h-201v-447
q0 -65 18 -94.5t69 -42t161 -12.5q6 0 6 -12.5t-6 -12.5q-41 0 -144.5 2t-170.5 2q-48 0 -130.5 -2t-113.5 -2q-4 0 -4 12.5t4 12.5q114 0 146 25.5t32 115.5v948q0 88 -32 114.5t-144 26.5q-4 0 -4 12.5t4 12.5h823q19 0 19 -18z" />
    <glyph glyph-name="G" unicode="G" horiz-adv-x="1462" 
d="M829 -25q-169 0 -308 51t-230 139t-141 206.5t-50 253.5q0 198 101.5 353.5t279 240t400.5 84.5q219 0 340 -74q5 -3 9 -6t6.5 -6t4 -5t2.5 -6.5t1 -6t0.5 -8t0.5 -9.5l25 -230q0 -5 -12 -7t-13 5q-44 148 -161.5 227.5t-290.5 79.5q-258 0 -399.5 -149t-141.5 -410
q0 -198 81.5 -355.5t224.5 -245t321 -87.5q79 0 126.5 9t82.5 36t49 75.5t14 127.5q0 55 -2 85.5t-11 58.5t-21.5 40t-41.5 21.5t-63 11.5t-92 2q-8 0 -11 8.5t-0.5 16.5t9.5 8q229 -16 458 -4q9 0 9.5 -14.5t-9.5 -14.5q-25 1 -40 -1t-28 -12t-18.5 -23.5t-9.5 -44
t-5 -64.5t-1 -94q0 -82 7 -129.5t7 -51.5q0 -11 -4 -15t-18 -9q-248 -58 -437 -58z" />
    <glyph glyph-name="H" unicode="H" horiz-adv-x="1554" 
d="M1479 25q6 0 6 -12.5t-6 -12.5q-28 0 -111 2t-131 2q-54 0 -136.5 -2t-111.5 -2q-6 0 -6 12.5t6 12.5q116 0 148 25.5t32 115.5v479h-786v-479q0 -90 32 -115.5t148 -25.5q5 0 5 -12.5t-5 -12.5q-30 0 -112 2t-136 2q-48 0 -130.5 -2t-112.5 -2q-4 0 -4 12.5t4 12.5
q114 0 147 26t33 115v948q0 88 -32.5 114.5t-145.5 26.5q-4 0 -4 12.5t4 12.5q31 0 112 -3t129 -3q54 0 136.5 3t111.5 3q5 0 5 -12.5t-5 -12.5q-114 0 -147 -28t-33 -117v-422h786v422q0 90 -32.5 117.5t-147.5 27.5q-6 0 -6 12.5t6 12.5q29 0 111.5 -3t136.5 -3
q48 0 131 3t111 3q6 0 6 -12.5t-6 -12.5q-113 0 -146 -26.5t-33 -114.5v-948q0 -89 32.5 -115t146.5 -26z" />
    <glyph glyph-name="I" unicode="I" horiz-adv-x="679" 
d="M408 166q0 -90 31 -115.5t143 -25.5q6 0 6 -12.5t-6 -12.5q-29 0 -110 2t-134 2q-49 0 -130.5 -2t-111.5 -2q-6 0 -6 12.5t6 12.5q112 0 144 25.5t32 115.5v948q0 88 -32 114.5t-144 26.5q-6 0 -6 12.5t6 12.5q30 0 111.5 -3t130.5 -3q53 0 135 3t109 3q6 0 6 -12.5
t-6 -12.5q-109 0 -141.5 -28t-32.5 -117v-944z" />
    <glyph glyph-name="J" unicode="J" horiz-adv-x="659" 
d="M573 1280q5 0 5 -12.5t-5 -12.5q-96 0 -123.5 -27.5t-27.5 -117.5v-1167q0 -203 -94.5 -323t-272.5 -120q-69 0 -109 24t-40 64q0 30 18 49t51 19q27 0 46.5 -12t31 -29t22.5 -33.5t27.5 -28.5t38.5 -12q73 0 109.5 85t36.5 274v1214q0 89 -36.5 115t-164.5 26
q-4 0 -4 12.5t4 12.5q38 0 126.5 -3t139.5 -3q48 0 121.5 3t99.5 3z" />
    <glyph glyph-name="K" unicode="K" horiz-adv-x="1331" 
d="M1313 25q6 0 6 -12.5t-6 -12.5h-230h-30q-53 -1 -70.5 11t-68.5 83q-78 109 -152 203l-313 395l-68 -65v-461q0 -90 31 -115.5t143 -25.5q6 0 6 -12.5t-6 -12.5q-29 0 -109.5 2t-132.5 2q-48 0 -129.5 -2t-111.5 -2q-4 0 -4 12.5t4 12.5q112 0 144 25.5t32 115.5v948
q0 89 -31.5 115t-142.5 26q-4 0 -4 12.5t4 12.5q31 0 111 -3t128 -3q52 0 133.5 3t108.5 3q6 0 6 -12.5t-6 -12.5q-109 0 -141.5 -28t-32.5 -117v-432l438 436q77 78 65.5 109.5t-118.5 31.5q-4 0 -4 12.5t4 12.5q28 0 102 -3t136 -3q59 0 127 3t90 3q6 0 6 -12.5t-6 -12.5
q-85 0 -179.5 -36.5t-175.5 -116.5l-323 -318l295 -376q56 -72 99.5 -126.5t81.5 -95.5t64 -68.5t53 -45.5t42.5 -27.5t40.5 -14t37 -5t41 -0.5h16z" />
    <glyph glyph-name="L" unicode="L" horiz-adv-x="1091" 
d="M379 1112v-938q0 -84 29.5 -107.5t134.5 -23.5h223q116 0 185.5 71.5t92.5 198.5q0 4 6 5t11.5 -1t5.5 -6q-18 -171 -18 -280q0 -18 -6.5 -24.5t-24.5 -6.5h-946q-4 0 -4 12.5t4 12.5q112 0 143 25.5t31 115.5v948q0 89 -31.5 115t-142.5 26q-4 0 -4 12.5t4 12.5
q30 0 110.5 -3t128.5 -3q51 0 132.5 3t109.5 3q6 0 6 -12.5t-6 -12.5q-109 0 -141.5 -27t-32.5 -116z" />
    <glyph glyph-name="M" unicode="M" horiz-adv-x="1712" 
d="M1663 25q6 0 6 -12.5t-6 -12.5q-30 0 -111.5 2t-130.5 2q-47 0 -121.5 -2t-101.5 -2q-4 0 -4 12.5t4 12.5q102 0 131 26t25 115l-37 932l-467 -1084q-3 -8 -16.5 -8t-18.5 8l-504 1071l-18 -862q-2 -107 37 -152.5t137 -45.5q5 0 5 -12.5t-5 -12.5q-27 0 -93 2t-106 2
q-38 0 -100.5 -2t-87.5 -2q-4 0 -4 12.5t4 12.5q86 0 124 46t40 152l18 951q-60 81 -168 81q-4 0 -4 12.5t4 12.5q24 0 70.5 -2t62.5 -2q25 0 61 2t42 2q28 0 45 -19t49 -87l457 -963l446 1018q22 51 62 51q4 0 31 -2t50 -2q39 0 90 2t74 2q6 0 6 -12.5t-6 -12.5
q-103 0 -147 -30t-41 -111l41 -948q2 -63 15 -90.5t48 -39t113 -11.5z" />
    <glyph glyph-name="N" unicode="N" horiz-adv-x="1488" 
d="M1442 1280q6 0 6 -12.5t-6 -12.5q-86 0 -125 -47t-39 -153v-1080q0 -4 -10 -5.5t-15 1.5l-942 1141q-9 12 -18 21v-910q0 -106 37.5 -152t122.5 -46q6 0 6 -12.5t-6 -12.5q-24 0 -84 2t-97 2q-36 0 -99 -2t-89 -2q-4 0 -4 12.5t4 12.5q89 0 125.5 45.5t36.5 152.5v959
q-78 73 -162 73q-6 0 -6 12.5t6 12.5q24 0 73.5 -2t69.5 -2q29 0 70 2t49 2q16 0 24.5 -7.5t28.5 -39t43 -59.5l789 -969v850q0 107 -36 153.5t-120 46.5q-5 0 -5 12.5t5 12.5q26 0 84.5 -3t95.5 -3q35 0 98.5 3t88.5 3z" />
    <glyph glyph-name="O" unicode="O" horiz-adv-x="1568" 
d="M750 -25q-191 0 -341 91t-229.5 242t-79.5 331q0 129 43 239t115 187t165.5 131.5t195 80.5t202.5 26q146 0 270 -55t205.5 -146.5t126.5 -208t45 -240.5q0 -140 -58 -266t-155 -216t-229 -143t-276 -53zM821 18q103 0 192.5 38.5t156.5 110t105 182.5t38 247
q0 292 -158.5 475.5t-419.5 183.5q-226 0 -352.5 -145.5t-126.5 -398.5q0 -193 70.5 -350.5t200.5 -250t294 -92.5z" />
    <glyph glyph-name="P" unicode="P" horiz-adv-x="1112" 
d="M393 174q0 -33 3 -54t13.5 -39t26.5 -28t44.5 -16.5t65 -9t91.5 -2.5q6 0 6 -12.5t-6 -12.5q-40 0 -142 2t-167 2q-48 0 -129.5 -2t-112.5 -2q-4 0 -4 12.5t4 12.5q112 0 143 25.5t31 115.5v948q0 89 -31.5 115t-142.5 26q-4 0 -4 12.5t4 12.5q31 0 111.5 -3t128.5 -3
q31 0 129.5 6t154.5 6q90 0 163.5 -19.5t130.5 -59t89 -105t33 -152.5q1 -83 -26 -153t-72 -117t-104.5 -80t-123 -48t-127.5 -15q-59 0 -98 10q-5 1 -5.5 8t2.5 13t7 5q33 -8 74 -8q134 0 227.5 88.5t93.5 253.5q0 162 -88 255t-225 93q-57 0 -83.5 -3t-49 -18t-29 -43.5
t-6.5 -80.5v-936z" />
    <glyph glyph-name="Q" unicode="Q" horiz-adv-x="1568" 
d="M1526 -330q4 2 7 -3t3.5 -10t-2.5 -7q-109 -25 -174 -25q-141 0 -298 93t-271 259q-14 -2 -41 -2q-191 0 -341 91t-229.5 242t-79.5 331q0 129 43 239t115 187t165.5 131.5t195 80.5t202.5 26q146 0 270 -55t205.5 -146.5t126.5 -208t45 -240.5q0 -229 -145 -407.5
t-369 -241.5q87 -148 229 -243t269 -95q38 0 74 4zM256 711q0 -193 70.5 -350.5t200.5 -250t294 -92.5q103 0 192.5 38.5t156.5 110t105 182.5t38 247q0 292 -158.5 475.5t-419.5 183.5q-226 0 -352.5 -145.5t-126.5 -398.5z" />
    <glyph glyph-name="R" unicode="R" horiz-adv-x="1378" 
d="M1399 25q5 0 5 -12.5t-5 -12.5h-264q-52 0 -192.5 175.5t-340.5 488.5q-52 -15 -110 -15q-39 0 -93 4v-487q0 -90 30.5 -115.5t143.5 -25.5q6 0 6 -12.5t-6 -12.5q-31 0 -110 2t-131 2q-48 0 -130.5 -2t-113.5 -2q-4 0 -4 12.5t4 12.5q113 0 146.5 26t33.5 115v948
q0 88 -32 114.5t-144 26.5q-6 0 -6 12.5t6 12.5q30 0 111 -3t129 -3q36 0 124 6t122 6q167 0 256.5 -68t89.5 -188q0 -98 -57 -184.5t-152 -138.5q257 -384 405.5 -533t278.5 -149zM399 705q58 -9 121 -9q142 0 203 60t61 202q0 297 -249 297q-42 0 -64 -3.5t-40.5 -18
t-25 -43.5t-6.5 -80v-405z" />
    <glyph glyph-name="S" unicode="S" horiz-adv-x="1005" 
d="M297 1040q0 -59 20 -107t68 -91.5t82.5 -67t105.5 -66.5q4 -3 7 -4.5t6 -3.5q134 -79 183 -121q126 -106 126 -253q0 -152 -112.5 -251.5t-309.5 -99.5q-156 0 -289 72q-15 8 -18 39l-27 279q-1 9 10 10.5t13 -6.5q15 -67 42 -126.5t69 -114.5t105.5 -87.5t141.5 -32.5
q103 0 173.5 56.5t70.5 179.5q0 42 -9.5 79.5t-22.5 66t-39.5 58t-46 48.5t-57.5 44.5t-59.5 39t-64.5 38.5q-35 21 -48.5 29.5t-45 29.5t-45.5 33t-39.5 33.5t-37.5 38t-29 41.5t-24.5 48t-13.5 52t-6 60q0 103 57 177.5t141.5 108.5t182.5 34q119 0 240 -50q30 -10 30 -34
l15 -236q0 -5 -5.5 -7t-11 -0.5t-6.5 7.5q-7 46 -25.5 92t-52 92.5t-90 75.5t-127.5 29q-114 0 -170.5 -67t-56.5 -165z" />
    <glyph glyph-name="T" unicode="T" horiz-adv-x="1298" 
d="M387 1243q-129 0 -194 -66t-93 -223q0 -4 -11 -4t-11 4q28 245 28 371q0 9 11.5 9.5t11.5 -9.5q0 -45 111 -45q175 -6 411 -6q107 0 230.5 3t165.5 3q74 0 109.5 10t45.5 41q2 7 12.5 7t10.5 -7q-6 -60 -12.5 -193t-6.5 -184q0 -4 -12 -4t-12 4q-6 159 -65.5 224
t-196.5 65q-48 0 -75 -1t-52.5 -6t-37 -13t-20.5 -24t-11.5 -36.5t-2.5 -52.5v-944q0 -63 14.5 -91t55 -39t129.5 -11q6 0 6 -12.5t-6 -12.5q-32 0 -122 2t-147 2q-53 0 -142.5 -2t-123.5 -2q-5 0 -5 12.5t5 12.5q88 0 129 11t56.5 39.5t15.5 90.5v948q0 32 -2.5 52.5
t-12.5 35.5t-21 22.5t-37.5 12t-52 5.5t-73.5 1z" />
    <glyph glyph-name="U" unicode="U" horiz-adv-x="1429" 
d="M1171 1055q0 200 -178 200q-6 0 -6 12.5t6 12.5q28 0 95.5 -3t109.5 -3q34 0 97 3t89 3q4 0 4 -12.5t-4 -12.5q-83 0 -123 -49.5t-40 -150.5v-582q0 -235 -131.5 -367.5t-352.5 -132.5q-229 0 -366.5 132t-137.5 354v655q0 89 -31.5 115t-142.5 26q-5 0 -5 12.5t5 12.5
q30 0 110.5 -3t129.5 -3q51 0 132.5 3t109.5 3q6 0 6 -12.5t-6 -12.5q-110 0 -142 -27.5t-32 -117.5v-580q0 -240 109 -367.5t306 -127.5q184 0 286.5 115.5t102.5 320.5v584z" />
    <glyph glyph-name="V" unicode="V" horiz-adv-x="1363" 
d="M1370 1280q6 0 6 -12.5t-6 -12.5q-70 0 -121 -36.5t-86 -124.5l-436 -1092q-3 -8 -22 -8t-23 8l-510 1108q-36 79 -74.5 112t-99.5 33q-6 0 -6 12.5t6 12.5q26 0 81 -3t89 -3q70 0 154 3t106 3q6 0 6 -12.5t-6 -12.5q-55 0 -85.5 -13t-39.5 -43.5t16 -80.5l429 -938
l368 924q33 76 0 113.5t-143 37.5q-6 0 -6 12.5t6 12.5q31 0 97 -3t118 -3q40 0 94 3t88 3z" />
    <glyph glyph-name="W" unicode="W" horiz-adv-x="1906" 
d="M1915 1280q5 0 5 -12.5t-5 -12.5q-70 0 -121.5 -36.5t-87.5 -124.5l-436 -1092q-3 -8 -21.5 -8t-23.5 8l-267 582l-231 -582q-3 -8 -22 -8t-23 8l-510 1108q-37 83 -73.5 114t-100.5 31q-6 0 -6 12.5t6 12.5q26 0 81 -3t89 -3q64 0 142 3t102 3q6 0 6 -12.5t-6 -12.5
q-42 0 -67.5 -6t-40.5 -21t-13 -42t20 -68l437 -936l184 459l-215 469q-36 79 -73.5 112t-96.5 33q-6 0 -6 12.5t6 12.5q25 0 79 -3t87 -3q49 0 104 3t70 3q6 0 6 -12.5t-6 -12.5q-63 0 -68 -23t37 -114l150 -319l120 305q33 82 19 116.5t-82 34.5q-6 0 -6 12.5t6 12.5
q17 0 55 -3t78 -3q39 0 92 3t86 3q4 0 4 -12.5t-4 -12.5q-69 0 -118 -35.5t-85 -125.5l-139 -351l260 -561l367 918q33 80 1 117.5t-138 37.5q-6 0 -6 12.5t6 12.5q29 0 94 -3t117 -3q39 0 93.5 3t88.5 3z" />
    <glyph glyph-name="X" unicode="X" horiz-adv-x="1335" 
d="M1300 25q4 0 4 -12.5t-4 -12.5q-25 0 -91 2t-105 2q-59 0 -143.5 -2t-114.5 -2q-4 0 -4 12.5t4 12.5q77 0 96 16.5t-10 62.5l-311 471l-261 -366q-63 -89 -44.5 -136.5t116.5 -47.5q6 0 6 -12.5t-6 -12.5q-33 0 -104.5 2t-130.5 2q-36 0 -84.5 -2t-77.5 -2q-6 0 -6 12.5
t6 12.5q141 0 278 186l289 395l-330 500q-54 81 -106 115t-123 34q-5 0 -5 12.5t5 12.5q25 0 78 -3t78 -3q61 0 152.5 3t121.5 3q6 0 6 -12.5t-6 -12.5q-76 0 -96 -17.5t10 -63.5l303 -457l240 340q68 95 52.5 146.5t-112.5 51.5q-6 0 -6 12.5t6 12.5q32 0 104.5 -3
t129.5 -3q36 0 84.5 3t77.5 3q6 0 6 -12.5t-6 -12.5q-140 0 -289 -202l-268 -367l342 -516q54 -80 109.5 -112.5t139.5 -32.5z" />
    <glyph glyph-name="Y" unicode="Y" horiz-adv-x="1247" 
d="M1257 1280q5 0 5 -12.5t-5 -12.5q-73 0 -148.5 -54t-135.5 -148l-275 -422v-465q0 -90 30.5 -115.5t143.5 -25.5q6 0 6 -12.5t-6 -12.5q-30 0 -110 2t-131 2q-49 0 -130.5 -2t-111.5 -2q-6 0 -6 12.5t6 12.5q112 0 144 25.5t32 115.5v432l-340 498q-58 90 -108.5 124.5
t-118.5 34.5q-6 0 -6 12.5t6 12.5q24 0 73.5 -3t71.5 -3q61 0 159 3t128 3q4 0 4 -12.5t-4 -12.5q-78 0 -98.5 -23.5t12.5 -70.5l330 -483l250 383q59 94 42.5 144t-108.5 50q-4 0 -4 12.5t4 12.5q34 0 107 -3t133 -3q35 0 82 3t77 3z" />
    <glyph glyph-name="Z" unicode="Z" horiz-adv-x="1218" 
d="M113 27l809 1202q6 11 4 13.5t-15 2.5h-182t-145.5 -2.5t-119.5 -4.5t-90.5 -9.5t-72.5 -14t-51.5 -21.5t-41.5 -28.5t-28.5 -38.5t-26.5 -48t-22 -60q-1 -4 -7.5 -4t-12.5 2.5t-5 5.5l82 319q2 7 19 1q6 -3 6 -5q-6 -36 16 -46.5t101 -10.5h747q9 0 15 -10.5t0 -16.5
l-799 -1198q-7 -11 -5.5 -13.5t15.5 -2.5h522q136 0 208.5 57t94.5 180q2 4 12.5 4t10.5 -4l-29 -260q0 -7 -5 -13.5t-13 -6.5q-305 4 -979 4q-9 0 -13.5 10t1.5 17z" />
    <glyph glyph-name="bracketleft" unicode="[" horiz-adv-x="561" 
d="M180 -217v1681q0 13 3.5 17t15.5 4h284q6 0 6 -12.5t-6 -12.5q-80 0 -117.5 -12.5t-51 -41.5t-13.5 -91v-1385q0 -62 13.5 -91t51 -41.5t117.5 -12.5q6 0 6 -12.5t-6 -12.5h-284q-12 0 -15.5 4t-3.5 19z" />
    <glyph glyph-name="backslash" unicode="\" horiz-adv-x="698" 
d="M567 -334l-514 1804q-2 3 5 8t17.5 9.5t22.5 7.5t20.5 3t10.5 -3l516 -1806q1 -3 -6 -7.5t-18 -8.5t-23 -7t-20.5 -3t-10.5 3z" />
    <glyph glyph-name="bracketright" unicode="]" horiz-adv-x="561" 
d="M381 -217q0 -15 -3.5 -19t-15.5 -4h-284q-6 0 -6 12.5t6 12.5q80 0 117.5 12.5t51 41.5t13.5 91v1385q0 62 -13.5 91t-51 41.5t-117.5 12.5q-6 0 -6 12.5t6 12.5h284q12 0 15.5 -4t3.5 -17v-1681z" />
    <glyph glyph-name="asciicircum" unicode="^" horiz-adv-x="802" 
d="M682 778q2 -3 -2 -6.5t-8.5 -4.5t-7.5 1l-263 352l-262 -352q-4 -4 -13 0.5t-7 9.5l260 510q1 10 21.5 10t23.5 -10z" />
    <glyph glyph-name="underscore" unicode="_" horiz-adv-x="815" 
d="M70 -156q-6 0 -8 20.5t-0.5 41t6.5 20.5h677q9 0 9 -41t-9 -41h-675z" />
    <glyph glyph-name="grave" unicode="`" horiz-adv-x="436" 
d="M86 1489q-2 6 11 7q36 3 91 -16q21 -8 23 -14l104 -491q3 -4 -6 -7q-11 -2 -14 3z" />
    <glyph glyph-name="a" unicode="a" horiz-adv-x="858" 
d="M846 111q9 3 13 -8t-5 -15l-211 -100q-8 -4 -16 -4q-26 0 -47 35t-27 96l-127 -68q-116 -61 -184 -61q-63 0 -97 33t-34 85q0 56 42.5 89.5t149.5 70.5l248 88v170q0 135 -34.5 189.5t-96.5 54.5q-70 0 -108.5 -49.5t-47.5 -118.5q-8 -78 -76 -78q-69 0 -69 62
q0 47 61.5 101t148 90t156.5 36q82 0 131.5 -56.5t49.5 -168.5v-363q0 -71 18.5 -104t60.5 -33q37 0 101 27zM426 80l125 63v13v172l-211 -80q-47 -19 -66.5 -41.5t-19.5 -56.5q0 -42 24.5 -66.5t63.5 -24.5q37 0 84 21z" />
    <glyph glyph-name="b" unicode="b" horiz-adv-x="1044" 
d="M639 817q138 0 234 -99t96 -280q0 -112 -39 -203t-104 -147t-144 -85.5t-164 -29.5q-158 0 -278 90l-156 -73q-9 -3 -12.5 6t2.5 14q65 44 92 84.5t27 116.5v1012q0 74 -15.5 106.5t-52.5 32.5q-26 0 -92 -27q-5 -3 -9.5 2.5t-4.5 11.5t4 9l256 125q6 2 10 2
q5 0 11.5 -5.5t6.5 -11.5v-829q77 81 155.5 129.5t176.5 48.5zM582 12q119 0 185.5 92.5t66.5 264.5q0 185 -72.5 283t-190.5 98q-70 0 -133.5 -38.5t-130.5 -105.5v-336q0 -68 28 -121t71.5 -81t88 -42t87.5 -14z" />
    <glyph glyph-name="c" unicode="c" horiz-adv-x="841" 
d="M473 -25q-101 0 -180 35.5t-125.5 94.5t-70 129t-23.5 145q0 99 40 182t104.5 136t143 82.5t158.5 29.5q91 0 165.5 -36t74.5 -89q0 -27 -19.5 -46.5t-52.5 -19.5q-57 0 -90 68q-27 42 -57.5 62t-87.5 20q-115 0 -179.5 -89.5t-64.5 -238.5q0 -82 20 -151t60 -124
t107.5 -86.5t156.5 -31.5q125 0 209 68q5 3 11.5 -5t2.5 -12q-137 -123 -303 -123z" />
    <glyph glyph-name="d" unicode="d" horiz-adv-x="1048" 
d="M1032 115q9 4 14.5 -7t-2.5 -16l-225 -106q-12 -4 -16 -4q-26 0 -45.5 45t-20.5 125q-77 -81 -159.5 -130t-184.5 -49q-132 0 -225.5 109t-93.5 283q0 89 29.5 165t77 128t109 88.5t125.5 53.5t126 17q110 0 196 -53v459q0 74 -15 106.5t-52 32.5q-26 0 -95 -29
q-6 -3 -10.5 2.5t-4.5 11.5t3 9l260 127q4 2 11 2q5 0 11.5 -5.5t6.5 -11.5v-1243q0 -74 17 -106.5t57 -32.5q58 0 106 29zM473 47q131 0 264 137v451q-101 141 -252 141q-128 0 -203 -91.5t-75 -258.5q0 -171 75 -275t191 -104z" />
    <glyph glyph-name="e" unicode="e" horiz-adv-x="835" 
d="M743 115q5 3 12 -6t3 -15q-139 -119 -299 -119q-92 0 -167 33t-121.5 89t-71.5 125.5t-25 146.5q0 186 126.5 313t313.5 127q111 0 172.5 -54t61.5 -149q0 -47 -25 -47l-504 -4q-10 -55 -10 -106q0 -179 86 -290.5t237 -111.5q116 0 211 68zM444 768q-84 0 -139.5 -47.5
t-79.5 -136.5l381 8q0 84 -43.5 130t-118.5 46z" />
    <glyph glyph-name="f" unicode="f" horiz-adv-x="624" 
d="M653 1487q105 0 171.5 -32t66.5 -77q0 -31 -21 -48t-51 -17q-25 0 -43 12t-39 41q-31 44 -66.5 65t-88.5 21q-119 0 -188.5 -137t-69.5 -416v-131q95 2 262 20q14 0 14 -49q0 -10 -3 -22t-7.5 -20t-9.5 -7q-117 30 -256 33v-557q0 -48 6 -73t28.5 -41.5t59.5 -21.5
t106 -5q6 0 6 -12.5t-6 -12.5q-45 0 -131 2t-131 2q-40 0 -106 -2t-90 -2q-6 0 -6 12.5t6 12.5q88 0 114.5 26t26.5 115v461q0 74 -25.5 92t-124.5 18q-6 0 -6 13.5t6 13.5q84 0 114 19.5t32 72.5q10 333 121.5 482t328.5 149z" />
    <glyph glyph-name="g" unicode="g" horiz-adv-x="886" 
d="M455 66q164 -25 207 -36q154 -39 189 -135q13 -33 13 -75q0 -69 -41 -140.5t-108.5 -128.5t-163 -93t-197.5 -36q-145 0 -234 70t-89 178q0 164 233 318q-139 41 -139 139q0 112 147 211q-80 29 -123 89.5t-43 135.5q0 105 90.5 173.5t227.5 68.5q135 0 209 -64
q109 66 219 66q12 0 12 -45q0 -47 -13 -67q-4 -5 -7 -3q-3 1 -19 7t-25 8.5t-25.5 7t-32.5 6.5t-33 2q-24 0 -52 -4q54 -63 54 -146q0 -107 -86 -181.5t-224 -74.5q-54 0 -104 13q-76 -53 -76 -131q0 -23 8.5 -41.5t27.5 -32t37 -22.5t50.5 -16.5t52.5 -11t58 -9.5zM373 774
q-63 0 -100 -41t-37 -127q0 -119 62 -189.5t146 -70.5q61 0 100.5 45.5t39.5 140.5q0 107 -63 174.5t-148 67.5zM436 -516q149 0 235.5 78t86.5 186q0 35 -11.5 63t-26.5 47.5t-46.5 36t-53 25.5t-66.5 18t-67 12t-72 10q-5 1 -7.5 1t-7 1t-7.5 1q-61 8 -88 14
q-73 -47 -113 -102t-40 -139q0 -116 76 -184t208 -68z" />
    <glyph glyph-name="h" unicode="h" horiz-adv-x="1021" 
d="M977 25q6 0 6 -12.5t-6 -12.5q-22 0 -84.5 2t-101.5 2t-102 -2t-85 -2q-6 0 -6 12.5t6 12.5q80 0 104.5 26.5t24.5 114.5v326q0 121 -46 179t-142 58q-64 0 -129 -33.5t-119 -93.5v-436q0 -88 24.5 -114.5t104.5 -26.5q6 0 6 -12.5t-6 -12.5q-22 0 -84.5 2t-101.5 2
t-102 -2t-85 -2q-6 0 -6 12.5t6 12.5q80 0 104.5 26.5t24.5 114.5v1059q0 74 -14.5 106.5t-50.5 32.5q-28 0 -94 -29q-5 -3 -10 2.5t-5.5 11.5t4.5 9l260 127h7q7 0 12.5 -5.5t5.5 -11.5v-831q150 174 315 174q114 0 175 -63t61 -185v-397q0 -88 24.5 -114.5t104.5 -26.5z
" />
    <glyph glyph-name="i" unicode="i" horiz-adv-x="559" 
d="M281 1049q-43 0 -67 22.5t-24 63.5t24 63.5t67 22.5q41 0 63.5 -22.5t22.5 -63.5t-22.5 -63.5t-63.5 -22.5zM109 0q-5 0 -5 12.5t5 12.5q80 0 105.5 27t25.5 114v383q0 74 -15.5 106.5t-52.5 32.5q-35 0 -92 -29q-9 -3 -13.5 8.5t1.5 16.5l266 123l8 2q5 0 10.5 -5
t5.5 -11q0 -7 -1 -41t-2 -88.5t-1 -112.5v-385q0 -88 24 -114.5t105 -26.5q6 0 6 -12.5t-6 -12.5q-22 0 -84.5 2t-101.5 2t-102 -2t-86 -2z" />
    <glyph glyph-name="j" unicode="j" horiz-adv-x="526" 
d="M262 1049q-43 0 -66.5 22.5t-23.5 63.5t23.5 63.5t66.5 22.5q41 0 63.5 -22.5t22.5 -63.5t-22.5 -63.5t-63.5 -22.5zM342 793q0 -7 -1 -41t-2 -88.5t-1 -112.5v-649q0 -205 -63.5 -311t-225.5 -169q-5 -2 -9.5 9t-0.5 14q100 42 141 137t41 273v694q0 74 -14 106.5
t-49 32.5q-36 0 -95 -29q-9 -3 -14.5 8.5t2.5 16.5l266 123q4 2 7 2q6 0 12 -5t6 -11z" />
    <glyph glyph-name="k" unicode="k" horiz-adv-x="1005" 
d="M989 25q6 0 6 -12.5t-6 -12.5q-22 0 -84.5 2t-101.5 2q-56 0 -133.5 -2t-102.5 -2q-5 0 -5 12.5t5 12.5q74 0 94 20t-10 64l-252 342l-102 -80v-205q0 -88 24.5 -114.5t104.5 -26.5q6 0 6 -12.5t-6 -12.5q-22 0 -84.5 2t-101.5 2t-102 -2t-85 -2q-6 0 -6 12.5t6 12.5
q80 0 104.5 26.5t24.5 114.5v1059q0 74 -14.5 106.5t-50.5 32.5q-28 0 -94 -29q-5 -3 -10 2.5t-5.5 11.5t4.5 9l256 125q6 2 11 2q6 0 12 -5.5t6 -11.5v-1065l274 222q79 63 64 102t-115 39q-6 0 -6 12.5t6 12.5q27 0 99.5 -2.5t134.5 -2.5q57 0 123 2.5t88 2.5q6 0 6 -12.5
t-6 -12.5q-75 0 -167.5 -37t-185.5 -111l-118 -94l260 -358q103 -141 235 -141z" />
    <glyph glyph-name="l" unicode="l" horiz-adv-x="528" 
d="M82 0q-6 0 -6 12.5t6 12.5q80 0 104.5 26.5t24.5 114.5v1059q0 73 -15 106t-51 33q-28 0 -94 -29q-5 -3 -9.5 2.5t-4.5 11.5t4 9l262 125q4 2 10 2q5 0 12 -5.5t7 -11.5v-1302q0 -87 23.5 -114t103.5 -27q6 0 6 -12.5t-6 -12.5q-20 0 -84.5 2t-104.5 2q-39 0 -102.5 -2
t-85.5 -2z" />
    <glyph glyph-name="m" unicode="m" horiz-adv-x="1562" 
d="M1520 25q6 0 6 -12.5t-6 -12.5q-22 0 -85 2t-102 2t-101.5 -2t-84.5 -2q-6 0 -6 12.5t6 12.5q80 0 104.5 26.5t24.5 114.5v326q0 122 -42.5 179.5t-133.5 57.5q-61 0 -124 -34t-116 -95q2 -10 2 -33v-401q0 -88 24 -114.5t105 -26.5q6 0 6 -12.5t-6 -12.5q-22 0 -84.5 2
t-101.5 2t-103 -2t-84 -2q-6 0 -6 12.5t6 12.5q79 0 103 26.5t24 114.5v326q0 122 -42.5 179.5t-131.5 57.5q-126 0 -235 -125v-438q0 -88 24 -114.5t103 -26.5q6 0 6 -12.5t-6 -12.5q-21 0 -83.5 2t-100.5 2q-39 0 -103 -2t-84 -2q-6 0 -6 12.5t6 12.5q79 0 103 26.5
t24 114.5v405q0 69 -16.5 100t-55.5 31q-32 0 -110 -30q-9 -3 -14 7.5t4 14.5l237 113q4 2 12 2q11 0 24.5 -18.5t24.5 -58.5t11 -91v-2q142 172 301 172q191 0 221 -180q147 180 309 180q108 0 167 -62t59 -186v-397q0 -89 23 -115t104 -26z" />
    <glyph glyph-name="n" unicode="n" horiz-adv-x="1058" 
d="M1014 25q6 0 6 -12.5t-6 -12.5q-21 0 -84 2t-101 2q-39 0 -102.5 -2t-83.5 -2q-6 0 -6 12.5t6 12.5q79 0 103 26.5t24 114.5v332q0 121 -45.5 178t-142.5 57q-63 0 -127.5 -33.5t-118.5 -93.5v-440q0 -88 24 -114.5t103 -26.5q6 0 6 -12.5t-6 -12.5q-21 0 -83.5 2
t-100.5 2q-39 0 -103 -2t-84 -2q-6 0 -6 12.5t6 12.5q79 0 103 26.5t24 114.5v405q0 69 -16.5 100t-55.5 31q-32 0 -110 -30q-9 -3 -14 7.5t4 14.5l237 113q4 2 12 2q11 0 24.5 -18.5t24.5 -58.5t11 -91q151 176 313 176q115 0 176.5 -64t61.5 -186v-401q0 -88 24 -114.5
t103 -26.5z" />
    <glyph glyph-name="o" unicode="o" horiz-adv-x="980" 
d="M473 -27q-118 0 -210.5 60.5t-140.5 158.5t-48 214q0 82 26.5 151t70 116t100.5 80.5t117.5 48.5t121.5 15q91 0 167 -36t125.5 -95.5t77 -134.5t27.5 -156q0 -189 -126.5 -305.5t-307.5 -116.5zM532 12q112 0 174 80t62 246q0 193 -91.5 316.5t-234.5 123.5
q-110 0 -170.5 -80t-60.5 -229q0 -192 90.5 -324.5t230.5 -132.5z" />
    <glyph glyph-name="p" unicode="p" horiz-adv-x="1046" 
d="M653 817q131 0 222.5 -102t91.5 -275q0 -95 -29 -175t-75 -132.5t-105 -89.5t-117.5 -53.5t-114.5 -16.5q-117 0 -217 54v-424q0 -88 38.5 -115t166.5 -27q4 0 4 -12t-4 -12q-33 0 -120.5 2t-139.5 2q-39 0 -103.5 -2t-84.5 -2q-6 0 -6 12t6 12q81 0 105 27t24 115v962
q0 73 -16.5 105t-57.5 32q-46 0 -109 -28q-9 -4 -14.5 6.5t2.5 15.5l227 109q4 2 15 2q29 0 47.5 -42.5t19.5 -123.5q173 176 344 176zM588 16q109 0 178.5 96t69.5 265q0 172 -75.5 267t-193.5 95q-72 0 -133 -34.5t-125 -98.5v-461q56 -63 121.5 -96t157.5 -33z" />
    <glyph glyph-name="q" unicode="q" horiz-adv-x="999" 
d="M969 -539q5 0 5 -12t-5 -12q-23 0 -87.5 2t-103.5 2q-42 0 -115 -2t-102 -2q-5 0 -5 12t5 12q101 0 131.5 27t30.5 115v544q-162 -174 -330 -174q-134 0 -226.5 101.5t-92.5 275.5q0 99 27 179.5t71.5 133t103 88t120 51t124.5 15.5q136 0 271 -72l137 50q5 3 9 -1.5
t3.5 -9.5t-4.5 -8q-50 -29 -74 -69t-24 -103v-1001q0 -88 24 -115t107 -27zM463 41q69 0 131.5 37.5t128.5 103.5v369q0 105 -74.5 166t-191.5 61q-248 0 -248 -360q0 -178 69.5 -277.5t184.5 -99.5z" />
    <glyph glyph-name="r" unicode="r" horiz-adv-x="745" 
d="M563 809q45 0 86 -25t41 -59q0 -28 -17.5 -45.5t-49.5 -17.5q-27 0 -65 30.5t-73 30.5q-27 0 -56 -21.5t-93 -95.5v-440q0 -88 37 -114.5t162 -26.5q7 0 7 -12.5t-7 -12.5q-29 0 -116.5 2t-139.5 2q-39 0 -103 -2t-84 -2q-6 0 -6 12.5t6 12.5q79 0 103 26.5t24 114.5v405
q0 69 -16.5 100t-55.5 31q-32 0 -110 -30q-9 -3 -14 7.5t4 14.5l237 113q4 2 12 2q11 0 24.5 -18.5t24.5 -58.5t11 -91v-2q84 97 133.5 133.5t93.5 36.5z" />
    <glyph glyph-name="s" unicode="s" horiz-adv-x="692" 
d="M205 666q0 -38 14.5 -68.5t46 -56t56 -40.5t69.5 -38q33 -17 44.5 -23t40.5 -23.5t41 -28t32 -30t28.5 -37.5t15.5 -43t7 -53q0 -104 -77.5 -176t-211.5 -72q-106 0 -196 62q-13 9 -13 24l-4 160q0 6 12 7t13 -5q38 -102 101 -155.5t145 -53.5q67 0 102.5 32.5t32.5 96.5
q-1 34 -13.5 62.5t-27 47.5t-44.5 39t-48.5 30t-55.5 28q-50 24 -76.5 39.5t-60.5 44t-49.5 66t-15.5 86.5q0 57 24 102t64 71.5t88.5 40t101.5 13.5q84 0 150 -31q18 -7 18 -22q0 -20 -2 -70t-2 -80q0 -4 -12.5 -4t-12.5 4q0 65 -68.5 114.5t-144.5 49.5q-53 0 -82.5 -27.5
t-29.5 -82.5z" />
    <glyph glyph-name="t" unicode="t" horiz-adv-x="692" 
d="M633 104q8 5 14.5 -4.5t-0.5 -15.5q-75 -59 -135.5 -84t-126.5 -25q-85 0 -141 39.5t-56 128.5v482q0 75 -17.5 93.5t-86.5 18.5q-8 0 -8 13.5t8 13.5q82 1 133 43.5t59 112.5q0 6 15.5 6t15.5 -6v-152q103 2 285 20q5 0 9.5 -15t4.5 -34q0 -10 -3.5 -22t-8.5 -20t-10 -7
q-111 30 -277 33v-510q0 -83 42 -124.5t120 -41.5q96 0 164 57z" />
    <glyph glyph-name="u" unicode="u" horiz-adv-x="1009" 
d="M993 117q9 3 14 -7.5t-3 -15.5l-240 -112q-4 -2 -8 -2q-12 0 -25 18.5t-23 59t-10 92.5v8q-157 -174 -325 -174q-103 0 -160 64.5t-57 187.5v313q0 80 -14.5 115.5t-47.5 35.5q-28 0 -69 -20q-5 -2 -9.5 4t-5 12t3.5 9l228 102q4 2 8 2q5 0 12.5 -5t7.5 -11v-490
q0 -237 172 -237q66 0 133 33.5t123 93.5v356q0 82 -13.5 116.5t-47.5 34.5q-29 0 -70 -20q-5 -2 -9.5 4t-4 12t5.5 9l227 102q4 2 7 2q6 0 13 -5t7 -11v-574q0 -69 17 -100t55 -31q32 0 108 29z" />
    <glyph glyph-name="v" unicode="v" horiz-adv-x="888" 
d="M883 791q5 0 5 -12.5t-5 -12.5q-53 0 -89 -33t-69 -117l-256 -614q-3 -9 -22.5 -9t-22.5 9l-287 619q-41 89 -69 117t-68 28q-6 0 -6 12.5t6 12.5q19 0 66.5 -2.5t74.5 -2.5q52 0 121.5 2.5t93.5 2.5q6 0 6 -12.5t-6 -12.5q-73 0 -104.5 -17t-9.5 -63l250 -528l192 469
q29 74 -5.5 106.5t-141.5 32.5q-5 0 -5 12.5t5 12.5q29 0 92 -2.5t114 -2.5q29 0 71.5 2.5t68.5 2.5z" />
    <glyph glyph-name="w" unicode="w" horiz-adv-x="1374" 
d="M1364 791q6 0 6 -12.5t-6 -12.5q-50 0 -85.5 -33.5t-70.5 -116.5l-256 -614q-3 -8 -22.5 -8t-22.5 8l-231 498l-207 -498q-3 -8 -22.5 -8t-22.5 8l-287 619q-41 89 -69 117t-68 28q-6 0 -6 12.5t6 12.5q19 0 66.5 -2.5t74.5 -2.5q46 0 115 2.5t96 2.5q6 0 6 -12.5
t-6 -12.5q-71 0 -101.5 -18t-8.5 -62l250 -528l161 391l-32 72q-40 88 -67.5 116.5t-66.5 28.5q-5 0 -5 12.5t5 12.5q19 0 66 -2.5t72 -2.5q51 0 119.5 2.5t91.5 2.5q6 0 6 -12.5t-6 -12.5q-69 0 -100.5 -18t-8.5 -62l248 -532l192 473q31 73 -4 106t-143 33q-4 0 -4 12.5
t4 12.5q30 0 93 -2.5t114 -2.5q31 0 72 2.5t65 2.5z" />
    <glyph glyph-name="x" unicode="x" horiz-adv-x="899" 
d="M874 25q4 0 4 -12.5t-4 -12.5q-20 0 -65 2t-66 2q-50 0 -119.5 -2t-93.5 -2q-6 0 -6 12.5t6 12.5q59 0 67 16t-24 63l-155 236l-123 -176q-25 -36 -34.5 -60t-4 -43t33.5 -27.5t81 -8.5q6 0 6 -12.5t-6 -12.5q-28 0 -91.5 2t-113.5 2q-30 0 -71.5 -2t-67.5 -2
q-5 0 -5 12.5t5 12.5q54 0 115.5 39t115.5 112l139 195l-166 250q-50 75 -103 110t-95 35q-5 0 -5 12.5t5 12.5q21 0 64 -2.5t63 -2.5q49 0 118.5 2.5t92.5 2.5q5 0 5 -12.5t-5 -12.5q-57 0 -65 -16.5t24 -63.5l141 -213l104 154q54 72 40.5 105.5t-115.5 33.5q-4 0 -4 12.5
t4 12.5q30 0 93 -2.5t114 -2.5q30 0 71.5 2.5t67.5 2.5q4 0 4 -12.5t-4 -12.5q-120 0 -232 -152l-125 -170l183 -274q51 -77 104.5 -111t97.5 -34z" />
    <glyph glyph-name="y" unicode="y" horiz-adv-x="890" 
d="M883 791q6 0 6 -12.5t-6 -12.5q-52 0 -89 -36.5t-69 -121.5l-250 -665q-111 -293 -209 -405.5t-233 -112.5q-46 0 -75.5 20t-29.5 59q0 29 19 45.5t45 16.5q40 0 81 -24.5t74 -24.5q73 0 140 102t166 365l-312 637q-46 90 -71.5 117.5t-63.5 27.5q-4 0 -4 12.5t4 12.5
q23 0 69.5 -2.5t67.5 -2.5q49 0 118.5 2.5t92.5 2.5q4 0 4 -12.5t-4 -12.5q-72 0 -101.5 -18t-6.5 -62l270 -555l164 471q31 92 -0.5 128t-140.5 36q-5 0 -5 12.5t5 12.5q29 0 92 -2.5t114 -2.5q31 0 72 2.5t66 2.5z" />
    <glyph glyph-name="z" unicode="z" horiz-adv-x="829" 
d="M86 25l489 725q8 14 -10 14q-233 0 -327.5 -35t-128.5 -147q-2 -8 -17 -2q-8 3 -6 6l70 264q2 7 18 3q6 -2 4 -5q-7 -34 14.5 -45.5t83.5 -11.5h435q8 0 13.5 -9t2.5 -16l-483 -721q-8 -14 10 -14q103 0 162 1.5t114.5 9.5t82.5 19.5t52.5 36.5t39 55t28.5 80q1 5 12 5
t11 -5l-4 -210q0 -8 -6 -15.5t-13 -7.5h-633q-8 0 -13 9t-1 16z" />
    <glyph glyph-name="braceleft" unicode="{" horiz-adv-x="591" 
d="M66 610q-6 0 -6 13.5t6 13.5q42 5 72.5 34.5t47 70t26.5 102t12.5 115t2.5 124.5q0 133 11 208.5t45.5 121t85.5 59t143 13.5q8 0 8 -12.5t-8 -12.5q-73 0 -113.5 -56.5t-42.5 -160.5q-6 -348 -39 -449.5t-186 -168.5q152 -68 185.5 -173t39.5 -450q2 -104 42.5 -160.5
t113.5 -56.5q8 0 8 -12.5t-8 -12.5q-62 0 -103.5 6t-75 23.5t-52.5 44t-32 74t-17.5 107.5t-4.5 149q0 72 -2.5 126t-12.5 115t-26.5 101.5t-47 69.5t-72.5 34z" />
    <glyph glyph-name="bar" unicode="|" horiz-adv-x="344" 
d="M135 -315v1812q0 13 40 13t40 -13v-1812q0 -15 -40 -15t-40 15z" />
    <glyph glyph-name="braceright" unicode="}" horiz-adv-x="579" 
d="M514 610q-42 -5 -72.5 -34t-47.5 -69.5t-26.5 -101.5t-12.5 -115t-3 -126q0 -89 -4.5 -149t-17 -107.5t-31.5 -74t-52.5 -44t-75 -23.5t-103.5 -6q-8 0 -8 12.5t8 12.5q73 0 113 56.5t42 160.5q2 130 4.5 191t10.5 138t21 110t38.5 73.5t61 63t90.5 47.5
q-153 68 -186.5 169.5t-39.5 448.5q-2 104 -42 160.5t-113 56.5q-8 0 -8 12.5t8 12.5q92 0 143 -13.5t85 -59t45 -121t11 -208.5q0 -70 3 -124t12.5 -115t26.5 -102t47.5 -70.5t72.5 -34.5q6 0 6 -13.5t-6 -13.5z" />
    <glyph glyph-name="asciitilde" unicode="~" horiz-adv-x="907" 
d="M641 406q41 0 73 13t46 26t37 38q2 2 4.5 2t5 -2t4 -4t2 -5t-1.5 -5q-72 -92 -117.5 -124t-99.5 -32q-58 0 -162 37t-166 37q-20 0 -37 -3t-27 -6t-24.5 -13t-19.5 -14t-22.5 -20.5t-22.5 -21.5q-1 -1 -3.5 -0.5t-5 2t-4.5 3.5t-2.5 5t0.5 5q117 155 232 155
q43 0 147 -36.5t164 -36.5z" />
    <glyph glyph-name="uni00A0" unicode="&#xa0;" horiz-adv-x="479" 
 />
    <glyph glyph-name="exclamdown" unicode="&#xa1;" horiz-adv-x="505" 
d="M262 748q40 0 65 -24.5t25 -64.5q0 -39 -25 -62.5t-65 -23.5q-42 0 -66 23t-24 63t24 64.5t66 24.5zM346 -545q1 -5 -13 -9t-36 -6.5t-45 -2.5q-70 0 -90 13q-4 2 -2 5q24 124 41.5 299t24 282t16.5 302q0 6 15 6t15 -6q22 -599 74 -883z" />
    <glyph glyph-name="cent" unicode="&#xa2;" horiz-adv-x="1101" 
d="M987 287q1 7 13 5.5t12 -7.5l-27 -217q-2 -18 -6.5 -24t-22.5 -13q-160 -56 -327 -56h-19v-184q0 -13 -22.5 -13t-22.5 13v186q-106 8 -191.5 44.5t-140 87.5t-91.5 116.5t-52.5 129.5t-15.5 128q0 196 139 335t352 161v170q0 15 22.5 15t22.5 -15v-166h27
q78 0 167 -15.5t144 -43.5q14 -6 18.5 -12.5t6.5 -22.5l20 -211q0 -6 -11.5 -7.5t-12.5 5.5q-36 136 -129 204.5t-230 71.5v-946q12 -2 39 -2q259 0 338 283zM221 514q0 -84 21.5 -165t62.5 -151t108.5 -120t151.5 -66v938q-152 -10 -248 -132t-96 -304z" />
    <glyph glyph-name="sterling" unicode="&#xa3;" horiz-adv-x="884" 
d="M754 254q0 3 6 3.5t12 -1t6 -4.5q-18 -103 -18 -221q0 -17 -7 -24t-24 -7h-666q-5 0 -5 12t5 13q106 27 144.5 71.5t36.5 124.5q0 105 -39 228h-96q-13 0 -13 22.5t13 22.5h81q-34 108 -34 186t28.5 137.5t78 95t110.5 53t131 17.5q94 0 184 -33q30 -9 33 -39l14 -206
q0 -9 -10.5 -9t-13.5 9q-9 47 -26.5 88t-45 79t-69.5 60t-93 22q-53 0 -92.5 -18t-61 -49t-32 -66.5t-10.5 -75.5q0 -20 1.5 -38.5t4.5 -39t5.5 -34.5t8.5 -37t9 -32.5t10.5 -36t9.5 -33.5h231q13 0 13 -22.5t-13 -22.5h-219q20 -78 20 -148q0 -78 -27 -127t-77 -88h256
q130 0 173.5 31t66.5 137z" />
    <glyph glyph-name="currency" unicode="&#xa4;" horiz-adv-x="847" 
d="M741 129l-57 -55l-98 112q-83 -53 -185 -53q-86 0 -151 43l-90 -102l-47 47l90 94q-78 81 -78 199q0 109 80 186l-103 102l58 52l104 -111q76 43 168 43t160 -47l102 109l45 -46l-100 -102q76 -79 76 -188q0 -106 -74 -183zM440 170q72 0 115 52t43 147
q0 113 -57.5 196.5t-155.5 83.5q-69 0 -109 -48.5t-40 -143.5q0 -70 20 -133t68.5 -108.5t115.5 -45.5z" />
    <glyph glyph-name="yen" unicode="&#xa5;" horiz-adv-x="985" 
d="M967 958q6 0 6 -12t-6 -12q-136 0 -246 -184l-168 -281v-33h211q14 0 14 -21.5t-14 -21.5h-553q-15 0 -15 21.5t15 21.5h215v4l-227 348q-54 81 -98 113.5t-107 32.5q-4 0 -4 12t4 12q21 0 67.5 -3t65.5 -3q54 0 143 3t115 3q6 0 6 -12t-6 -12q-128 0 -72 -88l224 -340
l141 246q48 83 31.5 132.5t-82.5 49.5q-6 0 -6 12t6 12q30 0 94 -3t117 -3q28 0 66.5 3t62.5 3zM764 313q14 0 14 -21.5t-14 -21.5h-211v-104q0 -48 5.5 -73t25.5 -41.5t52.5 -21.5t92.5 -5q5 0 5 -12.5t-5 -12.5q-29 0 -108.5 2t-131.5 2q-45 0 -127 -2t-114 -2
q-4 0 -4 12.5t4 12.5q114 0 146 25.5t32 115.5v104h-215q-15 0 -15 21.5t15 21.5h553z" />
    <glyph glyph-name="brokenbar" unicode="&#xa6;" horiz-adv-x="344" 
d="M135 737v760q0 13 40 13t40 -13v-760q0 -13 -40 -13t-40 13zM135 -315v757q0 15 40 15t40 -15v-757q0 -15 -40 -15t-40 15z" />
    <glyph glyph-name="section" unicode="&#xa7;" horiz-adv-x="903" 
d="M655 63q84 -77 84 -178q0 -68 -27 -121.5t-72 -85t-99 -47.5t-113 -16q-108 0 -180 37q-23 15 -23 35l-16 200q0 6 12 6t12 -6q14 -74 93 -149.5t176 -75.5q61 0 99 36.5t38 113.5q0 58 -27 107t-70.5 84t-96 68.5t-105 70t-96 78.5t-70.5 103.5t-27 135.5q0 78 29 136
t111 134q-76 76 -76 172q0 68 26.5 121t70.5 85t97.5 48t112.5 16q110 0 178 -38q23 -11 23 -33l16 -203q0 -5 -11.5 -5t-12.5 5q-5 34 -28.5 73t-58 73.5t-82.5 57.5t-98 23q-60 0 -97.5 -36t-37.5 -113q0 -58 26.5 -107t69 -84.5t94 -69t103 -70t94 -78.5t69 -103
t26.5 -135q0 -77 -28.5 -135.5t-107.5 -129.5zM248 528q0 -61 19.5 -114t48.5 -89t72.5 -72t82.5 -60t87.5 -56t78.5 -57q55 68 55 176q0 74 -25.5 134t-71.5 104t-91.5 76.5t-105 71.5t-93.5 69q-57 -67 -57 -183z" />
    <glyph glyph-name="dieresis" unicode="&#xa8;" horiz-adv-x="659" 
d="M152 979q-41 0 -65 22t-24 62t24 62t65 22q40 0 62 -22t22 -62t-22 -62t-62 -22zM510 979q-40 0 -64 22.5t-24 61.5t24 61.5t64 22.5q41 0 63.5 -22t22.5 -62t-22.5 -62t-63.5 -22z" />
    <glyph glyph-name="copyright" unicode="&#xa9;" horiz-adv-x="1472" 
d="M756 -209q-84 0 -168 23t-163 72t-139.5 118t-97 168.5t-36.5 216.5q0 137 55 256.5t146.5 200.5t212 127.5t249.5 46.5q115 0 212.5 -37.5t162.5 -101.5t101 -149t36 -179q0 -193 -146 -333t-358 -140q-94 0 -167 28t-115 74.5t-63 101.5t-21 115q0 80 31 147t82 109.5
t113 66t126 23.5q73 0 133.5 -29t61.5 -73q0 -25 -16 -42t-42 -17q-44 0 -74 53q-17 25 -28.5 37.5t-35 24.5t-54.5 12q-168 0 -168 -258q0 -67 16 -122.5t50.5 -101t95.5 -71t143 -25.5q69 0 131.5 22t113.5 65t81 113.5t30 160.5q0 199 -143 339t-352 140
q-160 0 -276.5 -73.5t-173 -193.5t-56.5 -270q0 -114 35 -211.5t92 -164t131.5 -114t153 -69.5t155.5 -22q119 0 208 19t196 75q2 1 5.5 -1.5t5 -6.5t-2.5 -7q-110 -83 -221 -113t-248 -30z" />
    <glyph glyph-name="ordfeminine" unicode="&#xaa;" horiz-adv-x="569" 
d="M553 834q7 3 12 -6.5t0 -12.5l-139 -65q-21 -9 -39 13t-22 71l-84 -46q-71 -40 -117 -40q-42 0 -67 22.5t-25 56.5q0 33 24.5 54.5t89.5 44.5l179 63v113q0 50 -7.5 82t-23 46t-30 18.5t-36.5 4.5q-39 0 -64.5 -29t-33.5 -75q-3 -15 -6 -23.5t-14 -17t-29 -8.5
q-21 0 -35 12.5t-14 30.5q0 47 91 97t161 50q53 0 85.5 -37t32.5 -110v-240q0 -69 24 -82.5t87 13.5zM274 811l91 47v111l-144 -58q-32 -13 -43.5 -23.5t-11.5 -31.5q0 -25 15.5 -41t41.5 -16q23 0 51 12zM530 643q9 0 9 -27.5t-9 -27.5h-458q-6 0 -8 14t-0.5 27.5t6.5 13.5
h460z" />
    <glyph glyph-name="guillemotleft" unicode="&#xab;" horiz-adv-x="933" 
d="M483 82l-362 305q-9 9 -9 23.5t9 23.5l362 305q2 3 6.5 2t7.5 -5t1 -7l-250 -317l250 -318q2 -7 -7 -13q-6 -3 -8 1zM795 82l-363 305q-9 9 -9 23.5t9 23.5l363 305q3 4 7.5 2.5t6.5 -5.5t0 -7l-250 -317l250 -318q2 -3 -0.5 -7.5t-6.5 -6t-7 1.5z" />
    <glyph glyph-name="logicalnot" unicode="&#xac;" horiz-adv-x="808" 
d="M745 549v-391q0 -6 -20.5 -8t-40.5 -0.5t-20 6.5v311h-594q-6 0 -8 20.5t-0.5 41t6.5 20.5h677z" />
    <glyph glyph-name="uni00AD" unicode="&#xad;" horiz-adv-x="661" 
d="M66 338q-6 -1 -8.5 20t-1.5 43t5 23l535 96q6 1 8 -20t0 -43t-8 -23z" />
    <glyph glyph-name="registered" unicode="&#xae;" horiz-adv-x="1536" 
d="M809 1485q172 0 306 -77t204 -204t70 -280q0 -176 -86 -324t-232.5 -232.5t-318.5 -84.5q-110 0 -216 40t-192 112.5t-139 188t-53 253.5q0 131 54.5 245.5t145 193t210 124t247.5 45.5zM809 340q229 0 364.5 142.5t135.5 381.5q0 122 -43 228.5t-117.5 182.5t-180 119.5
t-225.5 43.5q-121 0 -218.5 -41.5t-158.5 -112.5t-93.5 -161.5t-32.5 -192.5q0 -111 33.5 -208t90 -165.5t130 -118.5t154 -74t161.5 -24zM1155 573q3 0 3 -8t-3 -8h-162q-20 0 -69 82t-136 252q-46 -11 -112 -8v-211q0 -61 18 -76.5t86 -15.5q4 0 4 -11.5t-4 -11.5
q-17 0 -66 1t-81 1q-25 0 -78 -1t-68 -1q-5 0 -5 11.5t5 11.5q68 0 85.5 15.5t17.5 76.5v440q0 57 -18.5 73.5t-84.5 16.5q-5 0 -5 12.5t5 12.5q19 0 70 -1t76 -1q26 0 86 4t82 4q186 0 186 -135q0 -122 -113 -180q32 -63 49 -95t41 -75.5t38.5 -63.5t34.5 -45t37 -35.5
t37.5 -19t43.5 -11.5zM676 918q113 -14 166 14.5t53 118.5q0 155 -129 155q-30 0 -43.5 -2t-26 -11.5t-16.5 -29.5t-4 -55v-190z" />
    <glyph glyph-name="macron" unicode="&#xaf;" horiz-adv-x="706" 
d="M96 989q-12 0 -12 29t12 29h514q12 0 12 -29t-12 -29h-514z" />
    <glyph glyph-name="degree" unicode="&#xb0;" horiz-adv-x="679" 
d="M342 764q-126 0 -204.5 76t-78.5 190q0 108 79 184t204 76t202 -75.5t77 -188.5q0 -112 -77.5 -187t-201.5 -75zM356 788q38 0 65 11.5t43 29.5t24.5 48.5t11 60.5t2.5 74q0 129 -42 192.5t-130 63.5q-46 0 -76.5 -17t-46 -50.5t-21.5 -72t-6 -92.5q0 -117 39.5 -182.5
t136.5 -65.5z" />
    <glyph glyph-name="plusminus" unicode="&#xb1;" horiz-adv-x="815" 
d="M70 477q-6 0 -8 20t-0.5 40t6.5 20h299v299q0 8 41 8t41 -8v-299h296q9 0 9 -40t-9 -40h-296v-297q0 -6 -20.5 -8t-41 -0.5t-20.5 6.5v299h-297zM745 76q9 0 9 -37t-9 -37h-675q-6 0 -8 18.5t-0.5 37t6.5 18.5h677z" />
    <glyph glyph-name="uni00B2" unicode="&#xb2;" horiz-adv-x="514" 
d="M63 836q15 50 59 118t86.5 123.5t76.5 125t34 126.5t-27.5 89t-74.5 32q-49 0 -86 -34t-49 -85q-1 -4 -7.5 -4.5t-12.5 2.5t-5 8q50 156 197 156q80 0 122 -41t42 -104q0 -42 -25 -91.5t-63.5 -95.5t-78 -89.5t-74 -88t-46.5 -76.5q0 -6 6 -6q73 0 109.5 0.5t73.5 5
t50.5 9.5t28.5 20.5t20 30t13 45.5q0 3 7 3t7 -3l-2 -178q0 -11 -8 -11h-366q-11 0 -7 13z" />
    <glyph glyph-name="uni00B3" unicode="&#xb3;" horiz-adv-x="514" 
d="M285 1174q159 -35 159 -160q0 -82 -55.5 -142.5t-152.5 -60.5q-79 0 -126 39t-63 102q-1 5 5 8.5t12.5 3t7.5 -5.5q13 -43 50.5 -75.5t98.5 -32.5q125 0 125 141q0 76 -42.5 121t-110.5 45q-6 0 -5.5 12.5t5.5 12.5q60 0 93 45.5t33 101.5q0 52 -28.5 85.5t-77.5 33.5
q-45 0 -81.5 -34.5t-47.5 -82.5q-2 -4 -8.5 -4.5t-12 2.5t-4.5 8q42 156 193 156q76 0 121 -42t45 -105q0 -57 -36.5 -103.5t-96.5 -68.5z" />
    <glyph glyph-name="acute" unicode="&#xb4;" horiz-adv-x="434" 
d="M141 971q-1 -4 -7 -4t-11 2.5t-4 5.5l106 491q5 13 72 26q57 10 53 -3z" />
    <glyph glyph-name="paragraph" unicode="&#xb6;" horiz-adv-x="1308" 
d="M680 -395q-53 0 -87 25.5t-34 62.5q0 31 17 50t47 19q28 0 44.5 -11.5t24 -28l15 -33t24 -28t43.5 -11.5q57 0 81 83.5t24 282.5v240q-73 -6 -162 -6t-172 16.5t-163 57t-139.5 100.5t-95.5 154.5t-36 212.5q0 243 146 369t405 126q42 0 141.5 -6t163.5 -6q39 0 115.5 3
t109.5 3q4 0 4 -12.5t-4 -12.5q-89 0 -135.5 -42.5t-46.5 -122.5l2 -977q0 -266 -78 -387t-254 -121z" />
    <glyph glyph-name="periodcentered" unicode="&#xb7;" horiz-adv-x="399" 
d="M199 322q-40 0 -65 24t-25 64q0 39 25 62.5t65 23.5q42 0 66 -23t24 -63t-24 -64t-66 -24z" />
    <glyph glyph-name="cedilla" unicode="&#xb8;" horiz-adv-x="475" 
d="M233 -4q-12 -40 -18.5 -61.5t-6.5 -43.5t1.5 -30.5t17 -23t27 -21.5t43.5 -25q111 -64 111 -158q0 -76 -54 -136t-159 -60q-58 0 -95 20.5t-37 57.5q0 27 18 44t44 17q25 0 40 -15.5t21.5 -33.5t25 -33.5t48.5 -15.5q70 0 70 78q0 54 -38 95t-138 95q-27 13 -29.5 22.5
t10.5 38.5q18 43 72 191z" />
    <glyph glyph-name="uni00B9" unicode="&#xb9;" horiz-adv-x="536" 
d="M96 823q-4 0 -4 12.5t4 12.5q96 0 118 22t22 119v242q0 118 -5 138q-8 31 -42 25q-26 -4 -107 -40q-5 -2 -10 3t-5.5 10.5t3.5 8.5l235 113q7 4 14 -1.5t7 -12.5v-486q0 -97 20.5 -119t110.5 -22q6 0 6 -12.5t-6 -12.5q-21 0 -79 3t-95 3q-38 0 -101.5 -3t-85.5 -3z" />
    <glyph glyph-name="ordmasculine" unicode="&#xba;" horiz-adv-x="645" 
d="M313 735q-117 0 -188.5 83t-71.5 202q0 66 26 119.5t68.5 85t91.5 48.5t99 17q116 0 187 -82t71 -194q0 -116 -84 -197.5t-199 -81.5zM344 766q74 0 118 56.5t44 154.5q0 118 -58.5 199t-148.5 81q-74 0 -115 -51.5t-41 -146.5q0 -118 57.5 -205.5t143.5 -87.5zM76 588
q-6 0 -8 14t-0.5 27.5t6.5 13.5h497q9 0 9 -27.5t-9 -27.5h-495z" />
    <glyph glyph-name="guillemotright" unicode="&#xbb;" horiz-adv-x="933" 
d="M139 739l363 -305q9 -9 9 -23.5t-9 -23.5l-363 -305q-4 -7 -11 1q-5 6 -3 11l250 316l-250 319q-2 5 6 11q6 2 8 -1zM451 739l362 -305q9 -9 9 -23.5t-9 -23.5l-362 -305q-4 -8 -13 2q-3 6 -2 10l250 316l-250 319q-1 2 2 6t7 5.5t6 -1.5z" />
    <glyph glyph-name="onequarter" unicode="&#xbc;" horiz-adv-x="1228" 
d="M457 655q6 0 6 -11t-6 -11q-21 0 -79 2t-95 2q-38 0 -101.5 -2t-85.5 -2q-4 0 -4 11t4 11q95 0 117.5 22.5t22.5 119.5v243q0 117 -5 137q-8 31 -42 25q-26 -4 -107 -41q-5 -2 -10 3t-5.5 11t3.5 9l235 114q7 3 14 -3t7 -11v-487q0 -97 20.5 -119.5t110.5 -22.5z
M899 1284q4 3 15 0t23 -9t11 -9l-573 -1266q-1 -4 -13.5 0t-24.5 10.5t-11 9.5zM1171 180q-58 4 -90 4v-100q0 -40 13.5 -50.5t76.5 -10.5q1 0 1 -12.5t-1 -12.5q-17 0 -56 1t-68 1q-33 0 -86 -1t-74 -1q-3 0 -3 12.5t3 12.5q73 0 91.5 10t18.5 51v104q-175 5 -256 5
q-5 0 -8.5 4.5t0.5 7.5l322 457q3 5 14.5 3t11.5 -8v-426q7 0 90 5q6 0 6 -28t-6 -28zM815 223q84 0 182 4v305l-186 -303q-6 -6 4 -6z" />
    <glyph glyph-name="onehalf" unicode="&#xbd;" horiz-adv-x="1249" 
d="M96 633q-4 0 -4 11t4 11q95 0 117.5 22.5t22.5 119.5v243q0 117 -5 137q-8 31 -42 25q-26 -4 -107 -41q-5 -2 -10 3t-5.5 11t3.5 9l235 114q7 3 14 -3t7 -11v-487q0 -97 20.5 -119.5t110.5 -22.5q6 0 6 -11t-6 -11q-21 0 -79 2t-95 2q-38 0 -101.5 -2t-85.5 -2zM375 0
q-1 -4 -13.5 0t-24.5 10.5t-11 9.5l573 1264q4 3 15 0t23 -9t11 -9zM799 12q15 50 59 118t86.5 123.5t76.5 125t34 127.5q0 56 -28 86.5t-75 30.5q-50 0 -86.5 -32t-48.5 -83q-1 -5 -7.5 -5.5t-12 2.5t-4.5 7q23 72 68.5 114t127.5 42q80 0 122 -40.5t42 -105.5
q0 -42 -25 -91.5t-63.5 -95t-78 -88.5t-74 -87t-46.5 -76q0 -6 6 -6q73 0 109.5 0.5t73.5 5t50.5 9t28.5 19.5t20 29.5t13 44.5q0 3 7.5 3t7.5 -3l-2 -176q0 -10 -9 -10h-366q-9 0 -6 12z" />
    <glyph glyph-name="threequarters" unicode="&#xbe;" horiz-adv-x="1206" 
d="M444 821q0 -81 -55.5 -140.5t-152.5 -59.5q-79 0 -126 38.5t-63 102.5q-1 5 5 8t12.5 2t7.5 -6q13 -43 50.5 -76t98.5 -33q55 0 90 33.5t35 106.5q0 77 -42.5 122.5t-110.5 45.5q-6 0 -5.5 12t5.5 12q60 0 93 46t33 102q0 52 -28.5 85t-77.5 33q-45 0 -81.5 -33.5
t-47.5 -80.5q-2 -5 -8.5 -6t-12 2t-4.5 8q19 69 66.5 112t126.5 43q76 0 121 -41.5t45 -105.5q0 -56 -37.5 -103t-95.5 -69q159 -32 159 -160zM877 1284q4 3 15 0t23 -9t11 -9l-574 -1266q-1 -4 -13.5 0t-24.5 10.5t-11 9.5zM1149 180q-58 4 -90 4v-100q0 -40 13.5 -50.5
t76.5 -10.5q1 0 1 -12.5t-1 -12.5q-17 0 -57 1t-68 1q-32 0 -86 -1t-74 -1q-3 0 -3 12.5t3 12.5q73 0 92 10t19 51v104q-175 5 -256 5q-5 0 -8.5 4.5t0.5 7.5l321 457q3 5 15 3t12 -8v-426q7 0 90 5q6 0 6 -28t-6 -28zM793 223q84 0 182 4v305l-187 -303q-6 -6 5 -6z" />
    <glyph glyph-name="questiondown" unicode="&#xbf;" horiz-adv-x="669" 
d="M369 739q40 0 65 -24t25 -64q0 -39 -25 -62.5t-65 -23.5q-42 0 -66 23t-24 63t24 64t66 24zM344 -537q26 0 44 8t26.5 24t12 30t5.5 35q5 26 11.5 43.5t24 32t44.5 14.5q33 0 51.5 -21.5t18.5 -48.5q0 -59 -71.5 -101t-172.5 -42q-121 0 -200 63.5t-79 182.5q0 20 3 39
t5.5 33.5t12 32.5t13.5 27.5t18 27.5t18 24t22 24.5t20.5 21t23.5 22t22 20.5q71 70 100 126.5t29 127.5q0 45 -12 113q-1 4 4.5 6.5t12 2t7.5 -4.5q24 -54 39 -126t15 -118t-15.5 -85t-39 -64t-51 -54.5t-51 -56.5t-39 -69.5t-15.5 -94.5q0 -87 40 -141t103 -54z" />
    <glyph glyph-name="Agrave" unicode="&#xc0;" 
d="M444 1548q-17 3 23 23q63 32 101 36l10 -1q260 -158 331 -195q9 -3 3 -15q-4 -9 -11 -5q-230 101 -457 157zM1432 25q8 0 8 -12.5t-8 -12.5q-39 0 -120.5 4t-119.5 4q-44 0 -111 -4t-104 -4q-9 0 -9 12.5t9 12.5q110 0 134.5 31t-15.5 120l-236 502h-387l-176 -418
q-50 -126 -8 -180.5t180 -54.5q9 0 9 -12.5t-9 -12.5q-38 0 -112.5 4t-129.5 4q-51 0 -118 -4t-107 -4q-9 0 -9 12.5t9 12.5q84 0 136 51.5t116 202.5l432 1019q3 6 14.5 6t12.5 -6l483 -1017q69 -151 119 -203.5t117 -52.5zM492 721h348l-185 389z" />
    <glyph glyph-name="Aacute" unicode="&#xc1;" 
d="M500 1391q-6 -3 -10 1.5t-4 10t3 8.5q75 39 194.5 111.5t139.5 83.5q15 8 89 -25q50 -22 47 -31q-1 -1 -5 -2q-220 -55 -454 -157zM1432 25q8 0 8 -12.5t-8 -12.5q-39 0 -120.5 4t-119.5 4q-44 0 -111 -4t-104 -4q-9 0 -9 12.5t9 12.5q110 0 134.5 31t-15.5 120l-236 502
h-387l-176 -418q-50 -126 -8 -180.5t180 -54.5q9 0 9 -12.5t-9 -12.5q-38 0 -112.5 4t-129.5 4q-51 0 -118 -4t-107 -4q-9 0 -9 12.5t9 12.5q84 0 136 51.5t116 202.5l432 1019q3 6 14.5 6t12.5 -6l483 -1017q69 -151 119 -203.5t117 -52.5zM492 721h348l-185 389z" />
    <glyph glyph-name="Acircumflex" unicode="&#xc2;" 
d="M475 1327q-2 -1 -6 2t-6 6.5t0 5.5l211 199q9 9 23.5 9t23.5 -9l209 -199q3 -2 2 -6t-5 -7t-7 -1l-222 117zM1432 25q8 0 8 -12.5t-8 -12.5q-39 0 -120.5 4t-119.5 4q-44 0 -111 -4t-104 -4q-9 0 -9 12.5t9 12.5q110 0 134.5 31t-15.5 120l-236 502h-387l-176 -418
q-50 -126 -8 -180.5t180 -54.5q9 0 9 -12.5t-9 -12.5q-38 0 -112.5 4t-129.5 4q-51 0 -118 -4t-107 -4q-9 0 -9 12.5t9 12.5q84 0 136 51.5t116 202.5l432 1019q3 6 14.5 6t12.5 -6l483 -1017q69 -151 119 -203.5t117 -52.5zM492 721h348l-185 389z" />
    <glyph glyph-name="Atilde" unicode="&#xc3;" 
d="M442 1427q-5 -3 -11.5 4t-2.5 11q33 49 79.5 89t94.5 40q30 0 116 -25.5t140 -25.5q35 0 56.5 13.5t43.5 41.5q5 3 12 -2.5t3 -11.5q-53 -75 -88 -101t-74 -26q-44 0 -129.5 24.5t-136.5 24.5q-14 0 -26 -2.5t-19.5 -5t-17 -10t-13 -11l-14 -14zM1432 25q8 0 8 -12.5
t-8 -12.5q-39 0 -120.5 4t-119.5 4q-44 0 -111 -4t-104 -4q-9 0 -9 12.5t9 12.5q110 0 134.5 31t-15.5 120l-236 502h-387l-176 -418q-50 -126 -8 -180.5t180 -54.5q9 0 9 -12.5t-9 -12.5q-38 0 -112.5 4t-129.5 4q-51 0 -118 -4t-107 -4q-9 0 -9 12.5t9 12.5q84 0 136 51.5
t116 202.5l432 1019q3 6 14.5 6t12.5 -6l483 -1017q69 -151 119 -203.5t117 -52.5zM492 721h348l-185 389z" />
    <glyph glyph-name="Adieresis" unicode="&#xc4;" 
d="M520 1468q-41 0 -64.5 22t-23.5 62t23.5 62t64.5 22q40 0 62 -22t22 -62t-22 -62t-62 -22zM879 1468q-40 0 -64 22.5t-24 61.5t24 61.5t64 22.5q41 0 63.5 -22t22.5 -62t-22.5 -62t-63.5 -22zM1432 25q8 0 8 -12.5t-8 -12.5q-39 0 -120.5 4t-119.5 4q-44 0 -111 -4
t-104 -4q-9 0 -9 12.5t9 12.5q110 0 134.5 31t-15.5 120l-236 502h-387l-176 -418q-50 -126 -8 -180.5t180 -54.5q9 0 9 -12.5t-9 -12.5q-38 0 -112.5 4t-129.5 4q-51 0 -118 -4t-107 -4q-9 0 -9 12.5t9 12.5q84 0 136 51.5t116 202.5l432 1019q3 6 14.5 6t12.5 -6
l483 -1017q69 -151 119 -203.5t117 -52.5zM492 721h348l-185 389z" />
    <glyph glyph-name="Aring" unicode="&#xc5;" 
d="M688 1360q-81 0 -130.5 49t-49.5 115q0 73 62 115t139 42q74 0 127 -47t53 -114q0 -71 -62 -115.5t-139 -44.5zM668 1661q-68 0 -68 -96q0 -70 32.5 -126.5t86.5 -56.5q76 0 76 101q0 72 -37 125t-90 53zM1432 25q8 0 8 -12.5t-8 -12.5q-39 0 -120.5 4t-119.5 4
q-44 0 -111 -4t-104 -4q-9 0 -9 12.5t9 12.5q110 0 134.5 31t-15.5 120l-236 502h-387l-176 -418q-50 -126 -8 -180.5t180 -54.5q9 0 9 -12.5t-9 -12.5q-38 0 -112.5 4t-129.5 4q-51 0 -118 -4t-107 -4q-9 0 -9 12.5t9 12.5q84 0 136 51.5t116 202.5l432 1019q3 6 14.5 6
t12.5 -6l483 -1017q69 -151 119 -203.5t117 -52.5zM492 721h348l-185 389z" />
    <glyph glyph-name="AE" unicode="&#xc6;" horiz-adv-x="1789" 
d="M1665 305q0 4 6.5 4.5t12.5 -2t6 -6.5q-19 -137 -19 -270q0 -17 -7 -24t-26 -7h-835q-5 0 -5 12.5t5 12.5q110 0 142 26t32 115v479h-352l-265 -387q-158 -233 99 -233q9 0 9 -12.5t-9 -12.5q-40 0 -117.5 4t-134.5 4q-47 0 -106.5 -4t-94.5 -4q-9 0 -9 12.5t9 12.5
q63 0 141.5 63.5t159.5 181.5l621 906q34 48 23 61q-12 17 -119 18h-35q-5 0 -5 12.5t5 12.5h807q18 0 18 -18l4 -252q0 -4 -5.5 -6t-11 -1t-5.5 5q-5 97 -67 163t-153 66h-112q-101 0 -132.5 -24t-31.5 -101v-424h229q100 0 142.5 33t42.5 110q0 5 12 5t12 -5q0 -45 -1 -94
t-1 -71q0 -31 2 -92t2 -97q0 -5 -12 -5t-12 5q0 90 -44.5 129t-146.5 39h-225v-471q0 -80 30.5 -105.5t129.5 -25.5h149q89 0 158.5 73t89.5 189zM653 688h324v473z" />
    <glyph glyph-name="Ccedilla" unicode="&#xc7;" horiz-adv-x="1370" 
d="M1257 334q1 7 13 5t12 -7l-29 -232q-5 -26 -9.5 -33t-22.5 -14q-186 -78 -390 -78h-40q-10 -33 -15.5 -53t-4.5 -38.5t3 -26.5t17.5 -21.5t26.5 -20t42 -24.5q111 -64 111 -158q0 -76 -54 -136t-159 -60q-58 0 -94.5 20.5t-36.5 57.5q0 27 18 44t43 17q24 0 39.5 -15.5
t22 -33.5t25 -33.5t48.5 -15.5q70 0 70 78q0 54 -38 95t-138 95q-27 13 -29.5 22.5t10.5 38.5q27 66 64 170q-137 9 -249.5 53t-187.5 110.5t-127 152t-75 175.5t-23 183q0 114 40.5 217.5t112 181.5t165.5 135.5t205 87.5t227 30q99 0 199 -19t159 -53q18 -9 23.5 -18
t7.5 -31l23 -230q0 -5 -11 -7t-12 5q-44 158 -167 232.5t-302 74.5q-236 0 -376 -150t-140 -400q0 -191 79 -353t213 -256t290 -94q147 0 255 81.5t166 248.5z" />
    <glyph glyph-name="Egrave" unicode="&#xc8;" horiz-adv-x="1099" 
d="M344 1548q-18 3 24 24q65 33 100 35q6 0 9 -1q20 -12 75.5 -46t85.5 -52t78.5 -46t92.5 -51q9 -3 3 -15q-4 -9 -11 -5q-230 101 -457 157zM973 305q1 6 12.5 4t11.5 -8q-18 -130 -18 -270q0 -17 -7 -24t-26 -7h-858q-4 0 -4 12.5t4 12.5q112 0 144 25.5t32 115.5v948
q0 88 -32 114.5t-144 26.5q-4 0 -4 12.5t4 12.5h823q19 0 19 -18l4 -252q0 -6 -11 -7t-12 5q-6 108 -65.5 168.5t-157.5 60.5h-125q-103 0 -134.5 -25.5t-31.5 -107.5v-416h250q98 0 140 33t42 110q0 5 12.5 5t12.5 -5q0 -45 -1 -94t-1 -71q0 -31 2 -92t2 -97q0 -5 -12.5 -5
t-12.5 5q0 90 -44 129t-146 39h-244v-471q0 -82 30 -106.5t130 -24.5h164q97 0 163.5 70t88.5 192z" />
    <glyph glyph-name="Eacute" unicode="&#xc9;" horiz-adv-x="1099" 
d="M399 1391q-9 -4 -13 6.5t3 13.5q75 39 194.5 111.5t139.5 83.5q15 8 89 -25q50 -22 47 -31q-1 -1 -5 -2q-223 -55 -455 -157zM973 305q1 6 12.5 4t11.5 -8q-18 -130 -18 -270q0 -17 -7 -24t-26 -7h-858q-4 0 -4 12.5t4 12.5q112 0 144 25.5t32 115.5v948q0 88 -32 114.5
t-144 26.5q-4 0 -4 12.5t4 12.5h823q19 0 19 -18l4 -252q0 -6 -11 -7t-12 5q-6 108 -65.5 168.5t-157.5 60.5h-125q-103 0 -134.5 -25.5t-31.5 -107.5v-416h250q98 0 140 33t42 110q0 5 12.5 5t12.5 -5q0 -45 -1 -94t-1 -71q0 -31 2 -92t2 -97q0 -5 -12.5 -5t-12.5 5
q0 90 -44 129t-146 39h-244v-471q0 -82 30 -106.5t130 -24.5h164q97 0 163.5 70t88.5 192z" />
    <glyph glyph-name="Ecircumflex" unicode="&#xca;" horiz-adv-x="1099" 
d="M377 1403q-2 -1 -6 2t-6 6.5t0 5.5l210 201q9 9 24 9t24 -9l208 -201q3 -2 2 -6t-5 -7t-7 -1l-221 119zM973 305q1 6 12.5 4t11.5 -8q-18 -130 -18 -270q0 -17 -7 -24t-26 -7h-858q-4 0 -4 12.5t4 12.5q112 0 144 25.5t32 115.5v948q0 88 -32 114.5t-144 26.5
q-4 0 -4 12.5t4 12.5h823q19 0 19 -18l4 -252q0 -6 -11 -7t-12 5q-6 108 -65.5 168.5t-157.5 60.5h-125q-103 0 -134.5 -25.5t-31.5 -107.5v-416h250q98 0 140 33t42 110q0 5 12.5 5t12.5 -5q0 -45 -1 -94t-1 -71q0 -31 2 -92t2 -97q0 -5 -12.5 -5t-12.5 5q0 90 -44 129
t-146 39h-244v-471q0 -82 30 -106.5t130 -24.5h164q97 0 163.5 70t88.5 192z" />
    <glyph glyph-name="Edieresis" unicode="&#xcb;" horiz-adv-x="1099" 
d="M420 1468q-41 0 -64.5 22t-23.5 62t23.5 62t64.5 22q40 0 62 -22t22 -62t-22 -62t-62 -22zM778 1468q-40 0 -64 22.5t-24 61.5t24 61.5t64 22.5q41 0 63.5 -22t22.5 -62t-22.5 -62t-63.5 -22zM973 305q1 6 12.5 4t11.5 -8q-18 -130 -18 -270q0 -17 -7 -24t-26 -7h-858
q-4 0 -4 12.5t4 12.5q112 0 144 25.5t32 115.5v948q0 88 -32 114.5t-144 26.5q-4 0 -4 12.5t4 12.5h823q19 0 19 -18l4 -252q0 -6 -11 -7t-12 5q-6 108 -65.5 168.5t-157.5 60.5h-125q-103 0 -134.5 -25.5t-31.5 -107.5v-416h250q98 0 140 33t42 110q0 5 12.5 5t12.5 -5
q0 -45 -1 -94t-1 -71q0 -31 2 -92t2 -97q0 -5 -12.5 -5t-12.5 5q0 90 -44 129t-146 39h-244v-471q0 -82 30 -106.5t130 -24.5h164q97 0 163.5 70t88.5 192z" />
    <glyph glyph-name="Igrave" unicode="&#xcc;" horiz-adv-x="679" 
d="M543 1391q-230 101 -457 157q-18 3 24 24q65 33 100 35q6 0 9 -1q20 -12 75.5 -46t85.5 -52t78.5 -46t92.5 -51q9 -3 3 -15q-4 -9 -11 -5zM408 166q0 -90 31 -115.5t143 -25.5q6 0 6 -12.5t-6 -12.5q-29 0 -110 2t-134 2q-49 0 -130.5 -2t-111.5 -2q-6 0 -6 12.5t6 12.5
q112 0 144 25.5t32 115.5v948q0 88 -32 114.5t-144 26.5q-6 0 -6 12.5t6 12.5q30 0 111.5 -3t130.5 -3q53 0 135 3t109 3q6 0 6 -12.5t-6 -12.5q-109 0 -141.5 -28t-32.5 -117v-944z" />
    <glyph glyph-name="Iacute" unicode="&#xcd;" horiz-adv-x="679" 
d="M141 1391q-9 -4 -13 6.5t3 13.5q75 39 194.5 111.5t139.5 83.5q15 8 89 -25q50 -22 47 -31q-1 -1 -5 -2q-223 -55 -455 -157zM408 166q0 -90 31 -115.5t143 -25.5q6 0 6 -12.5t-6 -12.5q-29 0 -110 2t-134 2q-49 0 -130.5 -2t-111.5 -2q-6 0 -6 12.5t6 12.5
q112 0 144 25.5t32 115.5v948q0 88 -32 114.5t-144 26.5q-6 0 -6 12.5t6 12.5q30 0 111.5 -3t130.5 -3q53 0 135 3t109 3q6 0 6 -12.5t-6 -12.5q-109 0 -141.5 -28t-32.5 -117v-944z" />
    <glyph glyph-name="Icircumflex" unicode="&#xce;" horiz-adv-x="679" 
d="M106 1417l211 201q9 9 24 9t24 -9l208 -201q3 -2 2 -6t-5 -7t-7 -1l-221 119l-223 -119q-2 -1 -6.5 2t-6.5 6.5t0 5.5zM408 166q0 -90 31 -115.5t143 -25.5q6 0 6 -12.5t-6 -12.5q-29 0 -110 2t-134 2q-49 0 -130.5 -2t-111.5 -2q-6 0 -6 12.5t6 12.5q112 0 144 25.5
t32 115.5v948q0 88 -32 114.5t-144 26.5q-6 0 -6 12.5t6 12.5q30 0 111.5 -3t130.5 -3q53 0 135 3t109 3q6 0 6 -12.5t-6 -12.5q-109 0 -141.5 -28t-32.5 -117v-944z" />
    <glyph glyph-name="Idieresis" unicode="&#xcf;" horiz-adv-x="679" 
d="M195 1468q-40 0 -64.5 22.5t-24.5 61.5t24.5 61.5t64.5 22.5t63 -22t23 -62t-23 -62t-63 -22zM487 1468q-41 0 -64.5 22t-23.5 62t23.5 62t64.5 22q40 0 62 -22t22 -62t-22 -62t-62 -22zM408 166q0 -90 31 -115.5t143 -25.5q6 0 6 -12.5t-6 -12.5q-29 0 -110 2t-134 2
q-49 0 -130.5 -2t-111.5 -2q-6 0 -6 12.5t6 12.5q112 0 144 25.5t32 115.5v948q0 88 -32 114.5t-144 26.5q-6 0 -6 12.5t6 12.5q30 0 111.5 -3t130.5 -3q53 0 135 3t109 3q6 0 6 -12.5t-6 -12.5q-109 0 -141.5 -28t-32.5 -117v-944z" />
    <glyph glyph-name="Eth" unicode="&#xd0;" horiz-adv-x="1415" 
d="M592 1284q160 0 295.5 -48t229 -131t146 -197.5t52.5 -245.5q0 -150 -55.5 -277t-150 -212.5t-221 -133t-267.5 -47.5q-37 0 -147 6t-161 6q-48 0 -129.5 -2t-111.5 -2q-4 0 -4 12.5t4 12.5q112 0 144 25.5t32 115.5v450h-139q-9 0 -9 20.5t9 20.5h139v457
q0 89 -31.5 115t-142.5 26q-4 0 -4 12.5t4 12.5q31 0 111 -3t128 -3q47 0 145.5 5t133.5 5zM600 23q251 0 405 155.5t154 437.5q0 178 -66.5 322.5t-192.5 229.5t-290 85q-131 0 -180 -27t-49 -116v-453h278q7 0 7 -20.5t-7 -20.5h-278v-428q0 -91 44.5 -128t174.5 -37z" />
    <glyph glyph-name="Ntilde" unicode="&#xd1;" horiz-adv-x="1488" 
d="M514 1427q-5 -3 -11.5 4t-2.5 11q33 49 79.5 89t94.5 40q30 0 116 -25.5t140 -25.5q35 0 56.5 13.5t43.5 41.5q5 3 11.5 -2.5t2.5 -11.5q-53 -75 -87.5 -101t-73.5 -26q-44 0 -130 24.5t-137 24.5q-16 0 -28.5 -2t-24.5 -10t-16 -11t-17.5 -17t-15.5 -16zM1442 1280
q6 0 6 -12.5t-6 -12.5q-86 0 -125 -47t-39 -153v-1080q0 -4 -10 -5.5t-15 1.5l-942 1141q-9 12 -18 21v-910q0 -106 37.5 -152t122.5 -46q6 0 6 -12.5t-6 -12.5q-24 0 -84 2t-97 2q-36 0 -99 -2t-89 -2q-4 0 -4 12.5t4 12.5q89 0 125.5 45.5t36.5 152.5v959q-78 73 -162 73
q-6 0 -6 12.5t6 12.5q24 0 73.5 -2t69.5 -2q29 0 70 2t49 2q16 0 24.5 -7.5t28.5 -39t43 -59.5l789 -969v850q0 107 -36 153.5t-120 46.5q-5 0 -5 12.5t5 12.5q26 0 84.5 -3t95.5 -3q35 0 98.5 3t88.5 3z" />
    <glyph glyph-name="Ograve" unicode="&#xd2;" horiz-adv-x="1568" 
d="M991 1391q-231 101 -456 157q-18 3 24 24q65 33 100 35l9 -1q260 -158 331 -195q9 -3 3 -15q-4 -9 -11 -5zM750 -25q-191 0 -341 91t-229.5 242t-79.5 331q0 129 43 239t115 187t165.5 131.5t195 80.5t202.5 26q146 0 270 -55t205.5 -146.5t126.5 -208t45 -240.5
q0 -140 -58 -266t-155 -216t-229 -143t-276 -53zM821 18q103 0 192.5 38.5t156.5 110t105 182.5t38 247q0 292 -158.5 475.5t-419.5 183.5q-226 0 -352.5 -145.5t-126.5 -398.5q0 -193 70.5 -350.5t200.5 -250t294 -92.5z" />
    <glyph glyph-name="Oacute" unicode="&#xd3;" horiz-adv-x="1568" 
d="M590 1391q-4 -2 -7.5 0t-5 6t-1 8.5t3.5 5.5q75 39 192.5 110.5t140.5 84.5q15 8 89 -25q50 -22 47 -31q-1 -1 -5 -2q-220 -55 -454 -157zM750 -25q-191 0 -341 91t-229.5 242t-79.5 331q0 129 43 239t115 187t165.5 131.5t195 80.5t202.5 26q146 0 270 -55t205.5 -146.5
t126.5 -208t45 -240.5q0 -140 -58 -266t-155 -216t-229 -143t-276 -53zM821 18q103 0 192.5 38.5t156.5 110t105 182.5t38 247q0 292 -158.5 475.5t-419.5 183.5q-226 0 -352.5 -145.5t-126.5 -398.5q0 -193 70.5 -350.5t200.5 -250t294 -92.5z" />
    <glyph glyph-name="Ocircumflex" unicode="&#xd4;" horiz-adv-x="1568" 
d="M555 1417l211 201q9 9 23.5 9t23.5 -9l209 -201q3 -2 2 -6t-5 -7t-7 -1l-221 119l-224 -119q-2 -1 -6 2t-6 6.5t0 5.5zM750 -25q-191 0 -341 91t-229.5 242t-79.5 331q0 129 43 239t115 187t165.5 131.5t195 80.5t202.5 26q146 0 270 -55t205.5 -146.5t126.5 -208
t45 -240.5q0 -140 -58 -266t-155 -216t-229 -143t-276 -53zM821 18q103 0 192.5 38.5t156.5 110t105 182.5t38 247q0 292 -158.5 475.5t-419.5 183.5q-226 0 -352.5 -145.5t-126.5 -398.5q0 -193 70.5 -350.5t200.5 -250t294 -92.5z" />
    <glyph glyph-name="Otilde" unicode="&#xd5;" horiz-adv-x="1568" 
d="M948 1520q35 0 57 14t44 41q5 3 11.5 -2.5t2.5 -11.5q-53 -75 -88 -101t-74 -26q-44 0 -129.5 24.5t-136.5 24.5q-14 0 -26 -2.5t-19.5 -5t-17 -10t-13 -11l-14 -14l-13.5 -13.5q-5 -3 -11.5 4t-2.5 11q33 49 79.5 89t94.5 40q30 0 116 -25.5t140 -25.5zM750 -25
q-191 0 -341 91t-229.5 242t-79.5 331q0 129 43 239t115 187t165.5 131.5t195 80.5t202.5 26q146 0 270 -55t205.5 -146.5t126.5 -208t45 -240.5q0 -140 -58 -266t-155 -216t-229 -143t-276 -53zM821 18q103 0 192.5 38.5t156.5 110t105 182.5t38 247q0 292 -158.5 475.5
t-419.5 183.5q-226 0 -352.5 -145.5t-126.5 -398.5q0 -193 70.5 -350.5t200.5 -250t294 -92.5z" />
    <glyph glyph-name="Odieresis" unicode="&#xd6;" horiz-adv-x="1568" 
d="M610 1468q-41 0 -64.5 22t-23.5 62t23.5 62t64.5 22q40 0 62 -22t22 -62t-22 -62t-62 -22zM969 1468q-40 0 -64 22.5t-24 61.5t24 61.5t64 22.5q41 0 63.5 -22t22.5 -62t-22.5 -62t-63.5 -22zM750 -25q-191 0 -341 91t-229.5 242t-79.5 331q0 129 43 239t115 187
t165.5 131.5t195 80.5t202.5 26q146 0 270 -55t205.5 -146.5t126.5 -208t45 -240.5q0 -140 -58 -266t-155 -216t-229 -143t-276 -53zM821 18q103 0 192.5 38.5t156.5 110t105 182.5t38 247q0 292 -158.5 475.5t-419.5 183.5q-226 0 -352.5 -145.5t-126.5 -398.5
q0 -193 70.5 -350.5t200.5 -250t294 -92.5z" />
    <glyph glyph-name="multiply" unicode="&#xd7;" horiz-adv-x="782" 
d="M451 389l208 -209q6 -8 -22.5 -36.5t-36.5 -22.5l-209 209l-211 -209q-3 -5 -19 8t-29.5 28.5t-10.5 18.5l213 213l-209 211q-5 3 8 19t28.5 29t18.5 9l211 -211l209 209q8 6 36.5 -22.5t22.5 -36.5z" />
    <glyph glyph-name="Oslash" unicode="&#xd8;" horiz-adv-x="1579" 
d="M1280 1118q90 -90 139 -212.5t49 -252.5q0 -140 -58 -266t-155 -216t-229 -143t-276 -53q-257 0 -437 162l-149 -151q-3 -4 -12.5 1.5t-16 14.5t-2.5 14l150 152q-88 91 -135.5 213t-47.5 258q0 129 43 239t115 187t165.5 131.5t195 80.5t202.5 26q249 0 428 -154
l140 141q4 4 14 -1t16.5 -13t1.5 -12zM256 711q0 -257 123 -445l784 795q-158 194 -428 194q-226 0 -352.5 -145.5t-126.5 -398.5zM821 18q103 0 192.5 38.5t156.5 110t105 182.5t38 247q0 254 -123 432l-787 -799q76 -100 183.5 -155.5t234.5 -55.5z" />
    <glyph glyph-name="Ugrave" unicode="&#xd9;" horiz-adv-x="1429" 
d="M969 1391q-230 101 -457 157q-18 3 24 24q65 33 100 35l9 -1q20 -12 75.5 -46t85.5 -52t78.5 -46t92.5 -51q9 -3 3 -15q-4 -9 -11 -5zM1171 1055q0 200 -178 200q-6 0 -6 12.5t6 12.5q28 0 95.5 -3t109.5 -3q34 0 97 3t89 3q4 0 4 -12.5t-4 -12.5q-83 0 -123 -49.5
t-40 -150.5v-582q0 -235 -131.5 -367.5t-352.5 -132.5q-229 0 -366.5 132t-137.5 354v655q0 89 -31.5 115t-142.5 26q-5 0 -5 12.5t5 12.5q30 0 110.5 -3t129.5 -3q51 0 132.5 3t109.5 3q6 0 6 -12.5t-6 -12.5q-110 0 -142 -27.5t-32 -117.5v-580q0 -240 109 -367.5
t306 -127.5q184 0 286.5 115.5t102.5 320.5v584z" />
    <glyph glyph-name="Uacute" unicode="&#xda;" horiz-adv-x="1429" 
d="M567 1391q-9 -4 -13 6.5t3 13.5q75 39 194.5 111.5t139.5 83.5q15 8 89 -25q50 -22 47 -31q-1 -1 -5 -2q-223 -55 -455 -157zM1171 1055q0 200 -178 200q-6 0 -6 12.5t6 12.5q28 0 95.5 -3t109.5 -3q34 0 97 3t89 3q4 0 4 -12.5t-4 -12.5q-83 0 -123 -49.5t-40 -150.5
v-582q0 -235 -131.5 -367.5t-352.5 -132.5q-229 0 -366.5 132t-137.5 354v655q0 89 -31.5 115t-142.5 26q-5 0 -5 12.5t5 12.5q30 0 110.5 -3t129.5 -3q51 0 132.5 3t109.5 3q6 0 6 -12.5t-6 -12.5q-110 0 -142 -27.5t-32 -117.5v-580q0 -240 109 -367.5t306 -127.5
q184 0 286.5 115.5t102.5 320.5v584z" />
    <glyph glyph-name="Ucircumflex" unicode="&#xdb;" horiz-adv-x="1429" 
d="M532 1417l211 201q9 9 24 9t24 -9l208 -201q3 -2 2 -6t-5 -7t-7 -1l-221 119l-223 -119q-2 -1 -6.5 2t-6.5 6.5t0 5.5zM1171 1055q0 200 -178 200q-6 0 -6 12.5t6 12.5q28 0 95.5 -3t109.5 -3q34 0 97 3t89 3q4 0 4 -12.5t-4 -12.5q-83 0 -123 -49.5t-40 -150.5v-582
q0 -235 -131.5 -367.5t-352.5 -132.5q-229 0 -366.5 132t-137.5 354v655q0 89 -31.5 115t-142.5 26q-5 0 -5 12.5t5 12.5q30 0 110.5 -3t129.5 -3q51 0 132.5 3t109.5 3q6 0 6 -12.5t-6 -12.5q-110 0 -142 -27.5t-32 -117.5v-580q0 -240 109 -367.5t306 -127.5
q184 0 286.5 115.5t102.5 320.5v584z" />
    <glyph glyph-name="Udieresis" unicode="&#xdc;" horiz-adv-x="1429" 
d="M588 1468q-41 0 -64.5 22t-23.5 62t23.5 62t64.5 22q40 0 62 -22t22 -62t-22 -62t-62 -22zM946 1468q-40 0 -64 22.5t-24 61.5t24 61.5t64 22.5q41 0 63.5 -22t22.5 -62t-22.5 -62t-63.5 -22zM1171 1055q0 200 -178 200q-6 0 -6 12.5t6 12.5q28 0 95.5 -3t109.5 -3
q34 0 97 3t89 3q4 0 4 -12.5t-4 -12.5q-83 0 -123 -49.5t-40 -150.5v-582q0 -235 -131.5 -367.5t-352.5 -132.5q-229 0 -366.5 132t-137.5 354v655q0 89 -31.5 115t-142.5 26q-5 0 -5 12.5t5 12.5q30 0 110.5 -3t129.5 -3q51 0 132.5 3t109.5 3q6 0 6 -12.5t-6 -12.5
q-110 0 -142 -27.5t-32 -117.5v-580q0 -240 109 -367.5t306 -127.5q184 0 286.5 115.5t102.5 320.5v584z" />
    <glyph glyph-name="Yacute" unicode="&#xdd;" horiz-adv-x="1247" 
d="M453 1391q-6 -3 -10 1.5t-4 10t3 8.5q75 39 194.5 111.5t139.5 83.5q15 8 89 -25q50 -22 47 -31q-1 -1 -5 -2q-220 -55 -454 -157zM1257 1280q5 0 5 -12.5t-5 -12.5q-73 0 -148.5 -54t-135.5 -148l-275 -422v-465q0 -90 30.5 -115.5t143.5 -25.5q6 0 6 -12.5t-6 -12.5
q-30 0 -110 2t-131 2q-49 0 -130.5 -2t-111.5 -2q-6 0 -6 12.5t6 12.5q112 0 144 25.5t32 115.5v432l-340 498q-58 90 -108.5 124.5t-118.5 34.5q-6 0 -6 12.5t6 12.5q24 0 73.5 -3t71.5 -3q61 0 159 3t128 3q4 0 4 -12.5t-4 -12.5q-78 0 -98.5 -23.5t12.5 -70.5l330 -483
l250 383q59 94 42.5 144t-108.5 50q-4 0 -4 12.5t4 12.5q34 0 107 -3t133 -3q35 0 82 3t77 3z" />
    <glyph glyph-name="Thorn" unicode="&#xde;" horiz-adv-x="1101" 
d="M557 301q63 0 119 21t101 62t71 109t26 154q0 164 -94 255t-248 91q-69 0 -141 -16v-803q0 -33 3 -54t13.5 -39t26.5 -28t44.5 -16.5t65 -9t91.5 -2.5q6 0 6 -12.5t-6 -12.5q-40 0 -142 2t-167 2q-47 0 -127.5 -2t-110.5 -2q-4 0 -4 12.5t4 12.5q108 0 139 25.5t31 115.5
v948q0 88 -31 114.5t-139 26.5q-4 0 -4 12.5t4 12.5q30 0 110.5 -3t127.5 -3q65 0 167 3t142 3q6 0 6 -12.5t-6 -12.5q-82 0 -127.5 -5.5t-73 -23.5t-35.5 -45t-8 -77v-96q92 14 193 14q94 0 170.5 -18t138 -56t96.5 -104t37 -156q2 -84 -24 -154.5t-71 -118t-104 -80.5
t-121.5 -48t-125.5 -15q-42 0 -103 11q-4 1 -4.5 8t2.5 13t8 5q50 -8 74 -8z" />
    <glyph glyph-name="germandbls" unicode="&#xdf;" horiz-adv-x="1038" 
d="M713 -23q-90 0 -168 62q-13 9 -13 24l-4 185q0 5 12 5.5t13 -3.5q36 -113 93.5 -172.5t125.5 -59.5q54 0 86.5 44t26.5 112q-2 37 -15.5 72t-41.5 71t-50.5 60t-62.5 63q-43 43 -66.5 69.5t-53.5 67.5t-44 82t-14 86q0 52 20 99t49 85.5t58 78.5t49 93t20 113
q0 41 -8.5 80t-28 77t-57.5 61.5t-90 23.5q-121 0 -185.5 -143t-64.5 -400v-747q0 -90 23.5 -115.5t107.5 -25.5q4 0 4 -12.5t-4 -12.5q-34 0 -94.5 1t-93.5 1q-40 0 -108.5 -1t-92.5 -1q-6 0 -6 12.5t6 12.5q88 0 113.5 26t25.5 115l-2 752q0 271 111.5 420t312.5 149
q67 0 118.5 -18.5t79.5 -49t42 -64.5t14 -69q0 -54 -24 -104.5t-59 -89t-69.5 -76t-58.5 -82t-24 -90.5q0 -36 13 -71t44 -75t53 -64t68 -71q47 -48 71 -75t57 -70.5t47.5 -85t14.5 -84.5q0 -104 -78 -187.5t-198 -83.5z" />
    <glyph glyph-name="agrave" unicode="&#xe0;" horiz-adv-x="858" 
d="M440 971l-209 518q-2 6 11 7q36 3 91 -16q22 -8 23 -14l105 -491q3 -4 -6 -7q-13 -4 -15 3zM846 111q9 3 13 -8t-5 -15l-211 -100q-8 -4 -16 -4q-26 0 -47 35t-27 96l-127 -68q-116 -61 -184 -61q-63 0 -97 33t-34 85q0 56 42.5 89.5t149.5 70.5l248 88v170
q0 135 -34.5 189.5t-96.5 54.5q-70 0 -108.5 -49.5t-47.5 -118.5q-8 -78 -76 -78q-69 0 -69 62q0 47 61.5 101t148 90t156.5 36q82 0 131.5 -56.5t49.5 -168.5v-363q0 -71 18.5 -104t60.5 -33q37 0 101 27zM426 80l125 63v13v172l-211 -80q-47 -19 -66.5 -41.5t-19.5 -56.5
q0 -42 24.5 -66.5t63.5 -24.5q37 0 84 21z" />
    <glyph glyph-name="aacute" unicode="&#xe1;" horiz-adv-x="858" 
d="M424 971q-1 -4 -7 -4t-11.5 2.5t-4.5 5.5l107 491q5 13 72 26q57 10 53 -3zM846 111q9 3 13 -8t-5 -15l-211 -100q-8 -4 -16 -4q-26 0 -47 35t-27 96l-127 -68q-116 -61 -184 -61q-63 0 -97 33t-34 85q0 56 42.5 89.5t149.5 70.5l248 88v170q0 135 -34.5 189.5
t-96.5 54.5q-70 0 -108.5 -49.5t-47.5 -118.5q-8 -78 -76 -78q-69 0 -69 62q0 47 61.5 101t148 90t156.5 36q82 0 131.5 -56.5t49.5 -168.5v-363q0 -71 18.5 -104t60.5 -33q37 0 101 27zM426 80l125 63v13v172l-211 -80q-47 -19 -66.5 -41.5t-19.5 -56.5q0 -42 24.5 -66.5
t63.5 -24.5q37 0 84 21z" />
    <glyph glyph-name="acircumflex" unicode="&#xe2;" horiz-adv-x="858" 
d="M289 971q-1 -4 -7 -4t-11.5 2.5t-4.5 5.5l140 510q2 11 22 11t25 -11l137 -510q3 -4 -6 -7q-13 -4 -15 3l-139 336zM846 111q9 3 13 -8t-5 -15l-211 -100q-8 -4 -16 -4q-26 0 -47 35t-27 96l-127 -68q-116 -61 -184 -61q-63 0 -97 33t-34 85q0 56 42.5 89.5t149.5 70.5
l248 88v170q0 135 -34.5 189.5t-96.5 54.5q-70 0 -108.5 -49.5t-47.5 -118.5q-8 -78 -76 -78q-69 0 -69 62q0 47 61.5 101t148 90t156.5 36q82 0 131.5 -56.5t49.5 -168.5v-363q0 -71 18.5 -104t60.5 -33q37 0 101 27zM426 80l125 63v13v172l-211 -80q-47 -19 -66.5 -41.5
t-19.5 -56.5q0 -42 24.5 -66.5t63.5 -24.5q37 0 84 21z" />
    <glyph glyph-name="atilde" unicode="&#xe3;" horiz-adv-x="858" 
d="M170 983q-5 -3 -11.5 2.5t-2.5 11.5q92 125 174 125q30 0 116 -24.5t140 -24.5q24 0 43.5 8.5t30 18.5t26.5 28q6 4 13 -5q5 -5 1 -9q-54 -74 -88.5 -100.5t-72.5 -26.5q-43 0 -130 25.5t-139 25.5q-19 0 -36 -6.5t-22.5 -9.5t-23 -20.5zM846 111q9 3 13 -8t-5 -15
l-211 -100q-8 -4 -16 -4q-26 0 -47 35t-27 96l-127 -68q-116 -61 -184 -61q-63 0 -97 33t-34 85q0 56 42.5 89.5t149.5 70.5l248 88v170q0 135 -34.5 189.5t-96.5 54.5q-70 0 -108.5 -49.5t-47.5 -118.5q-8 -78 -76 -78q-69 0 -69 62q0 47 61.5 101t148 90t156.5 36
q82 0 131.5 -56.5t49.5 -168.5v-363q0 -71 18.5 -104t60.5 -33q37 0 101 27zM426 80l125 63v13v172l-211 -80q-47 -19 -66.5 -41.5t-19.5 -56.5q0 -42 24.5 -66.5t63.5 -24.5q37 0 84 21z" />
    <glyph glyph-name="adieresis" unicode="&#xe4;" horiz-adv-x="858" 
d="M250 979q-41 0 -64.5 22t-23.5 62t23.5 62t64.5 22q40 0 62 -22t22 -62t-22 -62t-62 -22zM608 979q-40 0 -64 22.5t-24 61.5t24 61.5t64 22.5q41 0 63.5 -22t22.5 -62t-22.5 -62t-63.5 -22zM846 111q9 3 13 -8t-5 -15l-211 -100q-8 -4 -16 -4q-26 0 -47 35t-27 96
l-127 -68q-116 -61 -184 -61q-63 0 -97 33t-34 85q0 56 42.5 89.5t149.5 70.5l248 88v170q0 135 -34.5 189.5t-96.5 54.5q-70 0 -108.5 -49.5t-47.5 -118.5q-8 -78 -76 -78q-69 0 -69 62q0 47 61.5 101t148 90t156.5 36q82 0 131.5 -56.5t49.5 -168.5v-363q0 -71 18.5 -104
t60.5 -33q37 0 101 27zM426 80l125 63v13v172l-211 -80q-47 -19 -66.5 -41.5t-19.5 -56.5q0 -42 24.5 -66.5t63.5 -24.5q37 0 84 21z" />
    <glyph glyph-name="aring" unicode="&#xe5;" horiz-adv-x="858" 
d="M410 958q-82 0 -131.5 48t-49.5 114q0 74 62.5 117t138.5 43q74 0 127 -48.5t53 -115.5q0 -71 -61 -114.5t-139 -43.5zM389 1257q-35 0 -51 -23t-16 -73q0 -70 32.5 -126t87.5 -56q74 0 74 100q0 73 -37 125.5t-90 52.5zM846 111q9 3 13 -8t-5 -15l-211 -100
q-8 -4 -16 -4q-26 0 -47 35t-27 96l-127 -68q-116 -61 -184 -61q-63 0 -97 33t-34 85q0 56 42.5 89.5t149.5 70.5l248 88v170q0 135 -34.5 189.5t-96.5 54.5q-70 0 -108.5 -49.5t-47.5 -118.5q-8 -78 -76 -78q-69 0 -69 62q0 47 61.5 101t148 90t156.5 36q82 0 131.5 -56.5
t49.5 -168.5v-363q0 -71 18.5 -104t60.5 -33q37 0 101 27zM426 80l125 63v13v172l-211 -80q-47 -19 -66.5 -41.5t-19.5 -56.5q0 -42 24.5 -66.5t63.5 -24.5q37 0 84 21z" />
    <glyph glyph-name="ae" unicode="&#xe6;" horiz-adv-x="1206" 
d="M1130 115q6 3 13.5 -6t1.5 -15q-69 -63 -136 -91t-149 -28q-203 0 -282 152l-166 -84q-62 -33 -100 -45t-79 -12q-63 0 -100 33.5t-37 86.5t41.5 84t151.5 70l237 80v8q-10 232 -24 300q-21 99 -81 119q-20 7 -46 7q-118 0 -137 -178q-5 -74 -70 -74q-36 0 -55 18t-19 48
q0 44 51 96t128.5 88.5t146.5 36.5q70 0 124 -38t74 -103q57 66 136.5 103.5t169.5 37.5q102 0 157.5 -54.5t55.5 -152.5q0 -23 -6 -33t-21 -10h-94l-359 -4q-10 -58 -10 -115q1 -38 3.5 -70t10 -74.5t19.5 -76t33 -67.5t49 -57t69.5 -37.5t92.5 -14.5q126 0 206 72z
M856 768q-71 0 -120.5 -48.5t-71.5 -135.5l329 8q0 85 -37 130.5t-100 45.5zM412 74l155 73q-30 71 -39 168l-202 -73q-47 -18 -65.5 -37.5t-18.5 -52.5q0 -42 24.5 -67.5t65.5 -25.5q46 0 80 15z" />
    <glyph glyph-name="ccedilla" unicode="&#xe7;" horiz-adv-x="841" 
d="M473 -25h-14q-10 -33 -15.5 -53t-4.5 -38.5t3 -26.5t17.5 -21.5t26.5 -20t42 -24.5q111 -64 111 -158q0 -76 -54 -136t-159 -60q-58 0 -94.5 20.5t-36.5 57.5q0 27 18 44t43 17q24 0 39.5 -15.5t22.5 -33.5t25.5 -33.5t48.5 -15.5q69 0 69 78q0 54 -38 95t-138 95
q-27 13 -29 22.5t11 38.5q21 50 63 170q-90 7 -160.5 45t-112 95.5t-62.5 124t-21 137.5q0 99 40 182t104.5 136t143 82.5t158.5 29.5q91 0 165.5 -36t74.5 -89q0 -27 -19.5 -46.5t-52.5 -19.5q-57 0 -90 68q-27 42 -57.5 62t-87.5 20q-115 0 -179.5 -89.5t-64.5 -238.5
q0 -82 20 -151t60 -124t107.5 -86.5t156.5 -31.5q125 0 209 68q5 3 11.5 -5t2.5 -12q-137 -123 -303 -123z" />
    <glyph glyph-name="egrave" unicode="&#xe8;" horiz-adv-x="835" 
d="M477 971l-209 518q-2 6 11 7q36 3 91 -16q22 -8 23 -14l105 -491q3 -4 -6 -7q-13 -4 -15 3zM743 115q5 3 12 -6t3 -15q-139 -119 -299 -119q-92 0 -167 33t-121.5 89t-71.5 125.5t-25 146.5q0 186 126.5 313t313.5 127q111 0 172.5 -54t61.5 -149q0 -47 -25 -47l-504 -4
q-10 -55 -10 -106q0 -179 86 -290.5t237 -111.5q116 0 211 68zM444 768q-84 0 -139.5 -47.5t-79.5 -136.5l381 8q0 84 -43.5 130t-118.5 46z" />
    <glyph glyph-name="eacute" unicode="&#xe9;" horiz-adv-x="835" 
d="M461 971q-1 -4 -7 -4t-11.5 2.5t-4.5 5.5l107 491q5 13 72 26q57 10 53 -3zM743 115q5 3 12 -6t3 -15q-139 -119 -299 -119q-92 0 -167 33t-121.5 89t-71.5 125.5t-25 146.5q0 186 126.5 313t313.5 127q111 0 172.5 -54t61.5 -149q0 -47 -25 -47l-504 -4
q-10 -55 -10 -106q0 -179 86 -290.5t237 -111.5q116 0 211 68zM444 768q-84 0 -139.5 -47.5t-79.5 -136.5l381 8q0 84 -43.5 130t-118.5 46z" />
    <glyph glyph-name="ecircumflex" unicode="&#xea;" horiz-adv-x="835" 
d="M326 971q-1 -4 -7 -4t-11.5 2.5t-4.5 5.5l139 510q2 11 22 11t25 -11l138 -510q3 -4 -6 -7q-13 -4 -15 3l-139 336zM743 115q5 3 12 -6t3 -15q-139 -119 -299 -119q-92 0 -167 33t-121.5 89t-71.5 125.5t-25 146.5q0 186 126.5 313t313.5 127q111 0 172.5 -54t61.5 -149
q0 -47 -25 -47l-504 -4q-10 -55 -10 -106q0 -179 86 -290.5t237 -111.5q116 0 211 68zM444 768q-84 0 -139.5 -47.5t-79.5 -136.5l381 8q0 84 -43.5 130t-118.5 46z" />
    <glyph glyph-name="edieresis" unicode="&#xeb;" horiz-adv-x="835" 
d="M287 979q-41 0 -64.5 22t-23.5 62t23.5 62t64.5 22q40 0 62 -22t22 -62t-22 -62t-62 -22zM645 979q-40 0 -64 22.5t-24 61.5t24 61.5t64 22.5q41 0 63.5 -22t22.5 -62t-22.5 -62t-63.5 -22zM743 115q5 3 12 -6t3 -15q-139 -119 -299 -119q-92 0 -167 33t-121.5 89
t-71.5 125.5t-25 146.5q0 186 126.5 313t313.5 127q111 0 172.5 -54t61.5 -149q0 -47 -25 -47l-504 -4q-10 -55 -10 -106q0 -179 86 -290.5t237 -111.5q116 0 211 68zM444 768q-84 0 -139.5 -47.5t-79.5 -136.5l381 8q0 84 -43.5 130t-118.5 46z" />
    <glyph glyph-name="igrave" unicode="&#xec;" horiz-adv-x="559" 
d="M84 1489q-2 6 11 7q36 3 91 -16q21 -8 23 -14l104 -491q3 -4 -6 -7q-11 -2 -14 3zM109 0q-5 0 -5 12.5t5 12.5q80 0 105.5 27t25.5 114v383q0 74 -15.5 106.5t-52.5 32.5q-35 0 -92 -29q-9 -3 -13.5 8.5t1.5 16.5l266 123l8 2q5 0 10.5 -5t5.5 -11q0 -7 -1 -41t-2 -88.5
t-1 -112.5v-385q0 -88 24 -114.5t105 -26.5q6 0 6 -12.5t-6 -12.5q-22 0 -84.5 2t-101.5 2t-102 -2t-86 -2z" />
    <glyph glyph-name="iacute" unicode="&#xed;" horiz-adv-x="559" 
d="M276 971q-1 -4 -7 -4t-11 2.5t-4 5.5l106 491q5 13 72 26q57 10 53 -3zM109 0q-5 0 -5 12.5t5 12.5q80 0 105.5 27t25.5 114v383q0 74 -15.5 106.5t-52.5 32.5q-35 0 -92 -29q-9 -3 -13.5 8.5t1.5 16.5l266 123l8 2q5 0 10.5 -5t5.5 -11q0 -7 -1 -41t-2 -88.5t-1 -112.5
v-385q0 -88 24 -114.5t105 -26.5q6 0 6 -12.5t-6 -12.5q-22 0 -84.5 2t-101.5 2t-102 -2t-86 -2z" />
    <glyph glyph-name="icircumflex" unicode="&#xee;" horiz-adv-x="559" 
d="M442 975q3 -4 -6 -7q-11 -2 -14 3l-139 336l-142 -336q-1 -4 -7 -4t-11 2.5t-4 5.5l139 510q2 11 22.5 11t24.5 -11zM109 0q-5 0 -5 12.5t5 12.5q80 0 105.5 27t25.5 114v383q0 74 -15.5 106.5t-52.5 32.5q-35 0 -92 -29q-9 -3 -13.5 8.5t1.5 16.5l266 123l8 2
q5 0 10.5 -5t5.5 -11q0 -7 -1 -41t-2 -88.5t-1 -112.5v-385q0 -88 24 -114.5t105 -26.5q6 0 6 -12.5t-6 -12.5q-22 0 -84.5 2t-101.5 2t-102 -2t-86 -2z" />
    <glyph glyph-name="idieresis" unicode="&#xef;" horiz-adv-x="559" 
d="M135 979q-40 0 -64 22.5t-24 61.5t24 61.5t64 22.5t63 -22t23 -62t-23 -62t-63 -22zM428 979q-41 0 -64.5 22t-23.5 62t23.5 62t64.5 22q40 0 62 -22t22 -62t-22 -62t-62 -22zM109 0q-5 0 -5 12.5t5 12.5q80 0 105.5 27t25.5 114v383q0 74 -15.5 106.5t-52.5 32.5
q-35 0 -92 -29q-9 -3 -13.5 8.5t1.5 16.5l266 123l8 2q5 0 10.5 -5t5.5 -11q0 -7 -1 -41t-2 -88.5t-1 -112.5v-385q0 -88 24 -114.5t105 -26.5q6 0 6 -12.5t-6 -12.5q-22 0 -84.5 2t-101.5 2t-102 -2t-86 -2z" />
    <glyph glyph-name="eth" unicode="&#xf0;" horiz-adv-x="962" 
d="M621 1165q132 -154 204 -335.5t72 -364.5q0 -126 -35 -223t-96.5 -154.5t-139 -86t-169.5 -28.5q-117 0 -207.5 57t-137 149t-46.5 202q0 86 26.5 159.5t70.5 123.5t100 85.5t115 51.5t116 16q120 0 211 -67q-55 190 -175 370l-274 -129q-6 -2 -12.5 8t-7.5 20.5t4 14.5
l264 125q-140 193 -320 307q-9 4 1 15q6 6 12 4q216 -98 393 -285l211 100q6 2 12.5 -8t8 -20.5t-4.5 -14.5zM514 12q57 0 100 18.5t76 61t50.5 118t17.5 181.5q0 108 -23 230q-41 75 -110.5 116t-155.5 41q-117 0 -191.5 -89.5t-74.5 -248.5q0 -116 38 -213t110 -156
t163 -59z" />
    <glyph glyph-name="ntilde" unicode="&#xf1;" horiz-adv-x="1058" 
d="M297 983q-5 -3 -11.5 2.5t-2.5 11.5q92 125 174 125q30 0 116 -24.5t140 -24.5q24 0 43.5 8.5t30 18.5t26.5 28q5 3 11.5 -3.5t2.5 -10.5q-54 -74 -88.5 -100.5t-72.5 -26.5q-44 0 -130 25.5t-139 25.5q-19 0 -36 -6.5t-22.5 -9.5t-23 -20.5zM1014 25q6 0 6 -12.5
t-6 -12.5q-21 0 -84 2t-101 2q-39 0 -102.5 -2t-83.5 -2q-6 0 -6 12.5t6 12.5q79 0 103 26.5t24 114.5v332q0 121 -45.5 178t-142.5 57q-63 0 -127.5 -33.5t-118.5 -93.5v-440q0 -88 24 -114.5t103 -26.5q6 0 6 -12.5t-6 -12.5q-21 0 -83.5 2t-100.5 2q-39 0 -103 -2t-84 -2
q-6 0 -6 12.5t6 12.5q79 0 103 26.5t24 114.5v405q0 69 -16.5 100t-55.5 31q-32 0 -110 -30q-9 -3 -14 7.5t4 14.5l237 113q4 2 12 2q11 0 24.5 -18.5t24.5 -58.5t11 -91q151 176 313 176q115 0 176.5 -64t61.5 -186v-401q0 -88 24 -114.5t103 -26.5z" />
    <glyph glyph-name="ograve" unicode="&#xf2;" horiz-adv-x="980" 
d="M295 1489q-2 6 11 7q36 3 91 -16q22 -8 23 -14l104 -491q3 -4 -6 -7q-12 -4 -14 3zM473 -27q-118 0 -210.5 60.5t-140.5 158.5t-48 214q0 82 26.5 151t70 116t100.5 80.5t117.5 48.5t121.5 15q91 0 167 -36t125.5 -95.5t77 -134.5t27.5 -156q0 -189 -126.5 -305.5
t-307.5 -116.5zM532 12q112 0 174 80t62 246q0 193 -91.5 316.5t-234.5 123.5q-110 0 -170.5 -80t-60.5 -229q0 -192 90.5 -324.5t230.5 -132.5z" />
    <glyph glyph-name="oacute" unicode="&#xf3;" horiz-adv-x="980" 
d="M487 971q-1 -4 -7 -4t-11 2.5t-4 5.5l106 491q5 13 72 26q57 10 53 -3zM473 -27q-118 0 -210.5 60.5t-140.5 158.5t-48 214q0 82 26.5 151t70 116t100.5 80.5t117.5 48.5t121.5 15q91 0 167 -36t125.5 -95.5t77 -134.5t27.5 -156q0 -189 -126.5 -305.5t-307.5 -116.5z
M532 12q112 0 174 80t62 246q0 193 -91.5 316.5t-234.5 123.5q-110 0 -170.5 -80t-60.5 -229q0 -192 90.5 -324.5t230.5 -132.5z" />
    <glyph glyph-name="ocircumflex" unicode="&#xf4;" horiz-adv-x="980" 
d="M653 975q3 -4 -6 -7q-12 -4 -14 3l-139 336l-142 -336q-1 -4 -7 -4t-11 2.5t-4 5.5l139 510q1 11 21.5 11t25.5 -11zM473 -27q-118 0 -210.5 60.5t-140.5 158.5t-48 214q0 82 26.5 151t70 116t100.5 80.5t117.5 48.5t121.5 15q91 0 167 -36t125.5 -95.5t77 -134.5
t27.5 -156q0 -189 -126.5 -305.5t-307.5 -116.5zM532 12q112 0 174 80t62 246q0 193 -91.5 316.5t-234.5 123.5q-110 0 -170.5 -80t-60.5 -229q0 -192 90.5 -324.5t230.5 -132.5z" />
    <glyph glyph-name="otilde" unicode="&#xf5;" horiz-adv-x="980" 
d="M649 1073q24 0 44 8.5t31 18.5t26 28q5 3 11.5 -3.5t2.5 -10.5q-54 -74 -89 -100.5t-73 -26.5q-44 0 -130 25.5t-138 25.5q-16 0 -28.5 -2.5t-23.5 -9.5t-16.5 -11.5t-17 -16l-15.5 -15.5q-5 -3 -11.5 2.5t-2.5 11.5q92 125 174 125q30 0 116 -24.5t140 -24.5zM473 -27
q-118 0 -210.5 60.5t-140.5 158.5t-48 214q0 82 26.5 151t70 116t100.5 80.5t117.5 48.5t121.5 15q91 0 167 -36t125.5 -95.5t77 -134.5t27.5 -156q0 -189 -126.5 -305.5t-307.5 -116.5zM532 12q112 0 174 80t62 246q0 193 -91.5 316.5t-234.5 123.5q-110 0 -170.5 -80
t-60.5 -229q0 -192 90.5 -324.5t230.5 -132.5z" />
    <glyph glyph-name="odieresis" unicode="&#xf6;" horiz-adv-x="980" 
d="M313 979q-41 0 -64.5 22t-23.5 62t23.5 62t64.5 22q40 0 62 -22t22 -62t-22 -62t-62 -22zM672 979q-40 0 -64 22.5t-24 61.5t24 61.5t64 22.5q41 0 63.5 -22t22.5 -62t-22.5 -62t-63.5 -22zM473 -27q-118 0 -210.5 60.5t-140.5 158.5t-48 214q0 82 26.5 151t70 116
t100.5 80.5t117.5 48.5t121.5 15q91 0 167 -36t125.5 -95.5t77 -134.5t27.5 -156q0 -189 -126.5 -305.5t-307.5 -116.5zM532 12q112 0 174 80t62 246q0 193 -91.5 316.5t-234.5 123.5q-110 0 -170.5 -80t-60.5 -229q0 -192 90.5 -324.5t230.5 -132.5z" />
    <glyph glyph-name="divide" unicode="&#xf7;" horiz-adv-x="815" 
d="M406 637q-42 0 -66.5 23.5t-24.5 64.5q0 39 24.5 61.5t66.5 22.5q41 0 63.5 -22t22.5 -62q0 -41 -22.5 -64.5t-63.5 -23.5zM70 348q-6 0 -8 20t-0.5 40t6.5 20h677q9 0 9 -40t-9 -40h-675zM406 -23q-41 0 -66 24.5t-25 64.5t25 63t66 23t63.5 -23t22.5 -63t-22.5 -64.5
t-63.5 -24.5z" />
    <glyph glyph-name="oslash" unicode="&#xf8;" horiz-adv-x="976" 
d="M799 690q108 -123 108 -295q0 -189 -126.5 -305.5t-307.5 -116.5q-158 0 -266 105l-103 -107q-3 -4 -12 2t-15.5 15t-2.5 14l102 107q-102 121 -102 297q0 82 26.5 151t70 116t100.5 80.5t117.5 48.5t121.5 15q154 0 260 -98l94 98q4 3 13.5 -2.5t16 -13.5t1.5 -13z
M211 469q0 -152 57 -266l422 434q-95 141 -248 141q-110 0 -170.5 -80t-60.5 -229zM532 12q112 0 174 80t62 246q0 149 -57 260l-422 -436q93 -150 243 -150z" />
    <glyph glyph-name="ugrave" unicode="&#xf9;" horiz-adv-x="1009" 
d="M500 971l-209 518q-2 6 11 7q36 3 91 -16q22 -8 23 -14l104 -491q3 -4 -6 -7q-12 -4 -14 3zM993 117q9 3 14 -7.5t-3 -15.5l-240 -112q-4 -2 -8 -2q-12 0 -25 18.5t-23 59t-10 92.5v8q-157 -174 -325 -174q-103 0 -160 64.5t-57 187.5v313q0 80 -14.5 115.5t-47.5 35.5
q-28 0 -69 -20q-5 -2 -9.5 4t-5 12t3.5 9l228 102q4 2 8 2q5 0 12.5 -5t7.5 -11v-490q0 -237 172 -237q66 0 133 33.5t123 93.5v356q0 82 -13.5 116.5t-47.5 34.5q-29 0 -70 -20q-5 -2 -9.5 4t-4 12t5.5 9l227 102q4 2 7 2q6 0 13 -5t7 -11v-574q0 -69 17 -100t55 -31
q32 0 108 29z" />
    <glyph glyph-name="uacute" unicode="&#xfa;" horiz-adv-x="1009" 
d="M483 971q-1 -4 -7 -4t-11 2.5t-4 5.5l106 491q5 13 72 26q57 10 53 -3zM993 117q9 3 14 -7.5t-3 -15.5l-240 -112q-4 -2 -8 -2q-12 0 -25 18.5t-23 59t-10 92.5v8q-157 -174 -325 -174q-103 0 -160 64.5t-57 187.5v313q0 80 -14.5 115.5t-47.5 35.5q-28 0 -69 -20
q-5 -2 -9.5 4t-5 12t3.5 9l228 102q4 2 8 2q5 0 12.5 -5t7.5 -11v-490q0 -237 172 -237q66 0 133 33.5t123 93.5v356q0 82 -13.5 116.5t-47.5 34.5q-29 0 -70 -20q-5 -2 -9.5 4t-4 12t5.5 9l227 102q4 2 7 2q6 0 13 -5t7 -11v-574q0 -69 17 -100t55 -31q32 0 108 29z" />
    <glyph glyph-name="ucircumflex" unicode="&#xfb;" horiz-adv-x="1009" 
d="M348 971q-1 -4 -7 -4t-11 2.5t-4 5.5l139 510q1 11 22 11t25 -11l137 -510q3 -4 -6 -7q-12 -4 -14 3l-140 336zM993 117q9 3 14 -7.5t-3 -15.5l-240 -112q-4 -2 -8 -2q-12 0 -25 18.5t-23 59t-10 92.5v8q-157 -174 -325 -174q-103 0 -160 64.5t-57 187.5v313
q0 80 -14.5 115.5t-47.5 35.5q-28 0 -69 -20q-5 -2 -9.5 4t-5 12t3.5 9l228 102q4 2 8 2q5 0 12.5 -5t7.5 -11v-490q0 -237 172 -237q66 0 133 33.5t123 93.5v356q0 82 -13.5 116.5t-47.5 34.5q-29 0 -70 -20q-5 -2 -9.5 4t-4 12t5.5 9l227 102q4 2 7 2q6 0 13 -5t7 -11
v-574q0 -69 17 -100t55 -31q32 0 108 29z" />
    <glyph glyph-name="udieresis" unicode="&#xfc;" horiz-adv-x="1009" 
d="M309 979q-41 0 -64.5 22t-23.5 62t23.5 62t64.5 22q40 0 62 -22t22 -62t-22 -62t-62 -22zM668 979q-40 0 -64 22.5t-24 61.5t24 61.5t64 22.5q41 0 63.5 -22t22.5 -62t-22.5 -62t-63.5 -22zM993 117q9 3 14 -7.5t-3 -15.5l-240 -112q-4 -2 -8 -2q-12 0 -25 18.5t-23 59
t-10 92.5v8q-157 -174 -325 -174q-103 0 -160 64.5t-57 187.5v313q0 80 -14.5 115.5t-47.5 35.5q-28 0 -69 -20q-5 -2 -9.5 4t-5 12t3.5 9l228 102q4 2 8 2q5 0 12.5 -5t7.5 -11v-490q0 -237 172 -237q66 0 133 33.5t123 93.5v356q0 82 -13.5 116.5t-47.5 34.5
q-29 0 -70 -20q-5 -2 -9.5 4t-4 12t5.5 9l227 102q4 2 7 2q6 0 13 -5t7 -11v-574q0 -69 17 -100t55 -31q32 0 108 29z" />
    <glyph glyph-name="yacute" unicode="&#xfd;" horiz-adv-x="890" 
d="M455 971q-1 -4 -7 -4t-11.5 2.5t-4.5 5.5l107 491q5 13 72 26q57 10 53 -3zM883 791q6 0 6 -12.5t-6 -12.5q-52 0 -89 -36.5t-69 -121.5l-250 -665q-111 -293 -209 -405.5t-233 -112.5q-46 0 -75.5 20t-29.5 59q0 29 19 45.5t45 16.5q40 0 81 -24.5t74 -24.5
q73 0 140 102t166 365l-312 637q-46 90 -71.5 117.5t-63.5 27.5q-4 0 -4 12.5t4 12.5q23 0 69.5 -2.5t67.5 -2.5q49 0 118.5 2.5t92.5 2.5q4 0 4 -12.5t-4 -12.5q-72 0 -101.5 -18t-6.5 -62l270 -555l164 471q31 92 -0.5 128t-140.5 36q-5 0 -5 12.5t5 12.5q29 0 92 -2.5
t114 -2.5q31 0 72 2.5t66 2.5z" />
    <glyph glyph-name="thorn" unicode="&#xfe;" horiz-adv-x="1005" 
d="M618 817q130 0 222 -102t92 -275q0 -95 -29 -175t-74.5 -132.5t-104.5 -89.5t-117.5 -53.5t-114.5 -16.5q-120 0 -220 54v-424q0 -88 39 -115t166 -27q6 0 6 -12t-6 -12q-33 0 -120.5 2t-139.5 2q-39 0 -102.5 -2t-85.5 -2q-5 0 -5 12t5 12q82 0 106.5 27t24.5 115v1622
q0 74 -15.5 106.5t-52.5 32.5q-29 0 -92 -29q-6 -3 -11 2.5t-5 11.5t4 9l258 125q4 2 8 2q6 0 12 -5.5t6 -11.5v-829q172 178 346 178zM551 16q110 0 180 96t70 265q0 172 -76.5 267t-194.5 95q-73 0 -133.5 -34.5t-124.5 -100.5v-457q57 -64 121.5 -97.5t157.5 -33.5z" />
    <glyph glyph-name="ydieresis" unicode="&#xff;" horiz-adv-x="890" 
d="M281 979q-41 0 -64.5 22t-23.5 62t23.5 62t64.5 22q40 0 62 -22t22 -62t-22 -62t-62 -22zM639 979q-40 0 -64 22.5t-24 61.5t24 61.5t64 22.5q41 0 63.5 -22t22.5 -62t-22.5 -62t-63.5 -22zM883 791q6 0 6 -12.5t-6 -12.5q-52 0 -89 -36.5t-69 -121.5l-250 -665
q-111 -293 -209 -405.5t-233 -112.5q-46 0 -75.5 20t-29.5 59q0 29 19 45.5t45 16.5q40 0 81 -24.5t74 -24.5q73 0 140 102t166 365l-312 637q-46 90 -71.5 117.5t-63.5 27.5q-4 0 -4 12.5t4 12.5q23 0 69.5 -2.5t67.5 -2.5q49 0 118.5 2.5t92.5 2.5q4 0 4 -12.5t-4 -12.5
q-72 0 -101.5 -18t-6.5 -62l270 -555l164 471q31 92 -0.5 128t-140.5 36q-5 0 -5 12.5t5 12.5q29 0 92 -2.5t114 -2.5q31 0 72 2.5t66 2.5z" />
    <glyph glyph-name="Amacron" unicode="&#x100;" 
d="M440 1479q-12 0 -12 28.5t12 28.5h514q12 0 12 -28.5t-12 -28.5h-514zM1432 25q8 0 8 -12.5t-8 -12.5q-39 0 -120.5 4t-119.5 4q-44 0 -111 -4t-104 -4q-9 0 -9 12.5t9 12.5q110 0 134.5 31t-15.5 120l-236 502h-387l-176 -418q-50 -126 -8 -180.5t180 -54.5q9 0 9 -12.5
t-9 -12.5q-38 0 -112.5 4t-129.5 4q-51 0 -118 -4t-107 -4q-9 0 -9 12.5t9 12.5q84 0 136 51.5t116 202.5l432 1019q3 6 14.5 6t12.5 -6l483 -1017q69 -151 119 -203.5t117 -52.5zM492 721h348l-185 389z" />
    <glyph glyph-name="amacron" unicode="&#x101;" horiz-adv-x="858" 
d="M170 989q-12 0 -12 29t12 29h514q12 0 12 -29t-12 -29h-514zM846 111q9 3 13 -8t-5 -15l-211 -100q-8 -4 -16 -4q-26 0 -47 35t-27 96l-127 -68q-116 -61 -184 -61q-63 0 -97 33t-34 85q0 56 42.5 89.5t149.5 70.5l248 88v170q0 135 -34.5 189.5t-96.5 54.5
q-70 0 -108.5 -49.5t-47.5 -118.5q-8 -78 -76 -78q-69 0 -69 62q0 47 61.5 101t148 90t156.5 36q82 0 131.5 -56.5t49.5 -168.5v-363q0 -71 18.5 -104t60.5 -33q37 0 101 27zM426 80l125 63v13v172l-211 -80q-47 -19 -66.5 -41.5t-19.5 -56.5q0 -42 24.5 -66.5t63.5 -24.5
q37 0 84 21z" />
    <glyph glyph-name="Abreve" unicode="&#x102;" 
d="M698 1413q-87 0 -141.5 57t-69.5 162q-1 5 4 7.5t11 2t8 -3.5q14 -56 68.5 -96.5t119.5 -40.5q64 0 118.5 40.5t68.5 96.5q1 3 7 3.5t11 -2t4 -7.5q-15 -105 -68.5 -162t-140.5 -57zM1432 25q8 0 8 -12.5t-8 -12.5q-39 0 -120.5 4t-119.5 4q-44 0 -111 -4t-104 -4
q-9 0 -9 12.5t9 12.5q110 0 134.5 31t-15.5 120l-236 502h-387l-176 -418q-50 -126 -8 -180.5t180 -54.5q9 0 9 -12.5t-9 -12.5q-38 0 -112.5 4t-129.5 4q-51 0 -118 -4t-107 -4q-9 0 -9 12.5t9 12.5q84 0 136 51.5t116 202.5l432 1019q3 6 14.5 6t12.5 -6l483 -1017
q69 -151 119 -203.5t117 -52.5zM492 721h348l-185 389z" />
    <glyph glyph-name="abreve" unicode="&#x103;" horiz-adv-x="858" 
d="M428 969q-103 0 -157 78.5t-54 228.5q0 5 5.5 7.5t11.5 2t6 -3.5q0 -90 53.5 -150.5t134.5 -60.5q78 0 132 61t54 150q0 3 6 3.5t11.5 -2t5.5 -7.5q0 -151 -53 -229t-156 -78zM846 111q9 3 13 -8t-5 -15l-211 -100q-8 -4 -16 -4q-26 0 -47 35t-27 96l-127 -68
q-116 -61 -184 -61q-63 0 -97 33t-34 85q0 56 42.5 89.5t149.5 70.5l248 88v170q0 135 -34.5 189.5t-96.5 54.5q-70 0 -108.5 -49.5t-47.5 -118.5q-8 -78 -76 -78q-69 0 -69 62q0 47 61.5 101t148 90t156.5 36q82 0 131.5 -56.5t49.5 -168.5v-363q0 -71 18.5 -104t60.5 -33
q37 0 101 27zM426 80l125 63v13v172l-211 -80q-47 -19 -66.5 -41.5t-19.5 -56.5q0 -42 24.5 -66.5t63.5 -24.5q37 0 84 21z" />
    <glyph glyph-name="Aogonek" unicode="&#x104;" horiz-adv-x="1441" 
d="M1432 18q8 0 8 -11t-8 -11q-43 0 -105.5 3t-91.5 3q-110 0 -186 -74.5t-76 -191.5q0 -100 55.5 -169t165.5 -69q59 0 115 27q5 3 11.5 -5t2.5 -12q-91 -71 -215 -71q-118 0 -186 60t-68 163q0 47 14.5 89t37.5 72.5t51 61t55.5 54.5t50.5 51t37.5 53.5t14 60t-18.5 70.5
l-242 506h-381l-176 -418q-50 -126 -8 -180.5t180 -54.5q9 0 9 -12.5t-9 -12.5q-38 0 -112.5 4t-129.5 4q-51 0 -118 -4t-107 -4q-9 0 -9 12.5t9 12.5q84 0 136 51.5t116 202.5l432 1019q3 6 14.5 6t12.5 -6l483 -1022q69 -148 119.5 -203t116.5 -55zM492 721h342l-181 381z
" />
    <glyph glyph-name="aogonek" unicode="&#x105;" horiz-adv-x="858" 
d="M846 111q9 3 13 -8t-5 -15l-211 -100q-1 -1 -4 -2t-4 -2q-74 -68 -106.5 -134.5t-32.5 -142.5q0 -98 49 -153.5t141 -55.5q70 0 133 47q4 2 9.5 -1t7 -7.5t-1.5 -7.5q-106 -92 -222 -92q-110 0 -169.5 55t-59.5 148q0 170 221 352q-42 27 -51 123l-127 -68
q-116 -61 -184 -61q-63 0 -97 33t-34 85q0 56 42.5 89.5t149.5 70.5l248 88v170q0 135 -34.5 189.5t-96.5 54.5q-70 0 -108.5 -49.5t-47.5 -118.5q-8 -78 -76 -78q-69 0 -69 62q0 47 61.5 101t148 90t156.5 36q82 0 131.5 -56.5t49.5 -168.5v-363q0 -71 18.5 -104t60.5 -33
q37 0 101 27zM426 80l125 63v13v172l-211 -80q-47 -19 -66.5 -41.5t-19.5 -56.5q0 -42 24.5 -66.5t63.5 -24.5q37 0 84 21z" />
    <glyph glyph-name="Cacute" unicode="&#x106;" horiz-adv-x="1370" 
d="M578 1391q-6 -3 -10 1.5t-4 10t3 8.5q75 39 194.5 111.5t139.5 83.5q15 8 89 -25q50 -22 47 -31q-1 -1 -5 -2q-220 -55 -454 -157zM850 1303q99 0 199 -19t159 -53q18 -9 23.5 -18t7.5 -31l23 -230q0 -5 -11 -7t-12 5q-44 158 -167 232.5t-302 74.5q-236 0 -376 -150
t-140 -400q0 -191 79 -353t213 -256t290 -94q147 0 255 81.5t166 248.5q1 7 13 5t12 -7l-29 -232q-5 -26 -9.5 -33t-22.5 -14q-186 -78 -390 -78q-151 0 -276 40.5t-207.5 107t-139.5 155t-82.5 182t-25.5 191.5q0 114 40.5 217.5t112 181.5t165.5 135.5t205 87.5t227 30z
" />
    <glyph glyph-name="cacute" unicode="&#x107;" horiz-adv-x="841" 
d="M457 971q-1 -4 -7 -4t-11.5 2.5t-4.5 5.5l107 491q5 13 72 26q57 10 53 -3zM473 -25q-101 0 -180 35.5t-125.5 94.5t-70 129t-23.5 145q0 99 40 182t104.5 136t143 82.5t158.5 29.5q91 0 165.5 -36t74.5 -89q0 -27 -19.5 -46.5t-52.5 -19.5q-57 0 -90 68q-27 42 -57.5 62
t-87.5 20q-115 0 -179.5 -89.5t-64.5 -238.5q0 -82 20 -151t60 -124t107.5 -86.5t156.5 -31.5q125 0 209 68q5 3 11.5 -5t2.5 -12q-137 -123 -303 -123z" />
    <glyph glyph-name="Ccircumflex" unicode="&#x108;" horiz-adv-x="1370" 
d="M543 1417l211 201q9 9 23.5 9t23.5 -9l209 -201q7 -4 -2 -11q-5 -4 -9 -3l-221 119l-223 -119q-2 -1 -6 2t-6 6.5t0 5.5zM850 1303q99 0 199 -19t159 -53q18 -9 23.5 -18t7.5 -31l23 -230q0 -5 -11 -7t-12 5q-44 158 -167 232.5t-302 74.5q-236 0 -376 -150t-140 -400
q0 -191 79 -353t213 -256t290 -94q147 0 255 81.5t166 248.5q1 7 13 5t12 -7l-29 -232q-5 -26 -9.5 -33t-22.5 -14q-186 -78 -390 -78q-151 0 -276 40.5t-207.5 107t-139.5 155t-82.5 182t-25.5 191.5q0 114 40.5 217.5t112 181.5t165.5 135.5t205 87.5t227 30z" />
    <glyph glyph-name="ccircumflex" unicode="&#x109;" horiz-adv-x="841" 
d="M623 975q3 -4 -6 -7q-13 -4 -15 3l-139 336l-141 -336q-1 -4 -7 -4t-11.5 2.5t-4.5 5.5l139 510q2 11 22.5 11t24.5 -11zM473 -25q-101 0 -180 35.5t-125.5 94.5t-70 129t-23.5 145q0 99 40 182t104.5 136t143 82.5t158.5 29.5q91 0 165.5 -36t74.5 -89
q0 -27 -19.5 -46.5t-52.5 -19.5q-57 0 -90 68q-27 42 -57.5 62t-87.5 20q-115 0 -179.5 -89.5t-64.5 -238.5q0 -82 20 -151t60 -124t107.5 -86.5t156.5 -31.5q125 0 209 68q5 3 11.5 -5t2.5 -12q-137 -123 -303 -123z" />
    <glyph glyph-name="Cdotaccent" unicode="&#x10a;" horiz-adv-x="1370" 
d="M776 1460q-43 0 -66.5 23.5t-23.5 64.5q0 40 24 63t66 23q41 0 63.5 -23t22.5 -63q0 -41 -22.5 -64.5t-63.5 -23.5zM850 1303q99 0 199 -19t159 -53q18 -9 23.5 -18t7.5 -31l23 -230q0 -5 -11 -7t-12 5q-44 158 -167 232.5t-302 74.5q-236 0 -376 -150t-140 -400
q0 -191 79 -353t213 -256t290 -94q147 0 255 81.5t166 248.5q1 7 13 5t12 -7l-29 -232q-5 -26 -9.5 -33t-22.5 -14q-186 -78 -390 -78q-151 0 -276 40.5t-207.5 107t-139.5 155t-82.5 182t-25.5 191.5q0 114 40.5 217.5t112 181.5t165.5 135.5t205 87.5t227 30z" />
    <glyph glyph-name="cdotaccent" unicode="&#x10b;" horiz-adv-x="841" 
d="M461 1049q-43 0 -66.5 22.5t-23.5 63.5t23.5 63.5t66.5 22.5q41 0 63.5 -22.5t22.5 -63.5t-22.5 -63.5t-63.5 -22.5zM473 -25q-101 0 -180 35.5t-125.5 94.5t-70 129t-23.5 145q0 99 40 182t104.5 136t143 82.5t158.5 29.5q91 0 165.5 -36t74.5 -89q0 -27 -19.5 -46.5
t-52.5 -19.5q-57 0 -90 68q-27 42 -57.5 62t-87.5 20q-115 0 -179.5 -89.5t-64.5 -238.5q0 -82 20 -151t60 -124t107.5 -86.5t156.5 -31.5q125 0 209 68q5 3 11.5 -5t2.5 -12q-137 -123 -303 -123z" />
    <glyph glyph-name="Ccaron" unicode="&#x10c;" horiz-adv-x="1370" 
d="M752 1407l-211 199q-2 2 0 5.5t6 6.5t6 2l223 -117l221 117q6 4 12 -6q4 -6 -1 -8l-209 -199q-9 -9 -23.5 -9t-23.5 9zM850 1303q99 0 199 -19t159 -53q18 -9 23.5 -18t7.5 -31l23 -230q0 -5 -11 -7t-12 5q-44 158 -167 232.5t-302 74.5q-236 0 -376 -150t-140 -400
q0 -191 79 -353t213 -256t290 -94q147 0 255 81.5t166 248.5q1 7 13 5t12 -7l-29 -232q-5 -26 -9.5 -33t-22.5 -14q-186 -78 -390 -78q-151 0 -276 40.5t-207.5 107t-139.5 155t-82.5 182t-25.5 191.5q0 114 40.5 217.5t112 181.5t165.5 135.5t205 87.5t227 30z" />
    <glyph glyph-name="ccaron" unicode="&#x10d;" horiz-adv-x="841" 
d="M297 1487q-1 4 4 6.5t11 2.5t7 -3l142 -338l139 338q1 3 7 3t11 -2.5t3 -6.5l-138 -510q-3 -11 -22.5 -11t-24.5 11zM473 -25q-101 0 -180 35.5t-125.5 94.5t-70 129t-23.5 145q0 99 40 182t104.5 136t143 82.5t158.5 29.5q91 0 165.5 -36t74.5 -89q0 -27 -19.5 -46.5
t-52.5 -19.5q-57 0 -90 68q-27 42 -57.5 62t-87.5 20q-115 0 -179.5 -89.5t-64.5 -238.5q0 -82 20 -151t60 -124t107.5 -86.5t156.5 -31.5q125 0 209 68q5 3 11.5 -5t2.5 -12q-137 -123 -303 -123z" />
    <glyph glyph-name="Dcaron" unicode="&#x10e;" horiz-adv-x="1415" 
d="M627 1407l-211 199q-2 2 0 5.5t6 6.5t6 2l223 -117l221 117q6 4 12 -6q4 -6 -1 -8l-209 -199q-9 -9 -23.5 -9t-23.5 9zM621 -8q-37 0 -147 6t-161 6q-48 0 -129.5 -2t-111.5 -2q-4 0 -4 12.5t4 12.5q112 0 144 25.5t32 115.5v948q0 89 -31.5 115t-142.5 26q-4 0 -4 12.5
t4 12.5q31 0 111 -3t128 -3q47 0 145.5 5t133.5 5q160 0 295.5 -48t229 -131t146 -197.5t52.5 -245.5q0 -150 -55.5 -277t-150 -212.5t-221 -133t-267.5 -47.5zM600 23q251 0 405 155.5t154 437.5q0 178 -66.5 322.5t-192.5 229.5t-290 85q-131 0 -180 -27t-49 -116v-922
q0 -91 44.5 -128t174.5 -37z" />
    <glyph glyph-name="dcaron" unicode="&#x10f;" horiz-adv-x="1048" 
d="M1001 1479q0 15 52 -15q51 -31 53 -47l-66 -497q0 -3 -5.5 -3.5t-11 1t-5.5 4.5zM1032 115q9 4 14.5 -7t-2.5 -16l-225 -106q-12 -4 -16 -4q-26 0 -45.5 45t-20.5 125q-77 -81 -159.5 -130t-184.5 -49q-132 0 -225.5 109t-93.5 283q0 89 29.5 165t77 128t109 88.5
t125.5 53.5t126 17q110 0 196 -53v459q0 74 -15 106.5t-52 32.5q-26 0 -95 -29q-6 -3 -10.5 2.5t-4.5 11.5t3 9l260 127q4 2 11 2q5 0 11.5 -5.5t6.5 -11.5v-1243q0 -74 17 -106.5t57 -32.5q58 0 106 29zM473 47q131 0 264 137v451q-101 141 -252 141q-128 0 -203 -91.5
t-75 -258.5q0 -171 75 -275t191 -104z" />
    <glyph glyph-name="Dcroat" unicode="&#x110;" horiz-adv-x="1415" 
d="M592 1284q160 0 295.5 -48t229 -131t146 -197.5t52.5 -245.5q0 -150 -55.5 -277t-150 -212.5t-221 -133t-267.5 -47.5q-37 0 -147 6t-161 6q-48 0 -129.5 -2t-111.5 -2q-4 0 -4 12.5t4 12.5q112 0 144 25.5t32 115.5v450h-139q-9 0 -9 20.5t9 20.5h139v457
q0 89 -31.5 115t-142.5 26q-4 0 -4 12.5t4 12.5q31 0 111 -3t128 -3q47 0 145.5 5t133.5 5zM600 23q251 0 405 155.5t154 437.5q0 178 -66.5 322.5t-192.5 229.5t-290 85q-131 0 -180 -27t-49 -116v-453h278q7 0 7 -20.5t-7 -20.5h-278v-428q0 -91 44.5 -128t174.5 -37z" />
    <glyph glyph-name="dcroat" unicode="&#x111;" horiz-adv-x="1050" 
d="M1032 115q9 4 14.5 -7t-2.5 -16l-225 -106q-12 -4 -16 -4q-26 0 -45.5 45t-20.5 125q-77 -81 -159.5 -130t-184.5 -49q-132 0 -225.5 109t-93.5 283q0 89 29.5 165t77 128t109 88.5t125.5 53.5t126 17q110 0 196 -53v264h-346q-11 0 -11 20.5t11 20.5h346v154
q0 74 -15 106.5t-52 32.5q-26 0 -95 -29q-6 -3 -10.5 2.5t-4.5 11.5t3 9l260 127q4 2 11 2q5 0 11.5 -5.5t6.5 -11.5v-399h135q11 0 11 -20.5t-11 -20.5h-135v-803q0 -74 17 -106.5t57 -32.5q58 0 106 29zM473 47q131 0 264 137v451q-101 141 -252 141q-128 0 -203 -91.5
t-75 -258.5q0 -171 75 -275t191 -104z" />
    <glyph glyph-name="Emacron" unicode="&#x112;" horiz-adv-x="1099" 
d="M340 1479q-12 0 -12 28.5t12 28.5h514q12 0 12 -28.5t-12 -28.5h-514zM973 305q1 6 12.5 4t11.5 -8q-18 -130 -18 -270q0 -17 -7 -24t-26 -7h-858q-4 0 -4 12.5t4 12.5q112 0 144 25.5t32 115.5v948q0 88 -32 114.5t-144 26.5q-4 0 -4 12.5t4 12.5h823q19 0 19 -18
l4 -252q0 -6 -11 -7t-12 5q-6 108 -65.5 168.5t-157.5 60.5h-125q-103 0 -134.5 -25.5t-31.5 -107.5v-416h250q98 0 140 33t42 110q0 5 12.5 5t12.5 -5q0 -45 -1 -94t-1 -71q0 -31 2 -92t2 -97q0 -5 -12.5 -5t-12.5 5q0 90 -44 129t-146 39h-244v-471q0 -82 30 -106.5
t130 -24.5h164q97 0 163.5 70t88.5 192z" />
    <glyph glyph-name="emacron" unicode="&#x113;" horiz-adv-x="835" 
d="M207 989q-12 0 -12 29t12 29h514q12 0 12 -29t-12 -29h-514zM743 115q5 3 12 -6t3 -15q-139 -119 -299 -119q-92 0 -167 33t-121.5 89t-71.5 125.5t-25 146.5q0 186 126.5 313t313.5 127q111 0 172.5 -54t61.5 -149q0 -47 -25 -47l-504 -4q-10 -55 -10 -106
q0 -179 86 -290.5t237 -111.5q116 0 211 68zM444 768q-84 0 -139.5 -47.5t-79.5 -136.5l381 8q0 84 -43.5 130t-118.5 46z" />
    <glyph glyph-name="Ebreve" unicode="&#x114;" horiz-adv-x="1099" 
d="M598 1413q-87 0 -141.5 57t-69.5 162q-1 5 4 7.5t11 2t8 -3.5q14 -56 68.5 -96.5t119.5 -40.5q64 0 118 40.5t68 96.5q1 3 7 3.5t11.5 -2t4.5 -7.5q-15 -105 -68.5 -162t-140.5 -57zM973 305q1 6 12.5 4t11.5 -8q-18 -130 -18 -270q0 -17 -7 -24t-26 -7h-858
q-4 0 -4 12.5t4 12.5q112 0 144 25.5t32 115.5v948q0 88 -32 114.5t-144 26.5q-4 0 -4 12.5t4 12.5h823q19 0 19 -18l4 -252q0 -6 -11 -7t-12 5q-6 108 -65.5 168.5t-157.5 60.5h-125q-103 0 -134.5 -25.5t-31.5 -107.5v-416h250q98 0 140 33t42 110q0 5 12.5 5t12.5 -5
q0 -45 -1 -94t-1 -71q0 -31 2 -92t2 -97q0 -5 -12.5 -5t-12.5 5q0 90 -44 129t-146 39h-244v-471q0 -82 30 -106.5t130 -24.5h164q97 0 163.5 70t88.5 192z" />
    <glyph glyph-name="ebreve" unicode="&#x115;" horiz-adv-x="835" 
d="M465 969q-103 0 -157 78.5t-54 228.5q0 5 5.5 7.5t11 2t5.5 -3.5q0 -90 54 -150.5t135 -60.5q78 0 132 61t54 150q0 3 5.5 3.5t11.5 -2t6 -7.5q0 -151 -53 -229t-156 -78zM743 115q5 3 12 -6t3 -15q-139 -119 -299 -119q-92 0 -167 33t-121.5 89t-71.5 125.5t-25 146.5
q0 186 126.5 313t313.5 127q111 0 172.5 -54t61.5 -149q0 -47 -25 -47l-504 -4q-10 -55 -10 -106q0 -179 86 -290.5t237 -111.5q116 0 211 68zM444 768q-84 0 -139.5 -47.5t-79.5 -136.5l381 8q0 84 -43.5 130t-118.5 46z" />
    <glyph glyph-name="Edotaccent" unicode="&#x116;" horiz-adv-x="1099" 
d="M598 1460q-43 0 -66.5 23.5t-23.5 64.5q0 40 24 63t66 23q41 0 63.5 -23t22.5 -63q0 -41 -22.5 -64.5t-63.5 -23.5zM973 305q1 6 12.5 4t11.5 -8q-18 -130 -18 -270q0 -17 -7 -24t-26 -7h-858q-4 0 -4 12.5t4 12.5q112 0 144 25.5t32 115.5v948q0 88 -32 114.5t-144 26.5
q-4 0 -4 12.5t4 12.5h823q19 0 19 -18l4 -252q0 -6 -11 -7t-12 5q-6 108 -65.5 168.5t-157.5 60.5h-125q-103 0 -134.5 -25.5t-31.5 -107.5v-416h250q98 0 140 33t42 110q0 5 12.5 5t12.5 -5q0 -45 -1 -94t-1 -71q0 -31 2 -92t2 -97q0 -5 -12.5 -5t-12.5 5q0 90 -44 129
t-146 39h-244v-471q0 -82 30 -106.5t130 -24.5h164q97 0 163.5 70t88.5 192z" />
    <glyph glyph-name="edotaccent" unicode="&#x117;" horiz-adv-x="835" 
d="M465 1049q-43 0 -66.5 22.5t-23.5 63.5t23.5 63.5t66.5 22.5q41 0 63.5 -22.5t22.5 -63.5t-22.5 -63.5t-63.5 -22.5zM743 115q5 3 12 -6t3 -15q-139 -119 -299 -119q-92 0 -167 33t-121.5 89t-71.5 125.5t-25 146.5q0 186 126.5 313t313.5 127q111 0 172.5 -54t61.5 -149
q0 -47 -25 -47l-504 -4q-10 -55 -10 -106q0 -179 86 -290.5t237 -111.5q116 0 211 68zM444 768q-84 0 -139.5 -47.5t-79.5 -136.5l381 8q0 84 -43.5 130t-118.5 46z" />
    <glyph glyph-name="Eogonek" unicode="&#x118;" horiz-adv-x="1099" 
d="M1018 -455q4 2 9 -1t6.5 -7.5t-1.5 -7.5q-106 -92 -221 -92q-110 0 -169.5 55t-59.5 148q0 177 229 360h-723q-4 0 -4 12.5t4 12.5q112 0 144 25.5t32 115.5v948q0 88 -32 114.5t-144 26.5q-4 0 -4 12.5t4 12.5h823q19 0 19 -18l4 -252q0 -6 -11 -7t-12 5
q-6 108 -65.5 168.5t-157.5 60.5h-125q-103 0 -134.5 -25.5t-31.5 -107.5v-416h250q98 0 140 33t42 110q0 5 12.5 5t12.5 -5q0 -45 -1 -94t-1 -71q0 -31 2 -92t2 -97q0 -5 -12.5 -5t-12.5 5q0 90 -44 129t-146 39h-244v-471q0 -82 30 -106.5t130 -24.5h164q97 0 163.5 70
t88.5 192q1 6 12.5 4t11.5 -8q-18 -130 -18 -270q0 -17 -7 -24t-26 -7h-96q-83 -75 -119.5 -144t-36.5 -149q0 -98 49.5 -153.5t141.5 -55.5q70 0 133 47z" />
    <glyph glyph-name="eogonek" unicode="&#x119;" horiz-adv-x="835" 
d="M756 -455q4 2 9 -1t6.5 -7.5t-1.5 -7.5q-95 -92 -199 -92q-101 0 -155 52.5t-54 143.5q0 177 226 363q-62 -21 -129 -21q-92 0 -167 33t-121.5 89t-71.5 125.5t-25 146.5q0 186 126.5 313t313.5 127q111 0 172.5 -54t61.5 -149q0 -47 -25 -47l-504 -4q-10 -55 -10 -106
q0 -179 86 -290.5t237 -111.5q116 0 211 68q5 3 12 -6t3 -15q-44 -34 -68 -49q-110 -91 -160.5 -174.5t-50.5 -175.5q0 -95 41.5 -147t118.5 -52q27 0 50 8t36 16.5t31 24.5zM444 768q-84 0 -139.5 -47.5t-79.5 -136.5l381 8q0 84 -43.5 130t-118.5 46z" />
    <glyph glyph-name="Ecaron" unicode="&#x11a;" horiz-adv-x="1099" 
d="M362 1606q-2 2 0 5.5t6.5 6.5t6.5 2l223 -117l221 117q3 2 7 -1t5 -7t-2 -6l-208 -199q-9 -9 -24 -9t-24 9zM973 305q1 6 12.5 4t11.5 -8q-18 -130 -18 -270q0 -17 -7 -24t-26 -7h-858q-4 0 -4 12.5t4 12.5q112 0 144 25.5t32 115.5v948q0 88 -32 114.5t-144 26.5
q-4 0 -4 12.5t4 12.5h823q19 0 19 -18l4 -252q0 -6 -11 -7t-12 5q-6 108 -65.5 168.5t-157.5 60.5h-125q-103 0 -134.5 -25.5t-31.5 -107.5v-416h250q98 0 140 33t42 110q0 5 12.5 5t12.5 -5q0 -45 -1 -94t-1 -71q0 -31 2 -92t2 -97q0 -5 -12.5 -5t-12.5 5q0 90 -44 129
t-146 39h-244v-471q0 -82 30 -106.5t130 -24.5h164q97 0 163.5 70t88.5 192z" />
    <glyph glyph-name="ecaron" unicode="&#x11b;" horiz-adv-x="835" 
d="M440 977l-139 510q-1 4 4.5 6.5t11.5 2.5t7 -3l141 -338l139 338q1 3 7 3t11 -2.5t3 -6.5l-138 -510q-3 -11 -23 -11t-24 11zM743 115q5 3 12 -6t3 -15q-139 -119 -299 -119q-92 0 -167 33t-121.5 89t-71.5 125.5t-25 146.5q0 186 126.5 313t313.5 127q111 0 172.5 -54
t61.5 -149q0 -47 -25 -47l-504 -4q-10 -55 -10 -106q0 -179 86 -290.5t237 -111.5q116 0 211 68zM444 768q-84 0 -139.5 -47.5t-79.5 -136.5l381 8q0 84 -43.5 130t-118.5 46z" />
    <glyph glyph-name="Gcircumflex" unicode="&#x11c;" horiz-adv-x="1462" 
d="M573 1417l211 201q9 9 23.5 9t23.5 -9l209 -201q3 -2 2 -6t-5 -7t-7 -1l-221 119l-223 -119q-2 -1 -6.5 2t-6.5 6.5t0 5.5zM829 -25q-169 0 -308 51t-230 139t-141 206.5t-50 253.5q0 198 101.5 353.5t279 240t400.5 84.5q219 0 340 -74q5 -3 9 -6t6.5 -6t4 -5t2.5 -6.5
t1 -6t0.5 -8t0.5 -9.5l25 -230q0 -5 -12 -7t-13 5q-44 148 -161.5 227.5t-290.5 79.5q-258 0 -399.5 -149t-141.5 -410q0 -198 81.5 -355.5t224.5 -245t321 -87.5q79 0 126.5 9t82.5 36t49 75.5t14 127.5q0 55 -2 85.5t-11 58.5t-21.5 40t-41.5 21.5t-63 11.5t-92 2
q-8 0 -11 8.5t-0.5 16.5t9.5 8q229 -16 458 -4q9 0 9.5 -14.5t-9.5 -14.5q-25 1 -40 -1t-28 -12t-18.5 -23.5t-9.5 -44t-5 -64.5t-1 -94q0 -82 7 -129.5t7 -51.5q0 -11 -4 -15t-18 -9q-248 -58 -437 -58z" />
    <glyph glyph-name="gcircumflex" unicode="&#x11d;" horiz-adv-x="886" 
d="M295 971q-1 -4 -7 -4t-11.5 2.5t-4.5 5.5l140 510q2 11 22 11t25 -11l137 -510q3 -4 -6 -7q-13 -4 -15 3l-139 336zM455 66q164 -25 207 -36q154 -39 189 -135q13 -33 13 -75q0 -69 -41 -140.5t-108.5 -128.5t-163 -93t-197.5 -36q-145 0 -234 70t-89 178q0 164 233 318
q-139 41 -139 139q0 112 147 211q-80 29 -123 89.5t-43 135.5q0 105 90.5 173.5t227.5 68.5q135 0 209 -64q109 66 219 66q12 0 12 -45q0 -47 -13 -67q-4 -5 -7 -3q-3 1 -19 7t-25 8.5t-25.5 7t-32.5 6.5t-33 2q-24 0 -52 -4q54 -63 54 -146q0 -107 -86 -181.5t-224 -74.5
q-54 0 -104 13q-76 -53 -76 -131q0 -23 8.5 -41.5t27.5 -32t37 -22.5t50.5 -16.5t52.5 -11t58 -9.5zM373 774q-63 0 -100 -41t-37 -127q0 -119 62 -189.5t146 -70.5q61 0 100.5 45.5t39.5 140.5q0 107 -63 174.5t-148 67.5zM436 -516q149 0 235.5 78t86.5 186q0 35 -11.5 63
t-26.5 47.5t-46.5 36t-53 25.5t-66.5 18t-67 12t-72 10q-5 1 -7.5 1t-7 1t-7.5 1q-61 8 -88 14q-73 -47 -113 -102t-40 -139q0 -116 76 -184t208 -68z" />
    <glyph glyph-name="Gbreve" unicode="&#x11e;" horiz-adv-x="1462" 
d="M807 1413q-87 0 -141.5 57t-69.5 162q-1 7 9 9t13 -3q14 -56 69 -96.5t120 -40.5q64 0 118 40.5t68 96.5q1 3 7 3.5t11.5 -2t4.5 -7.5q-15 -105 -68.5 -162t-140.5 -57zM829 -25q-169 0 -308 51t-230 139t-141 206.5t-50 253.5q0 198 101.5 353.5t279 240t400.5 84.5
q219 0 340 -74q5 -3 9 -6t6.5 -6t4 -5t2.5 -6.5t1 -6t0.5 -8t0.5 -9.5l25 -230q0 -5 -12 -7t-13 5q-44 148 -161.5 227.5t-290.5 79.5q-258 0 -399.5 -149t-141.5 -410q0 -198 81.5 -355.5t224.5 -245t321 -87.5q79 0 126.5 9t82.5 36t49 75.5t14 127.5q0 55 -2 85.5
t-11 58.5t-21.5 40t-41.5 21.5t-63 11.5t-92 2q-8 0 -11 8.5t-0.5 16.5t9.5 8q229 -16 458 -4q9 0 9.5 -14.5t-9.5 -14.5q-25 1 -40 -1t-28 -12t-18.5 -23.5t-9.5 -44t-5 -64.5t-1 -94q0 -82 7 -129.5t7 -51.5q0 -11 -4 -15t-18 -9q-248 -58 -437 -58z" />
    <glyph glyph-name="gbreve" unicode="&#x11f;" horiz-adv-x="886" 
d="M434 969q-103 0 -157 78.5t-54 228.5q0 5 5.5 7.5t11.5 2t6 -3.5q0 -90 53.5 -150.5t134.5 -60.5q78 0 132.5 61t54.5 150q0 3 5.5 3.5t11 -2t5.5 -7.5q0 -151 -53 -229t-156 -78zM455 66q164 -25 207 -36q154 -39 189 -135q13 -33 13 -75q0 -69 -41 -140.5
t-108.5 -128.5t-163 -93t-197.5 -36q-145 0 -234 70t-89 178q0 164 233 318q-139 41 -139 139q0 112 147 211q-80 29 -123 89.5t-43 135.5q0 105 90.5 173.5t227.5 68.5q135 0 209 -64q109 66 219 66q12 0 12 -45q0 -47 -13 -67q-4 -5 -7 -3q-3 1 -19 7t-25 8.5t-25.5 7
t-32.5 6.5t-33 2q-24 0 -52 -4q54 -63 54 -146q0 -107 -86 -181.5t-224 -74.5q-54 0 -104 13q-76 -53 -76 -131q0 -23 8.5 -41.5t27.5 -32t37 -22.5t50.5 -16.5t52.5 -11t58 -9.5zM373 774q-63 0 -100 -41t-37 -127q0 -119 62 -189.5t146 -70.5q61 0 100.5 45.5t39.5 140.5
q0 107 -63 174.5t-148 67.5zM436 -516q149 0 235.5 78t86.5 186q0 35 -11.5 63t-26.5 47.5t-46.5 36t-53 25.5t-66.5 18t-67 12t-72 10q-5 1 -7.5 1t-7 1t-7.5 1q-61 8 -88 14q-73 -47 -113 -102t-40 -139q0 -116 76 -184t208 -68z" />
    <glyph glyph-name="Gdotaccent" unicode="&#x120;" horiz-adv-x="1462" 
d="M807 1460q-43 0 -66.5 23.5t-23.5 64.5q0 40 24 63t66 23q41 0 63.5 -23t22.5 -63q0 -41 -22.5 -64.5t-63.5 -23.5zM829 -25q-169 0 -308 51t-230 139t-141 206.5t-50 253.5q0 198 101.5 353.5t279 240t400.5 84.5q219 0 340 -74q5 -3 9 -6t6.5 -6t4 -5t2.5 -6.5t1 -6
t0.5 -8t0.5 -9.5l25 -230q0 -5 -12 -7t-13 5q-44 148 -161.5 227.5t-290.5 79.5q-258 0 -399.5 -149t-141.5 -410q0 -198 81.5 -355.5t224.5 -245t321 -87.5q79 0 126.5 9t82.5 36t49 75.5t14 127.5q0 55 -2 85.5t-11 58.5t-21.5 40t-41.5 21.5t-63 11.5t-92 2q-8 0 -11 8.5
t-0.5 16.5t9.5 8q229 -16 458 -4q9 0 9.5 -14.5t-9.5 -14.5q-25 1 -40 -1t-28 -12t-18.5 -23.5t-9.5 -44t-5 -64.5t-1 -94q0 -82 7 -129.5t7 -51.5q0 -11 -4 -15t-18 -9q-248 -58 -437 -58z" />
    <glyph glyph-name="gdotaccent" unicode="&#x121;" horiz-adv-x="886" 
d="M434 1049q-43 0 -66.5 22.5t-23.5 63.5t23.5 63.5t66.5 22.5q41 0 63.5 -22.5t22.5 -63.5t-22.5 -63.5t-63.5 -22.5zM455 66q164 -25 207 -36q154 -39 189 -135q13 -33 13 -75q0 -69 -41 -140.5t-108.5 -128.5t-163 -93t-197.5 -36q-145 0 -234 70t-89 178q0 164 233 318
q-139 41 -139 139q0 112 147 211q-80 29 -123 89.5t-43 135.5q0 105 90.5 173.5t227.5 68.5q135 0 209 -64q109 66 219 66q12 0 12 -45q0 -47 -13 -67q-4 -5 -7 -3q-3 1 -19 7t-25 8.5t-25.5 7t-32.5 6.5t-33 2q-24 0 -52 -4q54 -63 54 -146q0 -107 -86 -181.5t-224 -74.5
q-54 0 -104 13q-76 -53 -76 -131q0 -23 8.5 -41.5t27.5 -32t37 -22.5t50.5 -16.5t52.5 -11t58 -9.5zM373 774q-63 0 -100 -41t-37 -127q0 -119 62 -189.5t146 -70.5q61 0 100.5 45.5t39.5 140.5q0 107 -63 174.5t-148 67.5zM436 -516q149 0 235.5 78t86.5 186q0 35 -11.5 63
t-26.5 47.5t-46.5 36t-53 25.5t-66.5 18t-67 12t-72 10q-5 1 -7.5 1t-7 1t-7.5 1q-61 8 -88 14q-73 -47 -113 -102t-40 -139q0 -116 76 -184t208 -68z" />
    <glyph glyph-name="Gcommaaccent" unicode="&#x122;" horiz-adv-x="1462" 
d="M1376 506q9 0 9.5 -14.5t-9.5 -14.5q-25 1 -40 -1t-28 -12t-18.5 -23.5t-9.5 -44t-5 -64.5t-1 -94q0 -82 7 -129.5t7 -51.5q0 -11 -4 -15t-18 -9q-248 -58 -437 -58q-169 0 -308 51t-230 139t-141 206.5t-50 253.5q0 198 101.5 353.5t279 240t400.5 84.5q219 0 340 -74
q5 -3 9 -6t6.5 -6t4 -5t2.5 -6.5t1 -6t0.5 -8t0.5 -9.5l25 -230q0 -5 -12 -7t-13 5q-44 148 -161.5 227.5t-290.5 79.5q-258 0 -399.5 -149t-141.5 -410q0 -198 81.5 -355.5t224.5 -245t321 -87.5q79 0 126.5 9t82.5 36t49 75.5t14 127.5q0 55 -2 85.5t-11 58.5t-21.5 40
t-41.5 21.5t-63 11.5t-92 2q-8 0 -11 8.5t-0.5 16.5t9.5 8q229 -16 458 -4zM842 -174q57 0 86.5 -39t29.5 -111q0 -125 -124 -239q-5 -3 -11 -0.5t-7.5 7.5t1.5 9q90 78 90 182q0 42 -12 60q-15 -31 -61 -31q-36 0 -58 22t-22 58q0 82 88 82z" />
    <glyph glyph-name="gcommaaccent" unicode="&#x123;" horiz-adv-x="886" 
d="M446 993q-57 0 -86.5 39t-29.5 111q0 124 125 239q7 4 14.5 -3t1.5 -13q-90 -78 -90 -182q0 -42 12 -60q15 31 62 31q36 0 58 -22t22 -58q0 -82 -89 -82zM455 66q164 -25 207 -36q154 -39 189 -135q13 -33 13 -75q0 -69 -41 -140.5t-108.5 -128.5t-163 -93t-197.5 -36
q-145 0 -234 70t-89 178q0 164 233 318q-139 41 -139 139q0 112 147 211q-80 29 -123 89.5t-43 135.5q0 105 90.5 173.5t227.5 68.5q135 0 209 -64q109 66 219 66q12 0 12 -45q0 -47 -13 -67q-4 -5 -7 -3q-3 1 -19 7t-25 8.5t-25.5 7t-32.5 6.5t-33 2q-24 0 -52 -4
q54 -63 54 -146q0 -107 -86 -181.5t-224 -74.5q-54 0 -104 13q-76 -53 -76 -131q0 -23 8.5 -41.5t27.5 -32t37 -22.5t50.5 -16.5t52.5 -11t58 -9.5zM373 774q-63 0 -100 -41t-37 -127q0 -119 62 -189.5t146 -70.5q61 0 100.5 45.5t39.5 140.5q0 107 -63 174.5t-148 67.5z
M436 -516q149 0 235.5 78t86.5 186q0 35 -11.5 63t-26.5 47.5t-46.5 36t-53 25.5t-66.5 18t-67 12t-72 10q-5 1 -7.5 1t-7 1t-7.5 1q-61 8 -88 14q-73 -47 -113 -102t-40 -139q0 -116 76 -184t208 -68z" />
    <glyph glyph-name="Hcircumflex" unicode="&#x124;" horiz-adv-x="1554" 
d="M557 1403q-2 -1 -6 2t-6 6.5t0 5.5l211 201q9 9 23.5 9t23.5 -9l209 -201q7 -4 -2 -11q-5 -4 -9 -3l-221 119zM1479 25q6 0 6 -12.5t-6 -12.5q-28 0 -111 2t-131 2q-54 0 -136.5 -2t-111.5 -2q-6 0 -6 12.5t6 12.5q116 0 148 25.5t32 115.5v479h-786v-479
q0 -90 32 -115.5t148 -25.5q5 0 5 -12.5t-5 -12.5q-30 0 -112 2t-136 2q-48 0 -130.5 -2t-112.5 -2q-4 0 -4 12.5t4 12.5q114 0 147 26t33 115v948q0 88 -32.5 114.5t-145.5 26.5q-4 0 -4 12.5t4 12.5q31 0 112 -3t129 -3q54 0 136.5 3t111.5 3q5 0 5 -12.5t-5 -12.5
q-114 0 -147 -28t-33 -117v-422h786v422q0 90 -32.5 117.5t-147.5 27.5q-6 0 -6 12.5t6 12.5q29 0 111.5 -3t136.5 -3q48 0 131 3t111 3q6 0 6 -12.5t-6 -12.5q-113 0 -146 -26.5t-33 -114.5v-948q0 -89 32.5 -115t146.5 -26z" />
    <glyph glyph-name="hcircumflex" unicode="&#x125;" horiz-adv-x="1021" 
d="M35 1475q-2 -1 -6 2t-6 6.5t0 5.5l210 201q9 9 24 9t24 -9l208 -201q3 -2 2 -6t-5 -7t-7 -1l-221 118zM977 25q6 0 6 -12.5t-6 -12.5q-22 0 -84.5 2t-101.5 2t-102 -2t-85 -2q-6 0 -6 12.5t6 12.5q80 0 104.5 26.5t24.5 114.5v326q0 121 -46 179t-142 58
q-64 0 -129 -33.5t-119 -93.5v-436q0 -88 24.5 -114.5t104.5 -26.5q6 0 6 -12.5t-6 -12.5q-22 0 -84.5 2t-101.5 2t-102 -2t-85 -2q-6 0 -6 12.5t6 12.5q80 0 104.5 26.5t24.5 114.5v1059q0 74 -14.5 106.5t-50.5 32.5q-28 0 -94 -29q-5 -3 -10 2.5t-5.5 11.5t4.5 9l260 127
h7q7 0 12.5 -5.5t5.5 -11.5v-831q150 174 315 174q114 0 175 -63t61 -185v-397q0 -88 24.5 -114.5t104.5 -26.5z" />
    <glyph glyph-name="Hbar" unicode="&#x126;" horiz-adv-x="1554" 
d="M1479 25q6 0 6 -12.5t-6 -12.5q-28 0 -111 2t-131 2q-54 0 -136.5 -2t-111.5 -2q-6 0 -6 12.5t6 12.5q116 0 148 25.5t32 115.5v287h-786v-287q0 -90 32 -115.5t148 -25.5q5 0 5 -12.5t-5 -12.5q-30 0 -112 2t-136 2q-48 0 -130.5 -2t-112.5 -2q-4 0 -4 12.5t4 12.5
q114 0 147 26t33 115v948q0 88 -32.5 114.5t-145.5 26.5q-4 0 -4 12.5t4 12.5q31 0 112 -3t129 -3q54 0 136.5 3t111.5 3q5 0 5 -12.5t-5 -12.5q-114 0 -147 -28t-33 -117v-231h786v231q0 90 -32.5 117.5t-147.5 27.5q-6 0 -6 12.5t6 12.5q29 0 111.5 -3t136.5 -3
q48 0 131 3t111 3q6 0 6 -12.5t-6 -12.5q-113 0 -146 -26.5t-33 -114.5v-948q0 -89 32.5 -115t146.5 -26zM383 496h786v340h-786v-340z" />
    <glyph glyph-name="hbar" unicode="&#x127;" horiz-adv-x="1021" 
d="M977 25q6 0 6 -12.5t-6 -12.5q-22 0 -84.5 2t-101.5 2t-102 -2t-85 -2q-6 0 -6 12.5t6 12.5q80 0 104.5 26.5t24.5 114.5v326q0 121 -46 179t-142 58q-64 0 -129 -33.5t-119 -93.5v-436q0 -88 24.5 -114.5t104.5 -26.5q6 0 6 -12.5t-6 -12.5q-22 0 -84.5 2t-101.5 2
t-102 -2t-85 -2q-6 0 -6 12.5t6 12.5q80 0 104.5 26.5t24.5 114.5v862h-157q-11 0 -11 20.5t11 20.5h157v156q0 74 -14.5 106.5t-50.5 32.5q-28 0 -94 -29q-5 -3 -10 2.5t-5.5 11.5t4.5 9l260 127h7q7 0 12.5 -5.5t5.5 -11.5v-399h326q9 0 9 -20.5t-9 -20.5h-326v-391
q150 174 315 174q114 0 175 -63t61 -185v-397q0 -88 24.5 -114.5t104.5 -26.5z" />
    <glyph glyph-name="Itilde" unicode="&#x128;" horiz-adv-x="679" 
d="M82 1427q-2 -2 -6 0.5t-7 7t-1 7.5q33 49 79.5 89t94.5 40q31 0 116.5 -25.5t139.5 -25.5q36 0 56.5 13t45.5 42q1 1 3.5 1t4.5 -1.5t4 -4t2.5 -5t-0.5 -4.5q-55 -76 -89 -101.5t-72 -25.5q-45 0 -131 24.5t-138 24.5q-16 0 -28.5 -2t-24.5 -10t-16 -11t-17.5 -17
t-15.5 -16zM408 166q0 -90 31 -115.5t143 -25.5q6 0 6 -12.5t-6 -12.5q-29 0 -110 2t-134 2q-49 0 -130.5 -2t-111.5 -2q-6 0 -6 12.5t6 12.5q112 0 144 25.5t32 115.5v948q0 88 -32 114.5t-144 26.5q-6 0 -6 12.5t6 12.5q30 0 111.5 -3t130.5 -3q53 0 135 3t109 3
q6 0 6 -12.5t-6 -12.5q-109 0 -141.5 -28t-32.5 -117v-944z" />
    <glyph glyph-name="itilde" unicode="&#x129;" horiz-adv-x="559" 
d="M391 1073q25 0 45.5 9t30.5 18.5t25 27.5q5 3 11.5 -3.5t2.5 -10.5q-54 -74 -88.5 -100.5t-71.5 -26.5q-28 0 -83.5 25.5t-90.5 25.5q-11 0 -21 -1.5t-19 -5t-14.5 -6.5t-13.5 -9.5t-11.5 -9.5t-11.5 -11.5t-11 -11.5t-10.5 2.5t-4.5 11.5q97 125 174 125q20 0 74 -24.5
t88 -24.5zM109 0q-5 0 -5 12.5t5 12.5q80 0 105.5 27t25.5 114v383q0 74 -15.5 106.5t-52.5 32.5q-35 0 -92 -29q-9 -3 -13.5 8.5t1.5 16.5l266 123l8 2q5 0 10.5 -5t5.5 -11q0 -7 -1 -41t-2 -88.5t-1 -112.5v-385q0 -88 24 -114.5t105 -26.5q6 0 6 -12.5t-6 -12.5
q-22 0 -84.5 2t-101.5 2t-102 -2t-86 -2z" />
    <glyph glyph-name="Imacron" unicode="&#x12a;" horiz-adv-x="679" 
d="M82 1479q-12 0 -12 28.5t12 28.5h514q12 0 12 -28.5t-12 -28.5h-514zM408 166q0 -90 31 -115.5t143 -25.5q6 0 6 -12.5t-6 -12.5q-29 0 -110 2t-134 2q-49 0 -130.5 -2t-111.5 -2q-6 0 -6 12.5t6 12.5q112 0 144 25.5t32 115.5v948q0 88 -32 114.5t-144 26.5
q-6 0 -6 12.5t6 12.5q30 0 111.5 -3t130.5 -3q53 0 135 3t109 3q6 0 6 -12.5t-6 -12.5q-109 0 -141.5 -28t-32.5 -117v-944z" />
    <glyph glyph-name="imacron" unicode="&#x12b;" horiz-adv-x="559" 
d="M23 989q-12 0 -12 29t12 29h514q12 0 12 -29t-12 -29h-514zM109 0q-5 0 -5 12.5t5 12.5q80 0 105.5 27t25.5 114v383q0 74 -15.5 106.5t-52.5 32.5q-35 0 -92 -29q-9 -3 -13.5 8.5t1.5 16.5l266 123l8 2q5 0 10.5 -5t5.5 -11q0 -7 -1 -41t-2 -88.5t-1 -112.5v-385
q0 -88 24 -114.5t105 -26.5q6 0 6 -12.5t-6 -12.5q-22 0 -84.5 2t-101.5 2t-102 -2t-86 -2z" />
    <glyph glyph-name="Ibreve" unicode="&#x12c;" horiz-adv-x="679" 
d="M340 1413q-87 0 -141.5 57t-69.5 162q-1 5 4 7.5t11 2t8 -3.5q14 -56 68.5 -96.5t119.5 -40.5q64 0 118 40.5t68 96.5q1 3 7 3.5t11.5 -2t4.5 -7.5q-15 -105 -68.5 -162t-140.5 -57zM408 166q0 -90 31 -115.5t143 -25.5q6 0 6 -12.5t-6 -12.5q-29 0 -110 2t-134 2
q-49 0 -130.5 -2t-111.5 -2q-6 0 -6 12.5t6 12.5q112 0 144 25.5t32 115.5v948q0 88 -32 114.5t-144 26.5q-6 0 -6 12.5t6 12.5q30 0 111.5 -3t130.5 -3q53 0 135 3t109 3q6 0 6 -12.5t-6 -12.5q-109 0 -141.5 -28t-32.5 -117v-944z" />
    <glyph glyph-name="ibreve" unicode="&#x12d;" horiz-adv-x="559" 
d="M70 1276q0 5 5.5 7.5t11 2t5.5 -3.5q0 -90 54 -150.5t135 -60.5q78 0 132 61t54 150q0 3 5.5 3.5t11 -2t5.5 -7.5q0 -151 -52.5 -229t-155.5 -78t-157 78.5t-54 228.5zM109 0q-5 0 -5 12.5t5 12.5q80 0 105.5 27t25.5 114v383q0 74 -15.5 106.5t-52.5 32.5q-35 0 -92 -29
q-9 -3 -13.5 8.5t1.5 16.5l266 123l8 2q5 0 10.5 -5t5.5 -11q0 -7 -1 -41t-2 -88.5t-1 -112.5v-385q0 -88 24 -114.5t105 -26.5q6 0 6 -12.5t-6 -12.5q-22 0 -84.5 2t-101.5 2t-102 -2t-86 -2z" />
    <glyph glyph-name="Iogonek" unicode="&#x12e;" horiz-adv-x="679" 
d="M582 25q6 0 6 -12.5t-6 -12.5q-27 0 -101 2t-123 2q-100 -131 -100 -287q0 -99 46.5 -158t125.5 -59q25 0 46.5 7.5t30.5 14t30 23.5q5 3 11.5 -4.5t2.5 -11.5q-51 -50 -96.5 -71t-100.5 -21q-98 0 -153.5 54.5t-55.5 146.5q0 179 181 366q-47 0 -124.5 -2t-105.5 -2
q-6 0 -6 12.5t6 12.5q112 0 144 25.5t32 115.5v948q0 88 -32 114.5t-144 26.5q-6 0 -6 12.5t6 12.5q30 0 111.5 -3t130.5 -3q53 0 135 3t109 3q6 0 6 -12.5t-6 -12.5q-109 0 -141.5 -28t-32.5 -117v-944q0 -90 31 -115.5t143 -25.5z" />
    <glyph glyph-name="iogonek" unicode="&#x12f;" horiz-adv-x="559" 
d="M281 1049q-43 0 -67 22.5t-24 63.5t24 63.5t67 22.5q41 0 63.5 -22.5t22.5 -63.5t-22.5 -63.5t-63.5 -22.5zM489 -440q5 3 12 -5t3 -12q-51 -50 -96.5 -71t-100.5 -21q-98 0 -153.5 54.5t-55.5 146.5q0 174 166 352q-118 -4 -155 -4q-5 0 -5 12.5t5 12.5q80 0 105.5 27
t25.5 114v383q0 74 -15.5 106.5t-52.5 32.5q-35 0 -92 -29q-9 -3 -13.5 8.5t1.5 16.5l266 123l8 2q5 0 10.5 -5t5.5 -11q0 -7 -1 -41t-2 -88.5t-1 -112.5v-385q0 -88 24 -114.5t105 -26.5q6 0 6 -12.5t-6 -12.5q-22 0 -83 2t-99 2q-90 -126 -90 -272q0 -99 46.5 -158
t125.5 -59q25 0 46 8t29.5 14t30.5 23z" />
    <glyph glyph-name="Idotaccent" unicode="&#x130;" horiz-adv-x="679" 
d="M340 1460q-43 0 -66.5 23.5t-23.5 64.5q0 40 24 63t66 23q41 0 63.5 -23t22.5 -63q0 -41 -22.5 -64.5t-63.5 -23.5zM408 166q0 -90 31 -115.5t143 -25.5q6 0 6 -12.5t-6 -12.5q-29 0 -110 2t-134 2q-49 0 -130.5 -2t-111.5 -2q-6 0 -6 12.5t6 12.5q112 0 144 25.5
t32 115.5v948q0 88 -32 114.5t-144 26.5q-6 0 -6 12.5t6 12.5q30 0 111.5 -3t130.5 -3q53 0 135 3t109 3q6 0 6 -12.5t-6 -12.5q-109 0 -141.5 -28t-32.5 -117v-944z" />
    <glyph glyph-name="dotlessi" unicode="&#x131;" horiz-adv-x="559" 
d="M109 0q-5 0 -5 12.5t5 12.5q80 0 105.5 27t25.5 114v383q0 74 -15.5 106.5t-52.5 32.5q-35 0 -92 -29q-9 -3 -13.5 8.5t1.5 16.5l266 123l8 2q5 0 10.5 -5t5.5 -11q0 -7 -1 -41t-2 -88.5t-1 -112.5v-385q0 -88 24 -114.5t105 -26.5q6 0 6 -12.5t-6 -12.5q-22 0 -84.5 2
t-101.5 2t-102 -2t-86 -2z" />
    <glyph glyph-name="IJ" unicode="&#x132;" horiz-adv-x="1413" 
d="M397 717q0 -63 12.5 -91t48.5 -39.5t115 -11.5q5 0 5 -12t-5 -12q-30 0 -111 2t-134 2q-48 0 -129.5 -2t-112.5 -2q-4 0 -4 12t4 12q112 0 144 26t32 116v397q0 88 -32 114.5t-144 26.5q-4 0 -4 12.5t4 12.5q31 0 112.5 -3t129.5 -3q53 0 135.5 3t109.5 3q5 0 5 -12.5
t-5 -12.5q-111 0 -143.5 -28t-32.5 -117v-393zM1343 1280q6 0 6 -12.5t-6 -12.5q-95 0 -123 -28t-28 -117v-582q0 -264 -134.5 -409.5t-355.5 -145.5q-97 0 -184 28t-146 72t-93.5 97.5t-34.5 105.5q0 34 18.5 54t50.5 20q34 0 53.5 -19t28.5 -49.5t16.5 -67.5t23.5 -74
t43 -67.5t81.5 -49.5t132.5 -19q188 0 277.5 106.5t89.5 299.5v704q0 88 -37 114.5t-164 26.5q-6 0 -6 12.5t6 12.5q37 0 125.5 -3t138.5 -3q48 0 122 3t99 3z" />
    <glyph glyph-name="ij" unicode="&#x133;" horiz-adv-x="1077" 
d="M281 1049q-43 0 -67 22.5t-24 63.5t24 63.5t67 22.5q41 0 63.5 -22.5t22.5 -63.5t-22.5 -63.5t-63.5 -22.5zM813 1049q-43 0 -66.5 22.5t-23.5 63.5t23.5 63.5t66.5 22.5q41 0 63.5 -22.5t22.5 -63.5t-22.5 -63.5t-63.5 -22.5zM109 0q-5 0 -5 12.5t5 12.5q80 0 105.5 27
t25.5 114v383q0 74 -15.5 106.5t-52.5 32.5q-35 0 -92 -29q-9 -3 -13.5 8.5t1.5 16.5l266 123l8 2q5 0 10.5 -5t5.5 -11q0 -7 -1 -41t-2 -88.5t-1 -112.5v-385q0 -88 24 -114.5t105 -26.5q6 0 6 -12.5t-6 -12.5q-22 0 -84.5 2t-101.5 2t-102 -2t-86 -2zM893 793
q0 -7 -1 -40.5t-2 -88.5t-1 -113v-649q0 -205 -63.5 -311t-225.5 -169q-5 -2 -9.5 9t-0.5 14q100 42 141 137t41 273v694q0 74 -14 106.5t-49 32.5q-36 0 -95 -29q-9 -3 -14.5 8.5t2.5 16.5l266 123q4 2 6 2q6 0 12.5 -5t6.5 -11z" />
    <glyph glyph-name="Jcircumflex" unicode="&#x134;" horiz-adv-x="659" 
d="M100 1436l211 200q9 9 23.5 9t23.5 -9l209 -200q3 -2 2 -6.5t-5 -7.5t-7 -1l-221 119l-223 -119q-2 -1 -6.5 2t-6.5 7t0 6zM573 1280q5 0 5 -12.5t-5 -12.5q-96 0 -123.5 -27.5t-27.5 -117.5v-1167q0 -203 -94.5 -323t-272.5 -120q-69 0 -109 24t-40 64q0 30 18 49t51 19
q27 0 46.5 -12t31 -29t22.5 -33.5t27.5 -28.5t38.5 -12q73 0 109.5 85t36.5 274v1214q0 89 -36.5 115t-164.5 26q-4 0 -4 12.5t4 12.5q38 0 126.5 -3t139.5 -3q48 0 121.5 3t99.5 3z" />
    <glyph glyph-name="jcircumflex" unicode="&#x135;" horiz-adv-x="526" 
d="M424 975q3 -4 -6 -7q-13 -4 -15 3l-139 336l-141 -336q-1 -4 -7 -4t-11.5 2.5t-4.5 5.5l140 510q2 11 22.5 11t24.5 -11zM342 793q0 -7 -1 -41t-2 -88.5t-1 -112.5v-649q0 -205 -63.5 -311t-225.5 -169q-5 -2 -9.5 9t-0.5 14q100 42 141 137t41 273v694q0 74 -14 106.5
t-49 32.5q-36 0 -95 -29q-9 -3 -14.5 8.5t2.5 16.5l266 123q4 2 7 2q6 0 12 -5t6 -11z" />
    <glyph glyph-name="Kcommaaccent" unicode="&#x136;" horiz-adv-x="1331" 
d="M1313 25q6 0 6 -12.5t-6 -12.5h-230h-30q-53 -1 -70.5 11t-68.5 83q-78 109 -152 203l-313 395l-68 -65v-461q0 -90 31 -115.5t143 -25.5q6 0 6 -12.5t-6 -12.5q-29 0 -109.5 2t-132.5 2q-48 0 -129.5 -2t-111.5 -2q-4 0 -4 12.5t4 12.5q112 0 144 25.5t32 115.5v948
q0 89 -31.5 115t-142.5 26q-4 0 -4 12.5t4 12.5q31 0 111 -3t128 -3q52 0 133.5 3t108.5 3q6 0 6 -12.5t-6 -12.5q-109 0 -141.5 -28t-32.5 -117v-432l438 436q77 78 65.5 109.5t-118.5 31.5q-4 0 -4 12.5t4 12.5q28 0 102 -3t136 -3q59 0 127 3t90 3q6 0 6 -12.5t-6 -12.5
q-85 0 -179.5 -36.5t-175.5 -116.5l-323 -318l295 -376q56 -72 99.5 -126.5t81.5 -95.5t64 -68.5t53 -45.5t42.5 -27.5t40.5 -14t37 -5t41 -0.5h16zM690 -174q57 0 87 -39t30 -111q0 -124 -125 -239q-8 -5 -15 2.5t-1 13.5q90 78 90 182q0 41 -13 60q-15 -31 -61 -31
q-36 0 -58 22t-22 58q0 82 88 82z" />
    <glyph glyph-name="kcommaaccent" unicode="&#x137;" horiz-adv-x="1005" 
d="M989 25q6 0 6 -12.5t-6 -12.5q-22 0 -84.5 2t-101.5 2q-56 0 -133.5 -2t-102.5 -2q-5 0 -5 12.5t5 12.5q74 0 94 20t-10 64l-252 342l-102 -80v-205q0 -88 24.5 -114.5t104.5 -26.5q6 0 6 -12.5t-6 -12.5q-22 0 -84.5 2t-101.5 2t-102 -2t-85 -2q-6 0 -6 12.5t6 12.5
q80 0 104.5 26.5t24.5 114.5v1059q0 74 -14.5 106.5t-50.5 32.5q-28 0 -94 -29q-5 -3 -10 2.5t-5.5 11.5t4.5 9l256 125q6 2 11 2q6 0 12 -5.5t6 -11.5v-1065l274 222q79 63 64 102t-115 39q-6 0 -6 12.5t6 12.5q27 0 99.5 -2.5t134.5 -2.5q57 0 123 2.5t88 2.5q6 0 6 -12.5
t-6 -12.5q-75 0 -167.5 -37t-185.5 -111l-118 -94l260 -358q103 -141 235 -141zM492 -174q57 0 86.5 -39t29.5 -111q0 -124 -125 -239q-8 -5 -15 2.5t-1 13.5q90 78 90 182q0 42 -12 60q-15 -31 -62 -31q-36 0 -58 22t-22 58q0 82 89 82z" />
    <glyph glyph-name="kgreenlandic" unicode="&#x138;" horiz-adv-x="1042" 
d="M1026 25q4 0 4 -12.5t-4 -12.5q-22 0 -85.5 2t-102.5 2q-56 0 -132.5 -2t-101.5 -2q-6 0 -6 12.5t6 12.5q72 0 92 20t-10 64l-250 344l-102 -82v-205q0 -88 24 -114.5t105 -26.5q6 0 6 -12.5t-6 -12.5q-22 0 -86 2t-103 2t-101.5 -2t-84.5 -2q-4 0 -4 12.5t4 12.5
q80 0 104.5 26.5t24.5 114.5v405q0 69 -16.5 100t-55.5 31q-32 0 -110 -30q-9 -3 -14 7.5t4 14.5l237 113q6 2 12 2q11 0 24.5 -18.5t24.5 -58.5t11 -91v-238l274 222q79 63 64 102t-115 39q-6 0 -6 12.5t6 12.5q27 0 99.5 -2.5t134.5 -2.5q57 0 122 2.5t88 2.5q5 0 5 -12.5
t-5 -12.5q-167 0 -354 -148l-119 -94l260 -358q103 -141 238 -141z" />
    <glyph glyph-name="Lacute" unicode="&#x139;" horiz-adv-x="1091" 
d="M125 1391q-9 -4 -13 6.5t3 13.5q75 39 194.5 111.5t139.5 83.5q15 8 89 -25q50 -22 47 -31q-1 -1 -5 -2q-223 -55 -455 -157zM379 1112v-938q0 -84 29.5 -107.5t134.5 -23.5h223q116 0 185.5 71.5t92.5 198.5q0 4 6 5t11.5 -1t5.5 -6q-18 -171 -18 -280q0 -18 -6.5 -24.5
t-24.5 -6.5h-946q-4 0 -4 12.5t4 12.5q112 0 143 25.5t31 115.5v948q0 89 -31.5 115t-142.5 26q-4 0 -4 12.5t4 12.5q30 0 110.5 -3t128.5 -3q51 0 132.5 3t109.5 3q6 0 6 -12.5t-6 -12.5q-109 0 -141.5 -27t-32.5 -116z" />
    <glyph glyph-name="lacute" unicode="&#x13a;" horiz-adv-x="528" 
d="M59 1491q-9 -4 -13 6.5t3 13.5q75 39 194.5 111.5t139.5 83.5q15 8 89 -24q50 -22 47 -31q-1 -1 -5 -2q-218 -54 -455 -158zM82 0q-6 0 -6 12.5t6 12.5q80 0 104.5 26.5t24.5 114.5v1059q0 73 -15 106t-51 33q-28 0 -94 -29q-5 -3 -9.5 2.5t-4.5 11.5t4 9l262 125
q4 2 10 2q5 0 12 -5.5t7 -11.5v-1302q0 -87 23.5 -114t103.5 -27q6 0 6 -12.5t-6 -12.5q-20 0 -84.5 2t-104.5 2q-39 0 -102.5 -2t-85.5 -2z" />
    <glyph glyph-name="Lcommaaccent" unicode="&#x13b;" horiz-adv-x="1091" 
d="M1044 313q0 4 6 5t11.5 -1t5.5 -6q-18 -171 -18 -280q0 -18 -6.5 -24.5t-24.5 -6.5h-946q-4 0 -4 12.5t4 12.5q112 0 143 25.5t31 115.5v948q0 89 -31.5 115t-142.5 26q-4 0 -4 12.5t4 12.5q30 0 110.5 -3t128.5 -3q51 0 132.5 3t109.5 3q6 0 6 -12.5t-6 -12.5
q-109 0 -141.5 -27t-32.5 -116v-938q0 -84 29.5 -107.5t134.5 -23.5h223q116 0 185.5 71.5t92.5 198.5zM594 -174q57 0 87 -39t30 -111q0 -124 -125 -239q-5 -3 -11 -0.5t-7.5 7.5t1.5 9q90 78 90 182q0 42 -12 60q-15 -31 -61 -31q-36 0 -58 22t-22 58q0 82 88 82z" />
    <glyph glyph-name="lcommaaccent" unicode="&#x13c;" horiz-adv-x="528" 
d="M459 25q6 0 6 -12.5t-6 -12.5q-20 0 -84.5 2t-104.5 2q-39 0 -102.5 -2t-85.5 -2q-6 0 -6 12.5t6 12.5q80 0 104.5 26.5t24.5 114.5v1059q0 73 -15 106t-51 33q-28 0 -94 -29q-5 -3 -9.5 2.5t-4.5 11.5t4 9l262 125q4 2 10 2q5 0 12 -5.5t7 -11.5v-1302q0 -87 23.5 -114
t103.5 -27zM256 -174q57 0 87 -39t30 -111q0 -124 -125 -239q-5 -3 -11 -0.5t-7.5 7.5t1.5 9q91 79 91 182q0 41 -13 60q-15 -31 -61 -31q-36 0 -58 22t-22 58q0 82 88 82z" />
    <glyph glyph-name="Lcaron" unicode="&#x13d;" horiz-adv-x="1091" 
d="M723 1280q0 14 50 -14q52 -31 54 -47l-65 -498q0 -3 -6 -3.5t-11.5 1t-5.5 4.5zM379 1112v-938q0 -84 29.5 -107.5t134.5 -23.5h223q116 0 185.5 71.5t92.5 198.5q0 4 6 5t11.5 -1t5.5 -6q-18 -171 -18 -280q0 -18 -6.5 -24.5t-24.5 -6.5h-946q-4 0 -4 12.5t4 12.5
q112 0 143 25.5t31 115.5v948q0 89 -31.5 115t-142.5 26q-4 0 -4 12.5t4 12.5q30 0 110.5 -3t128.5 -3q51 0 132.5 3t109.5 3q6 0 6 -12.5t-6 -12.5q-109 0 -141.5 -27t-32.5 -116z" />
    <glyph glyph-name="lcaron" unicode="&#x13e;" horiz-adv-x="528" 
d="M473 1485q0 15 52 -15q51 -31 53 -47l-66 -497q0 -3 -6 -3.5t-11.5 1t-5.5 4.5zM82 0q-6 0 -6 12.5t6 12.5q80 0 104.5 26.5t24.5 114.5v1059q0 73 -15 106t-51 33q-28 0 -94 -29q-5 -3 -9.5 2.5t-4.5 11.5t4 9l262 125q4 2 10 2q5 0 12 -5.5t7 -11.5v-1302
q0 -87 23.5 -114t103.5 -27q6 0 6 -12.5t-6 -12.5q-20 0 -84.5 2t-104.5 2q-39 0 -102.5 -2t-85.5 -2z" />
    <glyph glyph-name="Ldot" unicode="&#x13f;" horiz-adv-x="1091" 
d="M379 1112v-938q0 -84 29.5 -107.5t134.5 -23.5h223q116 0 185.5 71.5t92.5 198.5q0 4 6 5t11.5 -1t5.5 -6q-18 -171 -18 -280q0 -18 -6.5 -24.5t-24.5 -6.5h-946q-4 0 -4 12.5t4 12.5q112 0 143 25.5t31 115.5v948q0 89 -31.5 115t-142.5 26q-4 0 -4 12.5t4 12.5
q30 0 110.5 -3t128.5 -3q51 0 132.5 3t109.5 3q6 0 6 -12.5t-6 -12.5q-109 0 -141.5 -27t-32.5 -116zM877 569q-40 0 -65.5 24.5t-25.5 63.5t25.5 62.5t65.5 23.5q42 0 66 -23t24 -63t-24 -64t-66 -24z" />
    <glyph glyph-name="ldot" unicode="&#x140;" horiz-adv-x="526" 
d="M82 0q-6 0 -6 12.5t6 12.5q80 0 104.5 26.5t24.5 114.5v1059q0 73 -15 106t-51 33q-28 0 -94 -29q-5 -3 -9.5 2.5t-4.5 11.5t4 9l262 125q4 2 10 2q5 0 12 -5.5t7 -11.5v-1302q0 -87 23.5 -114t103.5 -27q6 0 6 -12.5t-6 -12.5q-20 0 -84.5 2t-104.5 2q-39 0 -102.5 -2
t-85.5 -2zM524 598q-40 0 -65 24t-25 64q0 39 25 62.5t65 23.5q42 0 66 -23t24 -63t-24 -64t-66 -24z" />
    <glyph glyph-name="Lslash" unicode="&#x141;" horiz-adv-x="1073" 
d="M1044 313q0 4 6 5t11.5 -1t5.5 -6q-18 -171 -18 -280q0 -18 -6.5 -24.5t-24.5 -6.5h-946q-4 0 -4 12.5t4 12.5q112 0 143 25.5t31 115.5v375l-105 -60q-5 -3 -12 6t-10 18.5t0 12.5l127 74v522q0 89 -31.5 115t-142.5 26q-4 0 -4 12.5t4 12.5q30 0 110.5 -3t128.5 -3
q51 0 132.5 3t109.5 3q6 0 6 -12.5t-6 -12.5q-109 0 -141.5 -27t-32.5 -116v-444l219 125q4 3 10.5 -6t9 -18.5t-1.5 -12.5l-237 -138v-444q0 -84 29.5 -107.5t134.5 -23.5h223q116 0 185.5 71.5t92.5 198.5z" />
    <glyph glyph-name="lslash" unicode="&#x142;" horiz-adv-x="536" 
d="M457 846q5 3 13 -6.5t10.5 -20t-3.5 -14.5l-137 -80v-559q0 -87 23.5 -114t103.5 -27q6 0 6 -12.5t-6 -12.5q-20 0 -84 2t-104 2q-39 0 -103 -2t-86 -2q-6 0 -6 12.5t6 12.5q80 0 104.5 26.5t24.5 114.5v487l-117 -67q-5 -3 -12.5 6.5t-10.5 19.5t1 13l139 82v518
q0 74 -14.5 106.5t-50.5 32.5q-29 0 -95 -29q-5 -3 -9.5 2.5t-4.5 11.5t4 9l262 125q4 2 11 2q5 0 11.5 -5.5t6.5 -11.5v-690z" />
    <glyph glyph-name="Nacute" unicode="&#x143;" horiz-adv-x="1488" 
d="M571 1391q-9 -4 -13 6.5t3 13.5q75 39 194.5 111.5t139.5 83.5q15 8 89 -25q50 -22 47 -31q-1 -1 -5 -2q-223 -55 -455 -157zM1442 1280q6 0 6 -12.5t-6 -12.5q-86 0 -125 -47t-39 -153v-1080q0 -4 -10 -5.5t-15 1.5l-942 1141q-9 12 -18 21v-910q0 -106 37.5 -152
t122.5 -46q6 0 6 -12.5t-6 -12.5q-24 0 -84 2t-97 2q-36 0 -99 -2t-89 -2q-4 0 -4 12.5t4 12.5q89 0 125.5 45.5t36.5 152.5v959q-78 73 -162 73q-6 0 -6 12.5t6 12.5q24 0 73.5 -2t69.5 -2q29 0 70 2t49 2q16 0 24.5 -7.5t28.5 -39t43 -59.5l789 -969v850q0 107 -36 153.5
t-120 46.5q-5 0 -5 12.5t5 12.5q26 0 84.5 -3t95.5 -3q35 0 98.5 3t88.5 3z" />
    <glyph glyph-name="nacute" unicode="&#x144;" horiz-adv-x="1058" 
d="M551 971q-1 -4 -7 -4t-11.5 2.5t-4.5 5.5l107 491q5 13 72 26q57 10 53 -3zM1014 25q6 0 6 -12.5t-6 -12.5q-21 0 -84 2t-101 2q-39 0 -102.5 -2t-83.5 -2q-6 0 -6 12.5t6 12.5q79 0 103 26.5t24 114.5v332q0 121 -45.5 178t-142.5 57q-63 0 -127.5 -33.5t-118.5 -93.5
v-440q0 -88 24 -114.5t103 -26.5q6 0 6 -12.5t-6 -12.5q-21 0 -83.5 2t-100.5 2q-39 0 -103 -2t-84 -2q-6 0 -6 12.5t6 12.5q79 0 103 26.5t24 114.5v405q0 69 -16.5 100t-55.5 31q-32 0 -110 -30q-9 -3 -14 7.5t4 14.5l237 113q4 2 12 2q11 0 24.5 -18.5t24.5 -58.5t11 -91
q151 176 313 176q115 0 176.5 -64t61.5 -186v-401q0 -88 24 -114.5t103 -26.5z" />
    <glyph glyph-name="Ncommaaccent" unicode="&#x145;" horiz-adv-x="1488" 
d="M1442 1280q6 0 6 -12.5t-6 -12.5q-86 0 -125 -47t-39 -153v-1080q0 -4 -10 -5.5t-15 1.5l-942 1141q-9 12 -18 21v-910q0 -106 37.5 -152t122.5 -46q6 0 6 -12.5t-6 -12.5q-24 0 -84 2t-97 2q-36 0 -99 -2t-89 -2q-4 0 -4 12.5t4 12.5q89 0 125.5 45.5t36.5 152.5v959
q-78 73 -162 73q-6 0 -6 12.5t6 12.5q24 0 73.5 -2t69.5 -2q29 0 70 2t49 2q16 0 24.5 -7.5t28.5 -39t43 -59.5l789 -969v850q0 107 -36 153.5t-120 46.5q-5 0 -5 12.5t5 12.5q26 0 84.5 -3t95.5 -3q35 0 98.5 3t88.5 3zM752 -174q57 0 86.5 -39t29.5 -111q0 -124 -125 -239
q-8 -5 -15 2.5t-1 13.5q90 78 90 182q0 42 -12 60q-15 -31 -62 -31q-36 0 -57.5 22t-21.5 58q0 82 88 82z" />
    <glyph glyph-name="ncommaaccent" unicode="&#x146;" horiz-adv-x="1058" 
d="M1014 25q6 0 6 -12.5t-6 -12.5q-21 0 -84 2t-101 2q-39 0 -102.5 -2t-83.5 -2q-6 0 -6 12.5t6 12.5q79 0 103 26.5t24 114.5v332q0 121 -45.5 178t-142.5 57q-63 0 -127.5 -33.5t-118.5 -93.5v-440q0 -88 24 -114.5t103 -26.5q6 0 6 -12.5t-6 -12.5q-21 0 -83.5 2
t-100.5 2q-39 0 -103 -2t-84 -2q-6 0 -6 12.5t6 12.5q79 0 103 26.5t24 114.5v405q0 69 -16.5 100t-55.5 31q-32 0 -110 -30q-9 -3 -14 7.5t4 14.5l237 113q4 2 12 2q11 0 24.5 -18.5t24.5 -58.5t11 -91q151 176 313 176q115 0 176.5 -64t61.5 -186v-401q0 -88 24 -114.5
t103 -26.5zM514 -174q57 0 87 -39t30 -111q0 -124 -125 -239q-5 -3 -11 -0.5t-7.5 7.5t1.5 9q91 79 91 182q0 41 -13 60q-15 -31 -61 -31q-36 0 -58 22t-22 58q0 82 88 82z" />
    <glyph glyph-name="Ncaron" unicode="&#x147;" horiz-adv-x="1488" 
d="M535 1606q-2 2 0 5.5t6 6.5t6 2l223 -117l221 117q3 2 7 -1t5 -7t-2 -6l-208 -199q-9 -9 -24 -9t-24 9zM1442 1280q6 0 6 -12.5t-6 -12.5q-86 0 -125 -47t-39 -153v-1080q0 -4 -10 -5.5t-15 1.5l-942 1141q-9 12 -18 21v-910q0 -106 37.5 -152t122.5 -46q6 0 6 -12.5
t-6 -12.5q-24 0 -84 2t-97 2q-36 0 -99 -2t-89 -2q-4 0 -4 12.5t4 12.5q89 0 125.5 45.5t36.5 152.5v959q-78 73 -162 73q-6 0 -6 12.5t6 12.5q24 0 73.5 -2t69.5 -2q29 0 70 2t49 2q16 0 24.5 -7.5t28.5 -39t43 -59.5l789 -969v850q0 107 -36 153.5t-120 46.5q-5 0 -5 12.5
t5 12.5q26 0 84.5 -3t95.5 -3q35 0 98.5 3t88.5 3z" />
    <glyph glyph-name="ncaron" unicode="&#x148;" horiz-adv-x="1058" 
d="M530 977l-139 510q-1 4 4.5 6.5t11.5 2.5t7 -3l141 -338l139 338q1 3 7 3t11 -2.5t3 -6.5l-137 -510q-3 -11 -23 -11t-25 11zM1014 25q6 0 6 -12.5t-6 -12.5q-21 0 -84 2t-101 2q-39 0 -102.5 -2t-83.5 -2q-6 0 -6 12.5t6 12.5q79 0 103 26.5t24 114.5v332
q0 121 -45.5 178t-142.5 57q-63 0 -127.5 -33.5t-118.5 -93.5v-440q0 -88 24 -114.5t103 -26.5q6 0 6 -12.5t-6 -12.5q-21 0 -83.5 2t-100.5 2q-39 0 -103 -2t-84 -2q-6 0 -6 12.5t6 12.5q79 0 103 26.5t24 114.5v405q0 69 -16.5 100t-55.5 31q-32 0 -110 -30q-9 -3 -14 7.5
t4 14.5l237 113q4 2 12 2q11 0 24.5 -18.5t24.5 -58.5t11 -91q151 176 313 176q115 0 176.5 -64t61.5 -186v-401q0 -88 24 -114.5t103 -26.5z" />
    <glyph glyph-name="napostrophe" unicode="&#x149;" horiz-adv-x="1058" 
d="M166 1149q-39 0 -60.5 22t-21.5 58q0 82 94 82q62 0 96.5 -44.5t34.5 -133.5q0 -172 -153 -338q-7 -6 -14.5 1t-2.5 13q46 63 62 120.5t16 129.5q0 51 -18 96q-15 -6 -33 -6zM1014 25q6 0 6 -12.5t-6 -12.5q-21 0 -84 2t-101 2q-39 0 -102.5 -2t-83.5 -2q-6 0 -6 12.5
t6 12.5q79 0 103 26.5t24 114.5v332q0 121 -45.5 178t-142.5 57q-63 0 -127.5 -33.5t-118.5 -93.5v-440q0 -88 24 -114.5t103 -26.5q6 0 6 -12.5t-6 -12.5q-21 0 -83.5 2t-100.5 2q-39 0 -103 -2t-84 -2q-6 0 -6 12.5t6 12.5q79 0 103 26.5t24 114.5v405q0 69 -16.5 100
t-55.5 31q-32 0 -110 -30q-9 -3 -14 7.5t4 14.5l237 113q4 2 12 2q11 0 24.5 -18.5t24.5 -58.5t11 -91q151 176 313 176q115 0 176.5 -64t61.5 -186v-401q0 -88 24 -114.5t103 -26.5z" />
    <glyph glyph-name="Eng" unicode="&#x14a;" horiz-adv-x="1488" 
d="M1442 1280q6 0 6 -12.5t-6 -12.5q-86 0 -125 -47t-39 -153v-1080q0 -179 -66.5 -272.5t-193.5 -93.5q-75 0 -121.5 34t-46.5 83q0 34 17 53.5t48 19.5q34 0 52.5 -23.5t24 -51t24 -51t53.5 -23.5q77 0 120.5 88t43.5 233v25l-922 1116q-9 12 -18 21v-910
q0 -106 37.5 -152t122.5 -46q6 0 6 -12.5t-6 -12.5q-24 0 -84 2t-97 2q-36 0 -99 -2t-89 -2q-4 0 -4 12.5t4 12.5q89 0 126.5 46t37.5 152v957q-83 75 -164 75q-6 0 -6 12.5t6 12.5q24 0 73.5 -2t69.5 -2q29 0 70 2t49 2q16 0 24.5 -7.5t28.5 -39t43 -59.5l791 -971v852
q0 106 -37 153t-121 47q-5 0 -5 12.5t5 12.5q26 0 84.5 -3t95.5 -3q35 0 98.5 3t88.5 3z" />
    <glyph glyph-name="eng" unicode="&#x14b;" horiz-adv-x="1032" 
d="M649 817q113 0 174.5 -64t61.5 -186v-665q0 -204 -62 -304t-227 -163q-5 -2 -9.5 8.5t1.5 13.5q99 43 139.5 132.5t40.5 265.5v643q0 121 -45.5 178t-142.5 57q-63 0 -127.5 -33.5t-118.5 -93.5v-440q0 -88 24 -114.5t105 -26.5q6 0 6 -12.5t-6 -12.5q-22 0 -86 2t-103 2
t-101.5 -2t-84.5 -2q-4 0 -4 12.5t4 12.5q80 0 104.5 26.5t24.5 114.5v405q0 69 -16.5 100t-55.5 31q-32 0 -110 -30q-9 -3 -14 7.5t4 14.5l237 113q6 2 12 2q11 0 24.5 -18.5t24.5 -58.5t11 -89q152 174 315 174z" />
    <glyph glyph-name="Omacron" unicode="&#x14c;" horiz-adv-x="1568" 
d="M530 1479q-12 0 -12 28.5t12 28.5h514q12 0 12 -28.5t-12 -28.5h-514zM750 -25q-191 0 -341 91t-229.5 242t-79.5 331q0 129 43 239t115 187t165.5 131.5t195 80.5t202.5 26q146 0 270 -55t205.5 -146.5t126.5 -208t45 -240.5q0 -140 -58 -266t-155 -216t-229 -143
t-276 -53zM821 18q103 0 192.5 38.5t156.5 110t105 182.5t38 247q0 292 -158.5 475.5t-419.5 183.5q-226 0 -352.5 -145.5t-126.5 -398.5q0 -193 70.5 -350.5t200.5 -250t294 -92.5z" />
    <glyph glyph-name="omacron" unicode="&#x14d;" horiz-adv-x="980" 
d="M233 989q-12 0 -12 29t12 29h515q12 0 12 -29t-12 -29h-515zM473 -27q-118 0 -210.5 60.5t-140.5 158.5t-48 214q0 82 26.5 151t70 116t100.5 80.5t117.5 48.5t121.5 15q91 0 167 -36t125.5 -95.5t77 -134.5t27.5 -156q0 -189 -126.5 -305.5t-307.5 -116.5zM532 12
q112 0 174 80t62 246q0 193 -91.5 316.5t-234.5 123.5q-110 0 -170.5 -80t-60.5 -229q0 -192 90.5 -324.5t230.5 -132.5z" />
    <glyph glyph-name="Obreve" unicode="&#x14e;" horiz-adv-x="1568" 
d="M788 1413q-87 0 -141 57t-69 162q-1 7 9 9t13 -3q14 -56 68.5 -96.5t119.5 -40.5q64 0 118.5 40.5t68.5 96.5q1 3 7 3.5t11 -2t4 -7.5q-15 -105 -68.5 -162t-140.5 -57zM750 -25q-191 0 -341 91t-229.5 242t-79.5 331q0 129 43 239t115 187t165.5 131.5t195 80.5
t202.5 26q146 0 270 -55t205.5 -146.5t126.5 -208t45 -240.5q0 -140 -58 -266t-155 -216t-229 -143t-276 -53zM821 18q103 0 192.5 38.5t156.5 110t105 182.5t38 247q0 292 -158.5 475.5t-419.5 183.5q-226 0 -352.5 -145.5t-126.5 -398.5q0 -193 70.5 -350.5t200.5 -250
t294 -92.5z" />
    <glyph glyph-name="obreve" unicode="&#x14f;" horiz-adv-x="980" 
d="M281 1276q0 5 5.5 7.5t11 2t5.5 -3.5q0 -90 54 -150.5t135 -60.5q78 0 132 61t54 150q0 3 5.5 3.5t11 -2t5.5 -7.5q0 -151 -52.5 -229t-155.5 -78t-157 78.5t-54 228.5zM473 -27q-118 0 -210.5 60.5t-140.5 158.5t-48 214q0 82 26.5 151t70 116t100.5 80.5t117.5 48.5
t121.5 15q91 0 167 -36t125.5 -95.5t77 -134.5t27.5 -156q0 -189 -126.5 -305.5t-307.5 -116.5zM532 12q112 0 174 80t62 246q0 193 -91.5 316.5t-234.5 123.5q-110 0 -170.5 -80t-60.5 -229q0 -192 90.5 -324.5t230.5 -132.5z" />
    <glyph glyph-name="Ohungarumlaut" unicode="&#x150;" horiz-adv-x="1568" 
d="M573 1386q-8 -7 -13 7q-2 9 1 14q101 95 184 195q11 12 82 -13q61 -22 56 -34q-1 -2 -4 -3q-149 -60 -306 -166zM827 1386q-8 -7 -13 7q-2 9 1 14q101 95 184 195q10 12 78 -13q59 -21 55 -34q-1 -2 -4 -3q-139 -57 -301 -166zM750 -25q-191 0 -341 91t-229.5 242
t-79.5 331q0 129 43 239t115 187t165.5 131.5t195 80.5t202.5 26q146 0 270 -55t205.5 -146.5t126.5 -208t45 -240.5q0 -140 -58 -266t-155 -216t-229 -143t-276 -53zM821 18q103 0 192.5 38.5t156.5 110t105 182.5t38 247q0 292 -158.5 475.5t-419.5 183.5
q-226 0 -352.5 -145.5t-126.5 -398.5q0 -193 70.5 -350.5t200.5 -250t294 -92.5z" />
    <glyph glyph-name="ohungarumlaut" unicode="&#x151;" horiz-adv-x="980" 
d="M303 940q-9 -4 -13.5 6t1.5 15q37 36 95.5 108t84.5 98q13 11 94 -15q59 -18 55 -28q-1 -1 -4 -2q-122 -48 -313 -182zM553 940q-9 -4 -13.5 6t1.5 15q37 36 95.5 108t84.5 98q12 11 92 -14q60 -19 55 -28l-4 -3q-120 -48 -311 -182zM473 -27q-118 0 -210.5 60.5
t-140.5 158.5t-48 214q0 82 26.5 151t70 116t100.5 80.5t117.5 48.5t121.5 15q91 0 167 -36t125.5 -95.5t77 -134.5t27.5 -156q0 -189 -126.5 -305.5t-307.5 -116.5zM532 12q112 0 174 80t62 246q0 193 -91.5 316.5t-234.5 123.5q-110 0 -170.5 -80t-60.5 -229
q0 -192 90.5 -324.5t230.5 -132.5z" />
    <glyph glyph-name="OE" unicode="&#x152;" horiz-adv-x="1871" 
d="M1747 303q0 4 5.5 5t11 -1t5.5 -6q-18 -162 -18 -270q0 -18 -6.5 -24.5t-24.5 -6.5h-610q-44 0 -146 -4t-149 -4q-207 0 -371 82.5t-254 224.5t-90 317q0 150 56.5 277t153 211.5t224.5 132t271 47.5q39 0 145 -2t156 -2h577q21 0 21 -18l4 -252q0 -4 -6 -6t-12.5 -1
t-6.5 5q-3 97 -65 163t-154 66h-131q-102 0 -133 -24t-31 -101v-424h250q100 0 142.5 33t42.5 110q0 5 11 5t11 -5q0 -45 -1 -94t-1 -71q0 -31 2 -92t2 -97q0 -5 -11 -5t-11 5q0 90 -44.5 129t-148.5 39h-244v-471q0 -80 30.5 -105.5t129.5 -25.5h170q88 0 158 73t90 187z
M1036 168v926q0 89 -42.5 124t-168.5 35q-167 0 -294 -67t-201 -202t-74 -322q0 -179 67 -324t195 -230t295 -85q130 0 176.5 27.5t46.5 117.5z" />
    <glyph glyph-name="oe" unicode="&#x153;" horiz-adv-x="1402" 
d="M1325 115q6 3 13 -6t1 -15q-130 -119 -278 -119q-116 0 -199 45t-129 125q-51 -82 -131.5 -127t-175.5 -45q-164 0 -269.5 127.5t-105.5 305.5q0 82 25 151t67 116t96 80.5t111.5 48.5t114.5 15q107 0 184.5 -52.5t118.5 -143.5q60 87 151 137.5t199 50.5
q102 0 158.5 -54t56.5 -149q0 -47 -24 -47h-99l-387 -4q-14 -55 -14 -131q0 -175 87.5 -276t233.5 -101q116 0 195 68zM481 10q94 0 148.5 88t54.5 250q0 194 -79.5 312t-207.5 118q-99 0 -156 -81t-57 -232q0 -188 85.5 -321.5t211.5 -133.5zM1049 768q-80 0 -136.5 -49
t-81.5 -135l359 8q0 84 -38 130t-103 46z" />
    <glyph glyph-name="Racute" unicode="&#x154;" horiz-adv-x="1378" 
d="M328 1391q-6 -3 -10 1.5t-4 10t3 8.5q75 39 194.5 111.5t139.5 83.5q15 8 89 -25q50 -22 47 -31q-1 -1 -5 -2q-220 -55 -454 -157zM1399 25q5 0 5 -12.5t-5 -12.5h-264q-52 0 -192.5 175.5t-340.5 488.5q-52 -15 -110 -15q-39 0 -93 4v-487q0 -90 30.5 -115.5
t143.5 -25.5q6 0 6 -12.5t-6 -12.5q-31 0 -110 2t-131 2q-48 0 -130.5 -2t-113.5 -2q-4 0 -4 12.5t4 12.5q113 0 146.5 26t33.5 115v948q0 88 -32 114.5t-144 26.5q-6 0 -6 12.5t6 12.5q30 0 111 -3t129 -3q36 0 124 6t122 6q167 0 256.5 -68t89.5 -188q0 -98 -57 -184.5
t-152 -138.5q257 -384 405.5 -533t278.5 -149zM399 705q58 -9 121 -9q142 0 203 60t61 202q0 297 -249 297q-42 0 -64 -3.5t-40.5 -18t-25 -43.5t-6.5 -80v-405z" />
    <glyph glyph-name="racute" unicode="&#x155;" horiz-adv-x="745" 
d="M375 971q-1 -4 -7 -4t-11.5 2.5t-4.5 5.5l107 491q5 13 72 26q57 10 53 -3zM563 809q45 0 86 -25t41 -59q0 -28 -17.5 -45.5t-49.5 -17.5q-27 0 -65 30.5t-73 30.5q-27 0 -56 -21.5t-93 -95.5v-440q0 -88 37 -114.5t162 -26.5q7 0 7 -12.5t-7 -12.5q-29 0 -116.5 2
t-139.5 2q-39 0 -103 -2t-84 -2q-6 0 -6 12.5t6 12.5q79 0 103 26.5t24 114.5v405q0 69 -16.5 100t-55.5 31q-32 0 -110 -30q-9 -3 -14 7.5t4 14.5l237 113q4 2 12 2q11 0 24.5 -18.5t24.5 -58.5t11 -91v-2q84 97 133.5 133.5t93.5 36.5z" />
    <glyph glyph-name="Rcommaaccent" unicode="&#x156;" horiz-adv-x="1378" 
d="M1399 25q5 0 5 -12.5t-5 -12.5h-264q-52 0 -192.5 175.5t-340.5 488.5q-52 -15 -110 -15q-39 0 -93 4v-487q0 -90 30.5 -115.5t143.5 -25.5q6 0 6 -12.5t-6 -12.5q-31 0 -110 2t-131 2q-48 0 -130.5 -2t-113.5 -2q-4 0 -4 12.5t4 12.5q113 0 146.5 26t33.5 115v948
q0 88 -32 114.5t-144 26.5q-6 0 -6 12.5t6 12.5q30 0 111 -3t129 -3q36 0 124 6t122 6q167 0 256.5 -68t89.5 -188q0 -98 -57 -184.5t-152 -138.5q257 -384 405.5 -533t278.5 -149zM399 705q58 -9 121 -9q142 0 203 60t61 202q0 297 -249 297q-42 0 -64 -3.5t-40.5 -18
t-25 -43.5t-6.5 -80v-405zM684 -174q57 0 87 -39t30 -111q0 -124 -125 -239q-5 -3 -11 -0.5t-7.5 7.5t1.5 9q91 79 91 182q0 41 -13 60q-15 -31 -61 -31q-36 0 -58 22t-22 58q0 82 88 82z" />
    <glyph glyph-name="rcommaaccent" unicode="&#x157;" horiz-adv-x="745" 
d="M563 809q45 0 86 -25t41 -59q0 -28 -17.5 -45.5t-49.5 -17.5q-27 0 -65 30.5t-73 30.5q-27 0 -56 -21.5t-93 -95.5v-440q0 -88 37 -114.5t162 -26.5q7 0 7 -12.5t-7 -12.5q-29 0 -116.5 2t-139.5 2q-39 0 -103 -2t-84 -2q-6 0 -6 12.5t6 12.5q79 0 103 26.5t24 114.5v405
q0 69 -16.5 100t-55.5 31q-32 0 -110 -30q-9 -3 -14 7.5t4 14.5l237 113q4 2 12 2q11 0 24.5 -18.5t24.5 -58.5t11 -91v-2q84 97 133.5 133.5t93.5 36.5zM301 -174q57 0 87 -39t30 -111q0 -124 -125 -239q-5 -3 -11 -0.5t-7.5 7.5t1.5 9q91 79 91 182q0 41 -13 60
q-16 -31 -61 -31q-36 0 -58 22t-22 58q0 82 88 82z" />
    <glyph glyph-name="Rcaron" unicode="&#x158;" horiz-adv-x="1378" 
d="M291 1606q-2 2 0 5.5t6 6.5t6 2l223 -117l222 117q3 2 7 -1t5 -7t-2 -6l-209 -199q-9 -9 -23.5 -9t-23.5 9zM1399 25q5 0 5 -12.5t-5 -12.5h-264q-52 0 -192.5 175.5t-340.5 488.5q-52 -15 -110 -15q-39 0 -93 4v-487q0 -90 30.5 -115.5t143.5 -25.5q6 0 6 -12.5
t-6 -12.5q-31 0 -110 2t-131 2q-48 0 -130.5 -2t-113.5 -2q-4 0 -4 12.5t4 12.5q113 0 146.5 26t33.5 115v948q0 88 -32 114.5t-144 26.5q-6 0 -6 12.5t6 12.5q30 0 111 -3t129 -3q36 0 124 6t122 6q167 0 256.5 -68t89.5 -188q0 -98 -57 -184.5t-152 -138.5
q257 -384 405.5 -533t278.5 -149zM399 705q58 -9 121 -9q142 0 203 60t61 202q0 297 -249 297q-42 0 -64 -3.5t-40.5 -18t-25 -43.5t-6.5 -80v-405z" />
    <glyph glyph-name="rcaron" unicode="&#x159;" horiz-adv-x="745" 
d="M354 977l-139 510q-1 4 4.5 6.5t11.5 2.5t7 -3l141 -338l139 338q1 3 7 3t11 -2.5t3 -6.5l-138 -510q-3 -11 -23 -11t-24 11zM563 809q45 0 86 -25t41 -59q0 -28 -17.5 -45.5t-49.5 -17.5q-27 0 -65 30.5t-73 30.5q-27 0 -56 -21.5t-93 -95.5v-440q0 -88 37 -114.5
t162 -26.5q7 0 7 -12.5t-7 -12.5q-29 0 -116.5 2t-139.5 2q-39 0 -103 -2t-84 -2q-6 0 -6 12.5t6 12.5q79 0 103 26.5t24 114.5v405q0 69 -16.5 100t-55.5 31q-32 0 -110 -30q-9 -3 -14 7.5t4 14.5l237 113q4 2 12 2q11 0 24.5 -18.5t24.5 -58.5t11 -91v-2
q84 97 133.5 133.5t93.5 36.5z" />
    <glyph glyph-name="Sacute" unicode="&#x15a;" horiz-adv-x="1005" 
d="M324 1391q-6 -3 -10 1.5t-4 10t3 8.5q75 39 194.5 111.5t139.5 83.5q15 8 89 -25q50 -22 47 -31q-1 -1 -5 -2q-220 -55 -454 -157zM297 1040q0 -59 20 -107t68 -91.5t82.5 -67t105.5 -66.5q4 -3 7 -4.5t6 -3.5q134 -79 183 -121q126 -106 126 -253q0 -152 -112.5 -251.5
t-309.5 -99.5q-156 0 -289 72q-15 8 -18 39l-27 279q-1 9 10 10.5t13 -6.5q15 -67 42 -126.5t69 -114.5t105.5 -87.5t141.5 -32.5q103 0 173.5 56.5t70.5 179.5q0 42 -9.5 79.5t-22.5 66t-39.5 58t-46 48.5t-57.5 44.5t-59.5 39t-64.5 38.5q-35 21 -48.5 29.5t-45 29.5
t-45.5 33t-39.5 33.5t-37.5 38t-29 41.5t-24.5 48t-13.5 52t-6 60q0 103 57 177.5t141.5 108.5t182.5 34q119 0 240 -50q30 -10 30 -34l15 -236q0 -5 -5.5 -7t-11 -0.5t-6.5 7.5q-7 46 -25.5 92t-52 92.5t-90 75.5t-127.5 29q-114 0 -170.5 -67t-56.5 -165z" />
    <glyph glyph-name="sacute" unicode="&#x15b;" horiz-adv-x="692" 
d="M348 971q-1 -4 -7 -4t-11 2.5t-4 5.5l106 491q5 13 72 26q57 10 53 -3zM205 666q0 -38 14.5 -68.5t46 -56t56 -40.5t69.5 -38q33 -17 44.5 -23t40.5 -23.5t41 -28t32 -30t28.5 -37.5t15.5 -43t7 -53q0 -104 -77.5 -176t-211.5 -72q-106 0 -196 62q-13 9 -13 24l-4 160
q0 6 12 7t13 -5q38 -102 101 -155.5t145 -53.5q67 0 102.5 32.5t32.5 96.5q-1 34 -13.5 62.5t-27 47.5t-44.5 39t-48.5 30t-55.5 28q-50 24 -76.5 39.5t-60.5 44t-49.5 66t-15.5 86.5q0 57 24 102t64 71.5t88.5 40t101.5 13.5q84 0 150 -31q18 -7 18 -22q0 -20 -2 -70
t-2 -80q0 -4 -12.5 -4t-12.5 4q0 65 -68.5 114.5t-144.5 49.5q-53 0 -82.5 -27.5t-29.5 -82.5z" />
    <glyph glyph-name="Scircumflex" unicode="&#x15c;" horiz-adv-x="1005" 
d="M289 1417l211 201q9 9 23.5 9t23.5 -9l209 -201q7 -4 -2 -11q-5 -4 -9 -3l-221 119l-223 -119q-2 -1 -6 2t-6 6.5t0 5.5zM297 1040q0 -59 20 -107t68 -91.5t82.5 -67t105.5 -66.5q4 -3 7 -4.5t6 -3.5q134 -79 183 -121q126 -106 126 -253q0 -152 -112.5 -251.5
t-309.5 -99.5q-156 0 -289 72q-15 8 -18 39l-27 279q-1 9 10 10.5t13 -6.5q15 -67 42 -126.5t69 -114.5t105.5 -87.5t141.5 -32.5q103 0 173.5 56.5t70.5 179.5q0 42 -9.5 79.5t-22.5 66t-39.5 58t-46 48.5t-57.5 44.5t-59.5 39t-64.5 38.5q-35 21 -48.5 29.5t-45 29.5
t-45.5 33t-39.5 33.5t-37.5 38t-29 41.5t-24.5 48t-13.5 52t-6 60q0 103 57 177.5t141.5 108.5t182.5 34q119 0 240 -50q30 -10 30 -34l15 -236q0 -5 -5.5 -7t-11 -0.5t-6.5 7.5q-7 46 -25.5 92t-52 92.5t-90 75.5t-127.5 29q-114 0 -170.5 -67t-56.5 -165z" />
    <glyph glyph-name="scircumflex" unicode="&#x15d;" horiz-adv-x="692" 
d="M514 975q3 -4 -6 -7q-11 -2 -14 3l-140 336l-141 -336q-1 -4 -7 -4t-11.5 2.5t-4.5 5.5l140 510q2 11 22.5 11t24.5 -11zM205 666q0 -38 14.5 -68.5t46 -56t56 -40.5t69.5 -38q33 -17 44.5 -23t40.5 -23.5t41 -28t32 -30t28.5 -37.5t15.5 -43t7 -53q0 -104 -77.5 -176
t-211.5 -72q-106 0 -196 62q-13 9 -13 24l-4 160q0 6 12 7t13 -5q38 -102 101 -155.5t145 -53.5q67 0 102.5 32.5t32.5 96.5q-1 34 -13.5 62.5t-27 47.5t-44.5 39t-48.5 30t-55.5 28q-50 24 -76.5 39.5t-60.5 44t-49.5 66t-15.5 86.5q0 57 24 102t64 71.5t88.5 40
t101.5 13.5q84 0 150 -31q18 -7 18 -22q0 -20 -2 -70t-2 -80q0 -4 -12.5 -4t-12.5 4q0 65 -68.5 114.5t-144.5 49.5q-53 0 -82.5 -27.5t-29.5 -82.5z" />
    <glyph glyph-name="Scedilla" unicode="&#x15e;" horiz-adv-x="1005" 
d="M895 326q0 -139 -95.5 -235.5t-267.5 -113.5q-10 -34 -15.5 -54t-4 -39t3 -27t18 -22t26.5 -20t42 -24q111 -64 111 -158q0 -76 -54 -136t-159 -60q-58 0 -94.5 20.5t-36.5 57.5q0 27 18 44t43 17q24 0 39.5 -15.5t22 -33.5t25 -33.5t48.5 -15.5q70 0 70 78q0 54 -38 95
t-138 95q-27 13 -29.5 22.5t10.5 38.5q26 64 64 168h-31q-156 0 -289 72q-15 8 -18 39l-27 279q-1 9 10 10.5t13 -6.5q15 -67 42 -126.5t69 -114.5t105.5 -87.5t141.5 -32.5q103 0 173.5 56.5t70.5 179.5q0 42 -9.5 79.5t-22.5 66t-39.5 58t-46 48.5t-57.5 44.5t-59.5 39
t-64.5 38.5q-35 21 -48.5 29.5t-45 29.5t-45.5 33t-39.5 33.5t-37.5 38t-29 41.5t-24.5 48t-13.5 52t-6 60q0 103 57 177.5t141.5 108.5t182.5 34q119 0 240 -50q30 -10 30 -34l15 -236q0 -5 -5.5 -7t-11 -0.5t-6.5 7.5q-7 46 -25.5 92t-52 92.5t-90 75.5t-127.5 29
q-114 0 -170.5 -67t-56.5 -165q0 -59 20 -107t68 -91.5t82.5 -67t105.5 -66.5q4 -3 7 -4.5t6 -3.5q134 -79 183 -121q126 -106 126 -253z" />
    <glyph glyph-name="scedilla" unicode="&#x15f;" horiz-adv-x="692" 
d="M600 225q0 -96 -66.5 -165.5t-185.5 -79.5q-8 -26 -12.5 -43t-6 -33.5t-2.5 -25.5t6 -20.5t10 -16.5t18.5 -15.5t24 -15.5t32.5 -19q110 -64 110 -158q0 -76 -54 -136t-159 -60q-58 0 -94.5 20.5t-36.5 57.5q0 27 18 44t44 17q24 0 39.5 -15.5t22 -33.5t25 -33.5
t48.5 -15.5q70 0 70 78q0 54 -38.5 95t-138.5 95q-27 13 -29 22.5t11 38.5q21 50 63 170h-8q-106 0 -196 62q-13 9 -13 24l-4 160q0 6 12 7t13 -5q38 -102 101 -155.5t145 -53.5q67 0 102.5 32.5t32.5 96.5q-1 34 -13.5 62.5t-27 47.5t-44.5 39t-48.5 30t-55.5 28
q-50 24 -76.5 39.5t-60.5 44t-49.5 66t-15.5 86.5q0 57 24 102t64 71.5t88.5 40t101.5 13.5q84 0 150 -31q18 -7 18 -22q0 -20 -2 -70t-2 -80q0 -4 -12.5 -4t-12.5 4q0 65 -68.5 114.5t-144.5 49.5q-53 0 -82.5 -27.5t-29.5 -82.5q0 -38 14.5 -68.5t46 -56t56 -40.5
t69.5 -38q33 -17 44.5 -23t40.5 -23.5t41 -28t32 -30t28.5 -37.5t15.5 -43t7 -53z" />
    <glyph glyph-name="Scaron" unicode="&#x160;" horiz-adv-x="1005" 
d="M498 1407l-211 199q-2 2 0 5.5t6 6.5t6 2l223 -117l221 117q6 4 12 -6q4 -6 -1 -8l-209 -199q-9 -9 -23.5 -9t-23.5 9zM297 1040q0 -59 20 -107t68 -91.5t82.5 -67t105.5 -66.5q4 -3 7 -4.5t6 -3.5q134 -79 183 -121q126 -106 126 -253q0 -152 -112.5 -251.5
t-309.5 -99.5q-156 0 -289 72q-15 8 -18 39l-27 279q-1 9 10 10.5t13 -6.5q15 -67 42 -126.5t69 -114.5t105.5 -87.5t141.5 -32.5q103 0 173.5 56.5t70.5 179.5q0 42 -9.5 79.5t-22.5 66t-39.5 58t-46 48.5t-57.5 44.5t-59.5 39t-64.5 38.5q-35 21 -48.5 29.5t-45 29.5
t-45.5 33t-39.5 33.5t-37.5 38t-29 41.5t-24.5 48t-13.5 52t-6 60q0 103 57 177.5t141.5 108.5t182.5 34q119 0 240 -50q30 -10 30 -34l15 -236q0 -5 -5.5 -7t-11 -0.5t-6.5 7.5q-7 46 -25.5 92t-52 92.5t-90 75.5t-127.5 29q-114 0 -170.5 -67t-56.5 -165z" />
    <glyph glyph-name="scaron" unicode="&#x161;" horiz-adv-x="692" 
d="M188 1487q-1 4 4.5 6.5t11.5 2.5t7 -3l141 -338l140 338q1 3 7 3t10.5 -2.5t2.5 -6.5l-137 -510q-3 -11 -22.5 -11t-24.5 11zM205 666q0 -38 14.5 -68.5t46 -56t56 -40.5t69.5 -38q33 -17 44.5 -23t40.5 -23.5t41 -28t32 -30t28.5 -37.5t15.5 -43t7 -53
q0 -104 -77.5 -176t-211.5 -72q-106 0 -196 62q-13 9 -13 24l-4 160q0 6 12 7t13 -5q38 -102 101 -155.5t145 -53.5q67 0 102.5 32.5t32.5 96.5q-1 34 -13.5 62.5t-27 47.5t-44.5 39t-48.5 30t-55.5 28q-50 24 -76.5 39.5t-60.5 44t-49.5 66t-15.5 86.5q0 57 24 102t64 71.5
t88.5 40t101.5 13.5q84 0 150 -31q18 -7 18 -22q0 -20 -2 -70t-2 -80q0 -4 -12.5 -4t-12.5 4q0 65 -68.5 114.5t-144.5 49.5q-53 0 -82.5 -27.5t-29.5 -82.5z" />
    <glyph glyph-name="uni0162" unicode="&#x162;" horiz-adv-x="1298" 
d="M1202 1331q2 7 12.5 7t10.5 -7q-6 -60 -12.5 -193t-6.5 -184q0 -4 -12 -4t-12 4q-6 159 -65.5 224t-196.5 65q-48 0 -75 -1t-52.5 -6t-37 -13t-20.5 -24t-11.5 -36.5t-2.5 -52.5v-944q0 -63 14.5 -91t55 -39t129.5 -11q6 0 6 -12.5t-6 -12.5q-31 0 -117 2t-141 2
q-24 -73 -25.5 -107.5t15.5 -56t67 -49.5q110 -64 110 -158q0 -76 -54 -136t-159 -60q-58 0 -94.5 20.5t-36.5 57.5q0 27 18 44t44 17q25 0 40 -15.5t21.5 -33.5t25 -33.5t48.5 -15.5q70 0 70 78q0 54 -38.5 95t-138.5 95q-27 13 -29 22.5t11 38.5q9 21 76 197
q-50 0 -133 -2t-115 -2q-5 0 -5 12.5t5 12.5q88 0 129 11t56.5 39.5t15.5 90.5v948q0 32 -2.5 52.5t-12.5 35.5t-21 22.5t-37.5 12t-52 5.5t-73.5 1q-129 0 -194 -66t-93 -223q0 -4 -11 -4t-11 4q28 245 28 371q0 9 11.5 9.5t11.5 -9.5q0 -45 111 -45q175 -6 411 -6
q107 0 230.5 3t165.5 3q74 0 109.5 10t45.5 41z" />
    <glyph glyph-name="uni0163" unicode="&#x163;" horiz-adv-x="692" 
d="M633 104q8 5 14.5 -4.5t-0.5 -15.5q-75 -59 -135.5 -84t-126.5 -25h-2q-10 -34 -15 -53t-4 -38t3 -27t17.5 -21.5t26.5 -20t42 -24.5q110 -64 110 -158q0 -76 -54 -136t-159 -60q-58 0 -94.5 20.5t-36.5 57.5q0 27 18 44t44 17q25 0 40 -15.5t21.5 -33.5t25 -33.5
t48.5 -15.5q69 0 69 78q0 54 -38 95t-138 95q-27 13 -29 22.5t11 38.5q21 50 63 170q-74 5 -120 44.5t-46 121.5v482q0 75 -17.5 93.5t-86.5 18.5q-8 0 -8 13.5t8 13.5q82 1 133 43.5t59 112.5q0 6 15.5 6t15.5 -6v-152q103 2 285 20q5 0 9.5 -15t4.5 -34q0 -10 -3.5 -22
t-8.5 -20t-10 -7q-111 30 -277 33v-510q0 -83 42 -124.5t120 -41.5q96 0 164 57z" />
    </font>
</defs>
</svg>
