<svg width="16" height="24" viewBox="0 0 16 24" fill="none" xmlns="http://www.w3.org/2000/svg">
<path class="bookmark-shadow" d="M1.3 5.23403C1.3 4.61701 0.65 4 0 4H11.7C12.35 4 13 4.61701 13 5.23403V23.1274C13 23.7444 13 24.3614 12.35 23.7444L7.15 18.8083L1.95 23.7444C1.62042 24.0573 1.30194 23.7444 1.3 23.1274C1.29806 22.5104 1.3 5.85104 1.3 5.23403Z" fill="#CAA19D"/>
<path d="M1.63636 10.8722H1C1 10.8722 1 2.85104 1 2.23403C1 1.61701 1.63636 1 2.27273 1M2.27273 1C2.90909 1 3.54545 1.61701 3.54545 2.23403C3.54545 2.85104 3.54355 19.5104 3.54545 20.1274C3.54736 20.7444 3.85915 21.0573 4.18182 20.7444C4.50448 20.4316 9.27273 15.8083 9.27273 15.8083C9.27273 15.8083 13.7273 20.1274 14.3636 20.7444C15 21.3614 15 20.7444 15 20.1274C15 19.5104 15 2.85104 15 2.23403C15 1.61701 14.3636 0.999996 13.7273 1C13.0909 1 2.90909 1 2.27273 1Z" stroke="#AC6963" stroke-width="1.5" stroke-linecap="round" stroke-linejoin="round"/>
</svg>
